<svg width="750" height="500" viewBox="0 0 750 500" fill="none" xmlns="http://www.w3.org/2000/svg">
<path d="M622.148 93.5679C622.964 73.1453 609.573 56.0284 592.238 55.3362C574.904 54.644 560.19 70.6386 559.375 91.0612C558.559 111.484 571.95 128.601 589.285 129.293C606.619 129.985 621.333 113.991 622.148 93.5679Z" fill="#EBEBEB"/>
<path d="M612.641 93.347C611.747 111.955 599.339 126.752 584.029 128.556C585.645 128.948 587.309 129.196 589.013 129.283C606.339 130.169 621.179 114.338 622.16 93.922C623.14 73.507 609.89 56.239 592.564 55.352C591.03 55.274 589.516 55.329 588.029 55.504C602.838 59.093 613.525 74.94 612.641 93.347Z" fill="#E0E0E0"/>
<path d="M367.431 455.339C387.768 453.347 403.471 443.733 402.504 433.867C401.538 424 384.268 417.617 363.931 419.61C343.594 421.602 327.891 431.216 328.858 441.082C329.824 450.949 347.094 457.332 367.431 455.339Z" fill="#EBEBEB"/>
<path d="M365.981 450.025C347.424 451.486 331.96 446.001 329.241 437.493C328.949 438.453 328.803 439.424 328.82 440.402C328.986 450.34 345.626 457.097 365.985 455.494C386.345 453.892 402.715 444.537 402.55 434.599C402.535 433.719 402.389 432.865 402.125 432.039C399.45 440.832 384.338 448.58 365.981 450.025Z" fill="#E0E0E0"/>
<path d="M105.51 400.872C115.86 392.202 115.97 375.288 105.754 363.093C95.5387 350.899 78.8671 348.043 68.5172 356.713C58.1672 365.384 58.0581 382.298 68.2735 394.492C78.4889 406.686 95.1604 409.543 105.51 400.872Z" fill="#EBEBEB"/>
<path d="M74.0291 389.804C83.4281 400.843 98.1091 404.058 108.399 397.889C107.59 398.899 106.683 399.843 105.674 400.707C95.4211 409.492 78.7501 406.796 68.4381 394.685C58.1261 382.574 58.0771 365.635 68.3301 356.849C69.2381 356.071 70.1971 355.385 71.1961 354.786C63.7781 364.04 64.7301 378.884 74.0291 389.804Z" fill="#E0E0E0"/>
<path d="M70.1638 254.353C70.3163 243.98 64.6918 235.487 57.6012 235.382C50.5106 235.278 44.6388 243.603 44.4863 253.976C44.3338 264.349 49.9583 272.842 57.0489 272.947C64.1396 273.051 70.0113 264.726 70.1638 254.353Z" fill="#EBEBEB"/>
<path d="M48.3861 253.861C48.1821 263.314 52.7871 271.275 58.9721 272.769C58.3021 272.906 57.6161 272.968 56.9191 272.948C49.8301 272.739 44.2661 264.162 44.4891 253.791C44.7131 243.42 50.6411 235.181 57.7301 235.39C58.3581 235.409 58.9731 235.494 59.5741 235.639C53.4271 236.893 48.5881 244.51 48.3861 253.861Z" fill="#E0E0E0"/>
<path d="M659.612 338.387C654.235 348.534 656.87 360.437 665.497 364.974C674.124 369.511 685.476 364.963 690.853 354.816C696.23 344.669 693.595 332.766 684.968 328.229C676.341 323.693 664.989 328.24 659.612 338.387Z" fill="#EBEBEB"/>
<path d="M686.088 352.367C690.989 343.118 689.233 332.412 682.351 327.153C683.244 327.427 684.119 327.784 684.968 328.23C693.595 332.767 696.23 344.67 690.853 354.817C685.476 364.964 674.124 369.512 665.497 364.975C664.733 364.573 664.017 364.113 663.349 363.602C671.535 366.111 681.24 361.516 686.088 352.367Z" fill="#E0E0E0"/>
<path d="M208.887 91.9411C214.152 76.9314 208.093 61.1408 195.353 56.672C182.614 52.2031 168.018 60.7481 162.753 75.7579C157.488 90.7676 163.547 106.558 176.286 111.027C189.026 115.496 203.622 106.951 208.887 91.9411Z" fill="#EBEBEB"/>
<path d="M167.899 77.395C163.21 91.114 167.945 105.378 178.505 111.072C177.224 110.892 175.949 110.594 174.691 110.169C161.901 105.842 155.704 90.133 160.848 75.082C165.992 60.03 180.53 51.336 193.32 55.662C194.452 56.045 195.532 56.519 196.558 57.072C184.812 55.423 172.537 63.824 167.899 77.395Z" fill="#E0E0E0"/>
<path d="M519.513 82.525L523.717 85.028C524.262 85.353 524.218 86.159 523.64 86.448L519.178 88.68C519.038 88.75 518.92 88.858 518.839 88.992L516.233 93.246C515.895 93.797 515.088 93.772 514.812 93.201L512.678 88.798C512.611 88.66 512.506 88.545 512.373 88.466L508.169 85.963C507.624 85.638 507.668 84.833 508.246 84.543L512.708 82.311C512.848 82.241 512.966 82.133 513.047 82L515.652 77.746C515.99 77.194 516.797 77.22 517.074 77.79L519.208 82.193C519.276 82.332 519.381 82.447 519.513 82.525Z" fill="#E0E0E0"/>
<path d="M112.622 444.408L116.826 446.911C117.371 447.235 117.327 448.042 116.749 448.331L112.287 450.563C112.147 450.633 112.029 450.741 111.948 450.875L109.342 455.129C109.004 455.681 108.197 455.655 107.921 455.084L105.787 450.681C105.72 450.543 105.614 450.428 105.482 450.349L101.278 447.846C100.733 447.522 100.777 446.716 101.355 446.426L105.817 444.194C105.957 444.124 106.075 444.016 106.156 443.883L108.761 439.629C109.099 439.077 109.906 439.103 110.183 439.673L112.317 444.076C112.385 444.215 112.49 444.33 112.622 444.408Z" fill="#E0E0E0"/>
<path d="M483.764 441.441L487.968 443.944C488.513 444.268 488.469 445.075 487.891 445.364L483.429 447.596C483.289 447.666 483.171 447.774 483.09 447.908L480.484 452.162C480.146 452.713 479.339 452.688 479.063 452.117L476.929 447.714C476.862 447.576 476.756 447.461 476.624 447.382L472.42 444.879C471.875 444.555 471.919 443.749 472.498 443.459L476.96 441.227C477.1 441.157 477.218 441.049 477.299 440.916L479.904 436.662C480.242 436.11 481.049 436.136 481.326 436.706L483.46 441.109C483.526 441.247 483.632 441.363 483.764 441.441Z" fill="#E0E0E0"/>
<path d="M666.919 437.832L671.123 440.335C671.668 440.659 671.624 441.466 671.046 441.755L666.584 443.987C666.444 444.057 666.326 444.165 666.245 444.299L663.639 448.553C663.301 449.105 662.494 449.079 662.218 448.508L660.084 444.105C660.017 443.967 659.912 443.852 659.779 443.773L655.575 441.27C655.03 440.946 655.074 440.14 655.653 439.85L660.115 437.618C660.255 437.548 660.373 437.44 660.454 437.307L663.059 433.053C663.397 432.501 664.204 432.527 664.481 433.097L666.615 437.5C666.682 437.638 666.787 437.754 666.919 437.832Z" fill="#E0E0E0"/>
<path d="M218.21 130.972L222.414 133.475C222.959 133.799 222.915 134.606 222.337 134.895L217.875 137.127C217.735 137.197 217.617 137.305 217.536 137.439L214.93 141.693C214.592 142.244 213.785 142.219 213.509 141.648L211.375 137.245C211.308 137.107 211.203 136.992 211.07 136.913L206.866 134.41C206.321 134.085 206.365 133.28 206.943 132.99L211.405 130.758C211.545 130.688 211.663 130.58 211.744 130.447L214.349 126.193C214.687 125.641 215.494 125.667 215.771 126.237L217.905 130.64C217.972 130.778 218.078 130.893 218.21 130.972Z" fill="#E0E0E0"/>
<path d="M245.056 46.531L249.26 49.034C249.805 49.359 249.761 50.165 249.183 50.454L244.721 52.686C244.581 52.756 244.463 52.864 244.382 52.998L241.776 57.252C241.438 57.804 240.631 57.778 240.355 57.207L238.221 52.804C238.154 52.666 238.048 52.551 237.916 52.472L233.712 49.969C233.167 49.644 233.211 48.839 233.789 48.549L238.251 46.317C238.391 46.247 238.509 46.139 238.59 46.006L241.195 41.752C241.533 41.2 242.34 41.226 242.617 41.796L244.751 46.199C244.819 46.337 244.925 46.453 245.056 46.531Z" fill="#E0E0E0"/>
<path d="M108.881 83.322L111.014 84.592C111.291 84.757 111.268 85.166 110.975 85.312L108.711 86.444C108.64 86.479 108.58 86.534 108.539 86.602L107.217 88.761C107.046 89.041 106.636 89.028 106.496 88.738L105.413 86.504C105.379 86.434 105.325 86.376 105.258 86.336L103.125 85.066C102.849 84.901 102.871 84.492 103.164 84.345L105.428 83.213C105.499 83.178 105.559 83.123 105.6 83.055L106.922 80.896C107.094 80.616 107.503 80.629 107.643 80.918L108.726 83.152C108.76 83.224 108.814 83.282 108.881 83.322Z" fill="#E0E0E0"/>
<path d="M346.689 71.005L348.822 72.275C349.099 72.44 349.076 72.849 348.783 72.995L346.519 74.127C346.448 74.162 346.388 74.217 346.347 74.285L345.025 76.444C344.854 76.724 344.444 76.711 344.304 76.421L343.221 74.187C343.187 74.117 343.134 74.059 343.066 74.019L340.933 72.749C340.657 72.584 340.679 72.175 340.972 72.028L343.236 70.896C343.307 70.861 343.367 70.806 343.408 70.738L344.73 68.579C344.902 68.299 345.311 68.312 345.451 68.601L346.534 70.835C346.569 70.907 346.622 70.965 346.689 71.005Z" fill="#E0E0E0"/>
<path d="M544.515 56.949L546.648 58.219C546.924 58.384 546.902 58.793 546.609 58.94L544.345 60.072C544.274 60.107 544.214 60.162 544.173 60.23L542.851 62.389C542.68 62.669 542.27 62.656 542.13 62.366L541.047 60.132C541.013 60.062 540.96 60.004 540.892 59.964L538.759 58.694C538.482 58.529 538.505 58.12 538.798 57.973L541.062 56.841C541.133 56.806 541.193 56.751 541.234 56.683L542.556 54.524C542.728 54.244 543.137 54.257 543.277 54.546L544.36 56.78C544.394 56.851 544.448 56.909 544.515 56.949Z" fill="#E0E0E0"/>
<path d="M681.13 63.899L683.263 65.169C683.539 65.334 683.517 65.743 683.224 65.89L680.96 67.022C680.889 67.057 680.829 67.112 680.788 67.18L679.466 69.339C679.295 69.619 678.885 69.606 678.745 69.316L677.662 67.082C677.628 67.012 677.575 66.954 677.507 66.914L675.374 65.644C675.098 65.479 675.12 65.07 675.413 64.924L677.677 63.792C677.748 63.757 677.808 63.702 677.849 63.634L679.171 61.475C679.343 61.195 679.752 61.208 679.892 61.498L680.975 63.732C681.01 63.801 681.063 63.859 681.13 63.899Z" fill="#E0E0E0"/>
<path d="M436.935 462.833L439.438 464.294C439.763 464.483 439.741 464.961 439.4 465.136L436.768 466.481C436.685 466.523 436.616 466.588 436.568 466.667L435.046 469.201C434.849 469.529 434.37 469.519 434.204 469.182L432.917 466.584C432.877 466.503 432.814 466.435 432.735 466.389L430.232 464.928C429.907 464.739 429.929 464.261 430.271 464.086L432.903 462.741C432.985 462.699 433.055 462.634 433.102 462.555L434.624 460.021C434.822 459.692 435.299 459.703 435.466 460.04L436.753 462.637C436.793 462.72 436.856 462.787 436.935 462.833Z" fill="#E0E0E0"/>
<path d="M698.435 281.561L700.938 283.022C701.262 283.211 701.241 283.689 700.9 283.864L698.268 285.209C698.185 285.251 698.116 285.316 698.069 285.395L696.547 287.929C696.35 288.257 695.872 288.247 695.705 287.91L694.418 285.313C694.378 285.232 694.315 285.164 694.236 285.118L691.733 283.657C691.408 283.468 691.43 282.99 691.772 282.815L694.404 281.47C694.486 281.428 694.556 281.363 694.603 281.284L696.125 278.75C696.323 278.421 696.801 278.432 696.968 278.769L698.255 281.366C698.293 281.448 698.356 281.516 698.435 281.561Z" fill="#E0E0E0"/>
<path d="M53.0502 303.815L55.0642 305.014C55.3252 305.169 55.3042 305.556 55.0272 305.694L52.8902 306.763C52.8232 306.797 52.7662 306.848 52.7272 306.912L51.4792 308.95C51.3172 309.214 50.9312 309.202 50.7982 308.929L49.7762 306.82C49.7442 306.754 49.6932 306.699 49.6302 306.661L47.6162 305.462C47.3552 305.307 47.3762 304.921 47.6532 304.782L49.7902 303.713C49.8572 303.679 49.9132 303.628 49.9522 303.564L51.2002 301.526C51.3622 301.262 51.7482 301.274 51.8812 301.547L52.9032 303.656C52.9362 303.723 52.9862 303.778 53.0502 303.815Z" fill="#E0E0E0"/>
<path d="M265.69 452.523L267.704 453.722C267.965 453.877 267.944 454.264 267.667 454.402L265.53 455.471C265.463 455.504 265.407 455.556 265.368 455.62L264.12 457.658C263.958 457.922 263.572 457.91 263.439 457.637L262.417 455.528C262.385 455.462 262.334 455.407 262.271 455.369L260.257 454.17C259.996 454.015 260.017 453.629 260.294 453.49L262.431 452.421C262.498 452.387 262.554 452.336 262.594 452.272L263.842 450.234C264.004 449.97 264.39 449.982 264.523 450.255L265.545 452.364C265.576 452.43 265.627 452.485 265.69 452.523Z" fill="#E0E0E0"/>
<path d="M649.079 403.604L651.093 404.803C651.354 404.959 651.333 405.345 651.056 405.483L648.919 406.552C648.852 406.586 648.795 406.637 648.756 406.701L647.508 408.739C647.346 409.003 646.96 408.991 646.827 408.718L645.805 406.609C645.773 406.543 645.722 406.488 645.659 406.45L643.645 405.251C643.384 405.096 643.405 404.709 643.682 404.571L645.819 403.502C645.886 403.468 645.942 403.417 645.981 403.353L647.229 401.315C647.391 401.051 647.777 401.063 647.91 401.336L648.932 403.445C648.966 403.511 649.016 403.566 649.079 403.604Z" fill="#E0E0E0"/>
<path d="M606.54 451.099L608.554 452.298C608.815 452.453 608.794 452.84 608.517 452.978L606.38 454.047C606.313 454.081 606.256 454.132 606.217 454.196L604.969 456.234C604.807 456.498 604.421 456.486 604.288 456.213L603.266 454.104C603.234 454.038 603.183 453.983 603.12 453.945L601.106 452.746C600.845 452.591 600.866 452.205 601.143 452.066L603.28 450.997C603.347 450.963 603.403 450.912 603.443 450.848L604.691 448.81C604.853 448.546 605.239 448.558 605.372 448.831L606.394 450.94C606.427 451.007 606.477 451.062 606.54 451.099Z" fill="#E0E0E0"/>
<path d="M649.547 145.167L651.728 146.466C652.011 146.634 651.988 147.053 651.688 147.203L649.373 148.361C649.3 148.397 649.239 148.453 649.197 148.523L647.845 150.731C647.67 151.017 647.251 151.004 647.107 150.708L646 148.422C645.965 148.35 645.91 148.291 645.842 148.25L643.66 146.951C643.377 146.783 643.4 146.364 643.7 146.214L646.015 145.056C646.088 145.02 646.149 144.964 646.191 144.895L647.543 142.687C647.719 142.401 648.137 142.414 648.281 142.71L649.388 144.995C649.424 145.066 649.479 145.126 649.547 145.167Z" fill="#E0E0E0"/>
<path d="M579.762 183.212L580.802 183.856C580.937 183.939 580.932 184.136 580.794 184.202L579.728 184.712C579.695 184.728 579.667 184.754 579.648 184.786L579.048 185.804C578.97 185.936 578.774 185.924 578.703 185.782L578.151 184.691C578.134 184.657 578.107 184.628 578.075 184.608L577.035 183.964C576.9 183.881 576.905 183.684 577.043 183.618L578.109 183.108C578.142 183.092 578.17 183.066 578.189 183.035L578.789 182.017C578.867 181.885 579.063 181.897 579.134 182.039L579.686 183.13C579.703 183.163 579.729 183.192 579.762 183.212Z" fill="#69D6BF"/>
<path d="M580.579 334.374L581.619 335.018C581.754 335.101 581.749 335.298 581.611 335.364L580.545 335.874C580.511 335.89 580.484 335.916 580.465 335.947L579.865 336.965C579.787 337.097 579.591 337.085 579.52 336.943L578.968 335.852C578.951 335.818 578.924 335.789 578.892 335.769L577.852 335.125C577.717 335.041 577.722 334.845 577.86 334.779L578.926 334.269C578.959 334.253 578.987 334.227 579.006 334.196L579.606 333.178C579.684 333.046 579.88 333.058 579.952 333.2L580.504 334.291C580.52 334.325 580.546 334.353 580.579 334.374Z" fill="#69D6BF"/>
<path d="M622.106 265.105L624.118 266.303C624.379 266.458 624.358 266.844 624.081 266.983L621.946 268.051C621.879 268.084 621.822 268.136 621.783 268.2L620.536 270.236C620.374 270.5 619.988 270.488 619.856 270.215L618.835 268.108C618.803 268.042 618.752 267.987 618.689 267.949L616.677 266.751C616.416 266.596 616.437 266.21 616.714 266.071L618.849 265.003C618.916 264.969 618.972 264.918 619.011 264.854L620.258 262.818C620.42 262.554 620.806 262.566 620.938 262.839L621.959 264.946C621.993 265.012 622.043 265.067 622.106 265.105Z" fill="#69D6BF"/>
<path d="M568.605 194.526L570.629 195.779C570.891 195.941 570.883 196.324 570.614 196.452L568.539 197.445C568.474 197.476 568.42 197.526 568.383 197.588L567.216 199.57C567.065 199.827 566.683 199.803 566.544 199.527L565.469 197.403C565.435 197.337 565.384 197.28 565.32 197.241L563.296 195.988C563.034 195.826 563.042 195.443 563.311 195.315L565.386 194.322C565.451 194.291 565.505 194.241 565.542 194.179L566.709 192.197C566.86 191.94 567.242 191.964 567.381 192.239L568.456 194.363C568.49 194.43 568.541 194.486 568.605 194.526Z" fill="#69D6BF"/>
<path d="M93.5229 253.348L95.0509 254.322C95.2489 254.448 95.2389 254.739 95.0329 254.834L93.4439 255.569C93.3939 255.592 93.3519 255.629 93.3239 255.676L92.4149 257.173C92.2969 257.367 92.0069 257.345 91.9039 257.134L91.1079 255.506C91.0829 255.455 91.0439 255.412 90.9959 255.381L89.4679 254.407C89.2699 254.281 89.2799 253.99 89.4859 253.895L91.0749 253.16C91.1249 253.137 91.1659 253.1 91.1949 253.053L92.1039 251.556C92.2219 251.362 92.5119 251.384 92.6149 251.595L93.4109 253.223C93.4359 253.274 93.4749 253.317 93.5229 253.348Z" fill="#69D6BF"/>
<path d="M126.645 287.953L128.123 288.799C128.315 288.909 128.318 289.182 128.129 289.281L126.67 290.042C126.624 290.066 126.587 290.103 126.562 290.148L125.776 291.593C125.674 291.78 125.401 291.773 125.294 291.579L124.474 290.087C124.448 290.04 124.41 290.001 124.364 289.975L122.886 289.129C122.694 289.019 122.691 288.746 122.88 288.647L124.339 287.886C124.385 287.862 124.422 287.825 124.447 287.78L125.233 286.335C125.335 286.147 125.608 286.156 125.715 286.349L126.535 287.841C126.56 287.888 126.599 287.927 126.645 287.953Z" fill="#69D6BF"/>
<path d="M170.942 173.31L172.42 174.156C172.611 174.266 172.615 174.539 172.426 174.638L170.967 175.399C170.921 175.423 170.884 175.46 170.859 175.505L170.073 176.95C169.971 177.137 169.698 177.13 169.591 176.936L168.771 175.444C168.745 175.397 168.707 175.358 168.661 175.332L167.183 174.486C166.991 174.376 166.988 174.103 167.177 174.004L168.636 173.243C168.682 173.219 168.719 173.182 168.744 173.137L169.53 171.692C169.632 171.504 169.905 171.513 170.012 171.706L170.832 173.198C170.858 173.244 170.896 173.283 170.942 173.31Z" fill="#69D6BF"/>
<path d="M285.883 149.013L287.361 149.859C287.553 149.969 287.556 150.242 287.367 150.341L285.908 151.102C285.862 151.126 285.825 151.163 285.8 151.208L285.014 152.653C284.912 152.84 284.639 152.833 284.532 152.639L283.712 151.147C283.686 151.1 283.648 151.061 283.601 151.035L282.123 150.189C281.931 150.079 281.928 149.806 282.117 149.707L283.576 148.946C283.622 148.922 283.659 148.885 283.684 148.84L284.47 147.395C284.572 147.207 284.845 147.215 284.952 147.409L285.772 148.901C285.799 148.947 285.837 148.986 285.883 149.013Z" fill="#69D6BF"/>
<path d="M115.838 293.52L118.772 295.2C119.153 295.418 119.159 295.961 118.784 296.157L115.887 297.668C115.796 297.715 115.722 297.788 115.673 297.879L114.113 300.749C113.911 301.121 113.368 301.106 113.157 300.721L111.528 297.758C111.477 297.665 111.401 297.588 111.309 297.535L108.375 295.855C107.994 295.637 107.988 295.094 108.364 294.898L111.261 293.387C111.352 293.34 111.426 293.267 111.475 293.177L113.035 290.307C113.237 289.935 113.78 289.951 113.992 290.335L115.621 293.298C115.67 293.39 115.746 293.467 115.838 293.52Z" fill="#69D6BF"/>
<path d="M306.608 133.656L309.542 135.336C309.923 135.554 309.929 136.097 309.554 136.293L306.657 137.804C306.566 137.851 306.492 137.924 306.443 138.015L304.883 140.885C304.681 141.257 304.138 141.241 303.927 140.857L302.298 137.894C302.247 137.801 302.171 137.724 302.079 137.671L299.145 135.991C298.764 135.773 298.758 135.23 299.134 135.034L302.031 133.523C302.122 133.476 302.196 133.403 302.245 133.313L303.805 130.443C304.008 130.071 304.55 130.086 304.762 130.47L306.391 133.433C306.44 133.526 306.516 133.603 306.608 133.656Z" fill="#69D6BF"/>
<path d="M264.68 418.996L267.614 420.676C267.995 420.894 268.001 421.437 267.626 421.633L264.729 423.144C264.638 423.191 264.564 423.264 264.515 423.355L262.955 426.225C262.753 426.597 262.21 426.582 261.999 426.197L260.37 423.234C260.319 423.141 260.243 423.064 260.151 423.011L257.217 421.331C256.837 421.113 256.83 420.57 257.206 420.374L260.103 418.863C260.194 418.816 260.268 418.743 260.317 418.653L261.877 415.783C262.08 415.411 262.622 415.426 262.834 415.81L264.463 418.773C264.512 418.866 264.588 418.944 264.68 418.996Z" fill="#69D6BF"/>
<path d="M537.668 366.865L540.602 368.545C540.982 368.763 540.989 369.306 540.613 369.502L537.716 371.013C537.625 371.06 537.551 371.133 537.502 371.223L535.942 374.093C535.74 374.465 535.197 374.449 534.986 374.065L533.357 371.102C533.306 371.009 533.23 370.932 533.138 370.879L530.203 369.199C529.823 368.981 529.816 368.438 530.192 368.242L533.089 366.731C533.18 366.684 533.254 366.611 533.303 366.521L534.863 363.651C535.066 363.279 535.608 363.294 535.82 363.678L537.449 366.641C537.5 366.735 537.576 366.813 537.668 366.865Z" fill="#69D6BF"/>
<path d="M497.321 149.694L499.231 150.788C499.479 150.93 499.483 151.283 499.239 151.411L497.353 152.395C497.294 152.426 497.245 152.473 497.214 152.532L496.198 154.401C496.066 154.643 495.713 154.633 495.575 154.383L494.514 152.454C494.481 152.394 494.431 152.343 494.371 152.309L492.46 151.215C492.212 151.073 492.208 150.72 492.453 150.592L494.339 149.608C494.398 149.577 494.446 149.53 494.478 149.471L495.494 147.602C495.626 147.359 495.979 147.37 496.117 147.62L497.178 149.549C497.211 149.61 497.261 149.66 497.321 149.694Z" fill="#69D6BF"/>
<path d="M285.775 103.669C297.76 99.9547 305.941 91.9903 304.048 85.8798C302.154 79.7693 290.903 77.8265 278.918 81.5405C266.933 85.2545 258.752 93.2189 260.645 99.3294C262.539 105.44 273.79 107.383 285.775 103.669Z" fill="#263238"/>
<path d="M279.527 85.024C290.404 81.5 300.879 82.637 304.31 87.421C304.284 86.797 304.167 86.185 303.952 85.594C301.76 79.578 290.308 77.835 278.374 81.701C266.44 85.567 258.543 93.577 260.735 99.593C260.929 100.126 261.197 100.624 261.53 101.089C261.29 95.364 268.767 88.509 279.527 85.024Z" fill="#455A64"/>
<path d="M585.751 431.096C603.039 414.953 608.647 392.864 598.276 381.758C587.906 370.653 565.485 374.736 548.197 390.879C530.91 407.022 525.302 429.112 535.672 440.217C546.042 451.323 568.463 447.239 585.751 431.096Z" fill="#263238"/>
<path d="M580.155 424.853C564.416 439.586 544.389 444.315 533.089 436.651C533.807 437.937 534.674 439.135 535.697 440.224C546.1 451.299 568.531 447.174 585.798 431.01C603.066 414.846 608.631 392.764 598.228 381.689C597.307 380.708 596.29 379.849 595.192 379.105C601.777 390.896 595.724 410.279 580.155 424.853Z" fill="#455A64"/>
<path d="M472.354 145.009C474.209 132.982 450.256 119.306 418.854 114.464C387.453 109.622 360.493 115.446 358.638 127.474C356.784 139.501 380.736 153.176 412.138 158.019C443.54 162.861 470.5 157.036 472.354 145.009Z" fill="#263238"/>
<path d="M419.338 121.313C447.866 126.174 469.35 138.155 470.55 149.187C471.318 148.155 471.871 147.057 472.18 145.895C475.324 134.077 452.5 120.173 421.2 114.84C389.901 109.507 361.979 114.764 358.834 126.582C358.556 127.628 358.485 128.691 358.601 129.763C365.646 120.306 391.117 116.504 419.338 121.313Z" fill="#455A64"/>
<path d="M413.082 134.364C420.252 138.11 425.069 145.194 431.714 149.807C436.111 152.859 441.448 154.967 444.409 159.425C444.116 156.818 442.332 154.649 440.549 152.724C435.526 147.302 429.889 142.45 423.78 138.291C420.644 136.156 417.16 134.137 413.367 134.163" fill="#455A64"/>
<g opacity="0.2">
<path d="M413.082 134.364C420.252 138.11 425.069 145.194 431.714 149.807C436.111 152.859 441.448 154.967 444.409 159.425C444.116 156.818 442.332 154.649 440.549 152.724C435.526 147.302 429.889 142.45 423.78 138.291C420.644 136.156 417.16 134.137 413.367 134.163" fill="black"/>
</g>
<path d="M447.198 37.584C447.069 36.421 446.857 35.189 446.068 34.326C444.986 33.143 443.179 33.021 441.58 33.141C434.756 33.651 426.084 43.759 421.909 49.181L422.608 79.275C441.286 69.487 448.802 52.033 447.198 37.584Z" fill="#455A64"/>
<g opacity="0.2">
<path d="M447.198 37.584C447.069 36.421 446.857 35.189 446.068 34.326C444.986 33.143 443.179 33.021 441.58 33.141C434.756 33.651 426.084 43.759 421.909 49.181L422.608 79.275C441.286 69.487 448.802 52.033 447.198 37.584Z" fill="black"/>
</g>
<path d="M417.659 99.377C421.229 98.183 424.808 97.093 428.363 96.515C431.917 95.937 435.491 94.449 438.996 93.625C443.541 92.556 447.784 90.506 452.143 88.834C456.502 87.162 461.15 85.847 465.791 86.351C462.365 84.616 458.463 83.995 454.623 84C450.783 84.005 446.972 84.611 443.18 85.215C437.917 86.054 432.559 86.922 427.795 89.309C423.031 91.697 418.647 94.14 417.659 99.377Z" fill="#455A64"/>
<g opacity="0.2">
<path d="M417.659 99.377C421.229 98.183 424.808 97.093 428.363 96.515C431.917 95.937 435.491 94.449 438.996 93.625C443.541 92.556 447.784 90.506 452.143 88.834C456.502 87.162 461.15 85.847 465.791 86.351C462.365 84.616 458.463 83.995 454.623 84C450.783 84.005 446.972 84.611 443.18 85.215C437.917 86.054 432.559 86.922 427.795 89.309C423.031 91.697 418.647 94.14 417.659 99.377Z" fill="black"/>
</g>
<path d="M393.434 100.402C388.817 93.637 379.577 91.665 371.627 89.697C382.195 98.804 393.121 110.322 401.279 121.639C403.118 116.14 399.266 108.947 393.434 100.402Z" fill="#455A64"/>
<g opacity="0.2">
<path d="M393.434 100.402C388.817 93.637 379.577 91.665 371.627 89.697C382.195 98.804 393.121 110.322 401.279 121.639C403.118 116.14 399.266 108.947 393.434 100.402Z" fill="black"/>
</g>
<path d="M399.389 142.393C389.882 139.645 382.037 128.784 372.664 125.717C383.483 125.207 397.012 131.7 399.389 142.393Z" fill="#455A64"/>
<g opacity="0.2">
<path d="M399.389 142.393C389.882 139.645 382.037 128.784 372.664 125.717C383.483 125.207 397.012 131.7 399.389 142.393Z" fill="black"/>
</g>
<path d="M408.855 120.444C414.179 120.014 419.525 121.377 424.403 123.552C429.281 125.727 433.756 128.697 438.205 131.652C438.615 128.206 436.609 124.986 434.687 122.096C433.241 119.921 431.783 117.732 429.953 115.87C428.122 114.008 425.873 112.473 423.326 111.896C420.254 111.199 416.936 111.981 414.32 113.736C411.705 115.492 410.006 117.512 408.855 120.444Z" fill="#455A64"/>
<path d="M400.11 155.479C400.11 155.479 404.827 123.231 410.058 105.447C415.29 87.662 420.362 67.434 420.362 67.434L422.422 67.994C422.422 67.994 411.382 103.116 407.083 124.94C402.788 146.747 404.209 156.546 404.209 156.546L400.11 155.479Z" fill="#455A64"/>
<path d="M445.279 35.321C445.288 35.329 445.213 35.442 445.06 35.652C444.881 35.89 444.656 36.189 444.38 36.557C443.78 37.335 442.925 38.471 441.888 39.888C439.811 42.72 437.06 46.72 434.32 51.324C431.585 55.933 429.388 60.263 427.895 63.442C427.147 65.03 426.558 66.324 426.162 67.224C425.971 67.642 425.816 67.983 425.693 68.254C425.582 68.488 425.518 68.609 425.507 68.604C425.496 68.599 425.537 68.47 425.627 68.227C425.734 67.949 425.869 67.6 426.035 67.171C426.392 66.254 426.948 64.943 427.668 63.338C429.106 60.127 431.274 55.767 434.016 51.145C436.763 46.528 439.555 42.539 441.687 39.74C442.752 38.34 443.638 37.225 444.272 36.473C444.57 36.122 444.812 35.836 445.005 35.609C445.176 35.412 445.27 35.313 445.279 35.321Z" fill="#455A64"/>
<path d="M416.905 83.807C410.756 77.002 408.996 67.572 411.557 58.765C413.348 52.609 417.251 47.306 421.315 42.346C421.667 41.916 422.067 41.459 422.614 41.357C423.375 41.215 424.061 41.81 424.573 42.391C429.009 47.429 430.292 54.567 429.975 61.273C429.764 65.735 428.906 70.221 426.919 74.221C424.93 78.222 420.969 81.955 416.905 83.807Z" fill="#455A64"/>
<path d="M416.905 83.807C416.894 83.803 416.927 83.673 417.001 83.431C417.091 83.153 417.203 82.804 417.341 82.377C417.651 81.467 418.067 80.139 418.55 78.491C419.52 75.195 420.633 70.575 421.476 65.4C422.315 60.222 422.798 55.494 423.133 52.071C423.294 50.395 423.426 49.022 423.523 48.016C423.571 47.569 423.61 47.205 423.641 46.914C423.672 46.662 423.694 46.531 423.706 46.532C423.718 46.533 423.72 46.666 423.712 46.92C423.698 47.212 423.681 47.578 423.66 48.027C423.609 48.988 423.516 50.378 423.382 52.094C423.11 55.525 422.666 60.265 421.825 65.458C420.98 70.648 419.824 75.278 418.79 78.564C418.275 80.208 417.822 81.527 417.471 82.424C417.308 82.843 417.174 83.185 417.068 83.457C416.972 83.69 416.916 83.812 416.905 83.807Z" fill="#263238"/>
<g opacity="0.2">
<path d="M408.855 120.444C414.179 120.014 419.525 121.377 424.403 123.552C429.281 125.727 433.756 128.697 438.205 131.652C438.615 128.206 436.609 124.986 434.687 122.096C433.241 119.921 431.783 117.732 429.953 115.87C428.122 114.008 425.873 112.473 423.326 111.896C420.254 111.199 416.936 111.981 414.32 113.736C411.705 115.492 410.006 117.512 408.855 120.444Z" fill="black"/>
</g>
<path d="M432.175 146.708C432.166 146.717 432.075 146.643 431.908 146.495C431.714 146.317 431.478 146.1 431.192 145.837C430.577 145.259 429.699 144.411 428.576 143.405C428.025 142.891 427.408 142.342 426.733 141.769C426.07 141.18 425.34 140.579 424.562 139.958C423.003 138.726 421.248 137.405 419.239 136.312C417.241 135.205 415.139 134.51 413.156 134.494C412.161 134.466 411.221 134.45 410.35 134.564C409.479 134.669 408.677 134.851 407.963 135.07C406.53 135.508 405.454 136.092 404.739 136.53C404.025 136.972 403.657 137.262 403.638 137.237C403.63 137.227 403.716 137.147 403.886 137.003C404.054 136.856 404.316 136.656 404.665 136.415C405.364 135.937 406.438 135.31 407.887 134.833C408.61 134.594 409.424 134.394 410.314 134.274C411.204 134.144 412.168 134.15 413.167 134.169C415.199 134.166 417.387 134.878 419.408 136.002C421.448 137.113 423.21 138.452 424.766 139.705C425.543 140.336 426.269 140.949 426.926 141.549C427.596 142.134 428.205 142.695 428.746 143.222C429.85 144.255 430.703 145.131 431.289 145.74C431.557 146.022 431.778 146.255 431.959 146.445C432.109 146.609 432.184 146.699 432.175 146.708Z" fill="#455A64"/>
<path d="M393.552 135.726C393.566 135.706 393.761 135.827 394.103 136.064C394.448 136.296 394.92 136.669 395.475 137.163C396.587 138.146 397.984 139.686 399.158 141.638C400.326 143.594 401.027 145.551 401.37 146.996C401.544 147.718 401.651 148.311 401.693 148.724C401.741 149.136 401.756 149.365 401.731 149.369C401.67 149.378 401.533 148.473 401.128 147.061C400.727 145.65 400.003 143.743 398.854 141.821C397.7 139.903 396.359 138.366 395.303 137.347C394.249 136.323 393.515 135.776 393.552 135.726Z" fill="#455A64"/>
<path d="M381.019 97.223C381.026 97.213 381.154 97.293 381.393 97.454C381.66 97.64 382.003 97.878 382.428 98.173C382.886 98.499 383.43 98.886 384.054 99.33C384.687 99.783 385.347 100.377 386.109 100.993C389.123 103.488 392.984 107.357 396.389 112.291C398.053 114.78 399.499 117.243 400.635 119.575C401.764 121.909 402.671 124.062 403.333 125.906C404.004 127.746 404.481 129.258 404.806 130.301C404.96 130.794 405.084 131.193 405.181 131.503C405.265 131.778 405.304 131.925 405.293 131.929C405.282 131.933 405.221 131.795 405.115 131.527C405.008 131.259 404.856 130.861 404.677 130.345C404.312 129.314 403.799 127.817 403.101 125.994C402.411 124.167 401.484 122.034 400.345 119.72C399.199 117.408 397.752 114.965 396.099 112.491C392.715 107.588 388.909 103.718 385.949 101.184C385.201 100.558 384.555 99.953 383.935 99.486C383.326 99.024 382.796 98.622 382.349 98.284C381.94 97.967 381.611 97.711 381.354 97.512C381.127 97.332 381.012 97.233 381.019 97.223Z" fill="#455A64"/>
<path d="M424.641 118.969C424.628 118.99 424.367 118.88 423.906 118.664C423.657 118.544 423.38 118.411 423.073 118.264C422.75 118.105 422.352 117.995 421.931 117.833C420.248 117.242 417.707 116.704 415.017 117.345C413.672 117.622 412.46 118.16 411.429 118.749C410.387 119.329 409.534 119.997 408.865 120.601C407.508 121.807 406.925 122.786 406.872 122.75C406.855 122.74 406.981 122.485 407.268 122.058C407.569 121.644 408.022 121.046 408.695 120.418C409.355 119.779 410.208 119.077 411.266 118.468C412.313 117.849 413.555 117.286 414.94 117C417.715 116.339 420.332 116.937 422.017 117.598C422.44 117.778 422.837 117.907 423.156 118.084C423.457 118.253 423.727 118.405 423.971 118.542C424.415 118.798 424.654 118.949 424.641 118.969Z" fill="#455A64"/>
<path d="M443.638 87.63C443.64 87.642 443.495 87.684 443.216 87.755C442.901 87.829 442.495 87.925 441.993 88.044C440.931 88.292 439.398 88.666 437.519 89.18C435.644 89.709 433.422 90.381 431.01 91.276C428.602 92.176 425.981 93.271 423.428 94.773C422.164 95.534 420.964 96.361 420.013 97.357C419.061 98.388 418.148 99.387 417.295 100.352C415.586 102.279 414.129 104.085 413.001 105.671C411.875 107.258 411.072 108.616 410.555 109.573C410.033 110.529 409.788 111.081 409.756 111.066C409.745 111.061 409.798 110.92 409.909 110.654C410.018 110.388 410.187 109.998 410.433 109.509C410.915 108.528 411.69 107.142 412.796 105.527C413.904 103.914 415.349 102.082 417.05 100.137C417.899 99.163 418.809 98.158 419.757 97.123C420.746 96.08 421.964 95.242 423.246 94.469C425.83 92.949 428.47 91.859 430.896 90.971C433.327 90.088 435.564 89.439 437.453 88.939C439.346 88.454 440.891 88.116 441.963 87.91C442.471 87.818 442.881 87.743 443.201 87.686C443.486 87.637 443.635 87.618 443.638 87.63Z" fill="#455A64"/>
<path d="M408.576 115.483C408.552 115.482 408.543 115.177 408.549 114.627C408.557 114.006 408.566 113.227 408.577 112.3C408.589 110.337 408.549 107.623 408.213 104.652C407.885 101.678 407.291 99.028 406.852 97.115C406.642 96.212 406.466 95.453 406.326 94.847C406.205 94.31 406.149 94.011 406.172 94.004C406.195 93.997 406.296 94.285 406.458 94.811C406.62 95.337 406.842 96.102 407.094 97.054C407.596 98.955 408.233 101.614 408.563 104.612C408.902 107.606 408.902 110.339 408.826 112.305C408.786 113.289 408.738 114.085 408.685 114.633C408.639 115.182 408.601 115.484 408.576 115.483Z" fill="#455A64"/>
<path d="M412.332 93.275C412.829 89.562 412.354 85.76 411.293 82.167C408.383 72.316 400.868 63.931 391.393 59.964C396.447 72.201 401.5 84.437 406.554 96.674L408.19 103.01C410.733 100.259 411.835 96.989 412.332 93.275Z" fill="#455A64"/>
<g opacity="0.2">
<path d="M412.332 93.275C412.829 89.562 412.354 85.76 411.293 82.167C408.383 72.316 400.868 63.931 391.393 59.964C396.447 72.201 401.5 84.437 406.554 96.674L408.19 103.01C410.733 100.259 411.835 96.989 412.332 93.275Z" fill="black"/>
</g>
<path d="M223.632 441.921C234.981 430.604 229.9 407.108 212.283 389.441C194.666 371.775 171.185 366.627 159.836 377.944C148.487 389.261 153.568 412.757 171.185 430.423C188.802 448.09 212.283 453.238 223.632 441.921Z" fill="#263238"/>
<path d="M177.551 424.303C161.474 408.22 155.795 387.27 163.483 375.092C162.152 375.894 160.919 376.849 159.807 377.965C148.491 389.315 153.617 412.821 171.256 430.466C188.895 448.111 212.367 453.214 223.683 441.864C224.685 440.859 225.555 439.757 226.302 438.574C214.1 445.923 193.455 440.212 177.551 424.303Z" fill="#455A64"/>
<path d="M195.537 402.619L209.784 387.449L211.48 389.144C211.48 389.144 199.427 403.142 199.235 406.486L195.537 402.619Z" fill="#455A64"/>
<path d="M172.319 393.885L152.811 423.013L182.373 452.582L211.754 430.165L172.319 393.885Z" fill="#69D6BF"/>
<path d="M182.564 452.418C179.893 455.036 171.18 450.48 163.104 442.242C155.028 434.003 150.646 425.202 153.317 422.583C155.988 419.965 164.701 424.521 172.777 432.759C180.854 440.998 185.235 449.799 182.564 452.418Z" fill="#69D6BF"/>
<g opacity="0.3">
<path d="M182.564 452.418C179.893 455.036 171.18 450.48 163.104 442.242C155.028 434.003 150.646 425.202 153.317 422.583C155.988 419.965 164.701 424.521 172.777 432.759C180.854 440.998 185.235 449.799 182.564 452.418Z" fill="black"/>
</g>
<path d="M212.631 432.397C210.19 434.618 197.842 432.724 184.363 420.324C170.884 407.924 163.246 398.593 170.123 391.324C175.775 385.35 187.051 389.893 200.53 402.293C214.009 414.694 220.649 425.103 212.631 432.397Z" fill="#69D6BF"/>
<path d="M182.373 452.582C182.365 452.572 182.526 452.431 182.845 452.167C183.192 451.886 183.663 451.503 184.263 451.016C185.542 449.999 187.366 448.549 189.667 446.72C194.359 443.032 200.989 437.821 208.865 431.63L208.837 431.656C209.448 430.978 209.45 429.895 209.259 428.919C209.068 427.921 208.693 426.932 208.243 425.966C207.335 424.032 206.141 422.157 204.806 420.325C202.129 416.66 198.882 413.148 195.313 409.797C191.42 406.152 187.337 402.932 183.158 400.366C181.067 399.092 178.951 397.969 176.8 397.167C175.725 396.777 174.64 396.442 173.558 396.319C172.502 396.184 171.337 396.257 170.662 396.952L170.683 396.925C165.375 404.725 160.933 411.252 157.796 415.862C156.24 418.121 155.008 419.908 154.144 421.162C153.731 421.748 153.406 422.209 153.166 422.55C152.941 422.862 152.82 423.02 152.81 423.013C152.8 423.006 152.901 422.835 153.106 422.51C153.332 422.16 153.638 421.686 154.027 421.083C154.866 419.812 156.062 418.001 157.574 415.712C160.673 411.077 165.061 404.514 170.305 396.67L170.315 396.656L170.327 396.644C170.742 396.198 171.324 395.966 171.891 395.869C172.464 395.768 173.043 395.783 173.612 395.852C174.755 395.979 175.866 396.319 176.967 396.714C179.166 397.525 181.306 398.655 183.421 399.937C187.644 402.517 191.755 405.753 195.67 409.418C199.258 412.787 202.52 416.322 205.216 420.028C206.559 421.881 207.764 423.779 208.687 425.762C209.144 426.753 209.53 427.771 209.729 428.832C209.918 429.859 209.963 431.086 209.18 431.972L209.168 431.985L209.151 431.998C201.228 438.127 194.557 443.287 189.837 446.939C187.502 448.724 185.651 450.14 184.353 451.132C183.734 451.595 183.249 451.959 182.891 452.226C182.557 452.47 182.381 452.592 182.373 452.582Z" fill="#263238"/>
<path d="M273.009 391.181V396.028H255.206V373.854H272.597V378.701H261.415V382.438H271.267V387.127H261.415V391.182H273.009V391.181Z" fill="#69D6BF"/>
<path d="M286.185 390.136H282.764V396.028H276.492V373.854H286.629C292.679 373.854 296.481 376.99 296.481 382.058C296.481 385.321 294.898 387.728 292.142 389.059L296.925 396.028H290.209L286.185 390.136ZM286.249 378.795H282.764V385.289H286.249C288.846 385.289 290.145 384.085 290.145 382.057C290.145 379.999 288.846 378.795 286.249 378.795Z" fill="#69D6BF"/>
<path d="M309.625 390.136H306.204V396.028H299.932V373.854H310.069C316.119 373.854 319.921 376.99 319.921 382.058C319.921 385.321 318.338 387.728 315.582 389.059L320.365 396.028H313.649L309.625 390.136ZM309.688 378.795H306.203V385.289H309.688C312.285 385.289 313.584 384.085 313.584 382.057C313.584 379.999 312.285 378.795 309.688 378.795Z" fill="#69D6BF"/>
<path d="M322.231 384.941C322.231 378.289 327.458 373.411 334.553 373.411C341.648 373.411 346.875 378.289 346.875 384.941C346.875 391.593 341.648 396.471 334.553 396.471C327.458 396.471 322.231 391.593 322.231 384.941ZM340.54 384.941C340.54 381.108 337.911 378.605 334.553 378.605C331.195 378.605 328.566 381.108 328.566 384.941C328.566 388.774 331.195 391.276 334.553 391.276C337.911 391.276 340.54 388.774 340.54 384.941Z" fill="#69D6BF"/>
<path d="M359.861 390.136H356.44V396.028H350.168V373.854H360.305C366.355 373.854 370.157 376.99 370.157 382.058C370.157 385.321 368.574 387.728 365.818 389.059L370.601 396.028H363.885L359.861 390.136ZM359.924 378.795H356.439V385.289H359.924C362.521 385.289 363.82 384.085 363.82 382.057C363.82 379.999 362.522 378.795 359.924 378.795Z" fill="#69D6BF"/>
<path d="M412.029 382.058C412.029 387.095 408.228 390.231 402.177 390.231H398.313V396.028H392.041V373.854H402.178C408.228 373.854 412.029 376.99 412.029 382.058ZM405.694 382.058C405.694 379.999 404.395 378.795 401.797 378.795H398.313V385.289H401.797C404.395 385.289 405.694 384.085 405.694 382.058Z" fill="#69D6BF"/>
<path d="M428.817 391.72H419.44L417.698 396.028H411.3L421.088 373.854H427.265L437.085 396.028H430.56L428.817 391.72ZM426.979 387.095L424.129 379.999L421.278 387.095H426.979Z" fill="#69D6BF"/>
<path d="M453.397 384.465H458.94V393.651C456.375 395.489 452.858 396.47 449.627 396.47C442.562 396.47 437.399 391.687 437.399 384.94C437.399 378.193 442.562 373.41 449.753 373.41C453.903 373.41 457.261 374.835 459.446 377.465L455.455 381.075C453.934 379.396 452.192 378.604 450.07 378.604C446.268 378.604 443.734 381.107 443.734 384.94C443.734 388.678 446.268 391.275 450.006 391.275C451.178 391.275 452.287 391.053 453.396 390.547V384.465H453.397Z" fill="#69D6BF"/>
<path d="M480.732 391.181V396.028H462.93V373.854H480.321V378.701H469.138V382.438H478.99V387.127H469.138V391.182H480.732V391.181Z" fill="#69D6BF"/>
<path d="M271.944 322.697H218.21V296.38L269.385 171.9H300.091V296.38H313.397V322.697H300.091V356.12H271.944V322.697ZM271.944 296.38V224.534H271.432L243.797 296.38H271.944Z" fill="#69D6BF"/>
<g opacity="0.3">
<path d="M271.944 322.697H218.21V296.38L269.385 171.9H300.091V296.38H313.397V322.697H300.091V356.12H271.944V322.697ZM271.944 296.38V224.534H271.432L243.797 296.38H271.944Z" fill="black"/>
</g>
<path d="M259.13 322.696H205.396V296.379L256.572 171.899H287.278V296.379H300.584V322.696H287.278V356.119H259.13V322.696ZM259.13 296.379V224.533H258.618L230.983 296.379H259.13Z" fill="#69D6BF"/>
<path d="M335.89 346.646C328.554 338.579 324.887 327.171 324.887 312.434V215.587C324.887 200.849 328.554 189.446 335.89 181.374C343.222 173.307 353.802 169.269 367.618 169.269C381.435 169.269 392.012 173.307 399.348 181.374C406.68 189.446 410.35 200.849 410.35 215.587V312.434C410.35 327.171 406.68 338.579 399.348 346.646C392.012 354.718 381.436 358.753 367.618 358.753C353.802 358.752 343.223 354.718 335.89 346.646ZM382.204 314.276V213.745C382.204 201.64 377.343 195.587 367.619 195.587C357.896 195.587 353.034 201.64 353.034 213.745V314.276C353.034 326.383 357.896 332.435 367.619 332.435C377.342 332.435 382.204 326.382 382.204 314.276Z" fill="#69D6BF"/>
<g opacity="0.3">
<path d="M399.348 181.374C392.012 173.307 381.436 169.269 367.618 169.269C353.801 169.269 343.222 173.307 335.89 181.374C328.554 189.446 324.887 200.849 324.887 215.587V312.434C324.887 327.171 328.554 338.579 335.89 346.646C343.222 354.718 353.802 358.753 367.618 358.753C381.435 358.753 392.012 354.719 399.348 346.646C406.68 338.579 410.35 327.171 410.35 312.434V215.587C410.35 200.849 406.68 189.447 399.348 181.374ZM382.204 314.276C382.204 326.383 377.343 332.435 367.619 332.435C357.896 332.435 353.034 324.838 353.034 314.276V213.745C353.034 202.765 357.896 195.587 367.619 195.587C377.343 195.587 382.204 201.64 382.204 213.745V314.276Z" fill="black"/>
</g>
<path d="M323.076 346.645C315.74 338.578 312.073 327.17 312.073 312.433V215.586C312.073 200.848 315.74 189.445 323.076 181.373C330.409 173.306 340.988 169.268 354.805 169.268C368.622 169.268 379.198 173.306 386.534 181.373C393.866 189.445 397.536 200.848 397.536 215.586V312.433C397.536 327.17 393.866 338.578 386.534 346.645C379.198 354.717 368.622 358.751 354.805 358.751C340.987 358.751 330.408 354.717 323.076 346.645ZM369.389 314.275V213.744C369.389 201.639 364.528 195.586 354.804 195.586C345.081 195.586 340.219 201.639 340.219 213.744V314.275C340.219 326.381 345.081 332.434 354.804 332.434C364.528 332.434 369.389 326.381 369.389 314.275Z" fill="#69D6BF"/>
<path d="M473.201 322.698H419.466V296.381L470.642 171.902H501.348V296.381H514.654V322.698H501.348V356.121H473.202V322.698H473.201ZM473.201 296.381V224.535H472.689L445.053 296.381H473.201Z" fill="#69D6BF"/>
<g opacity="0.3">
<path d="M473.201 322.698H419.466V296.381L470.642 171.902H501.348V296.381H514.654V322.698H501.348V356.121H473.202V322.698H473.201ZM473.201 296.381V224.535H472.689L445.053 296.381H473.201Z" fill="black"/>
</g>
<path d="M460.386 322.697H406.651V296.38L457.826 171.9H488.532V296.38H501.838V322.697H488.532V356.12H460.385L460.386 322.697ZM460.386 296.38V224.534H459.874L432.238 296.38H460.386Z" fill="#69D6BF"/>
<path d="M562.687 326.627C575.891 323.962 579.827 288.266 571.479 246.897C563.13 205.527 545.659 174.151 532.456 176.815C519.252 179.48 515.316 215.176 523.665 256.545C532.013 297.915 549.484 329.291 562.687 326.627Z" fill="#263238"/>
<path d="M564.276 248.57C556.668 210.862 541.482 181.46 528.854 178.565C529.971 177.69 531.178 177.103 532.477 176.842C545.681 174.178 563.151 205.557 571.498 246.929C579.845 288.301 575.907 323.998 562.703 326.662C561.534 326.898 560.331 326.862 559.104 326.581C569.34 318.558 571.802 285.873 564.276 248.57Z" fill="#455A64"/>
<path d="M696.227 177.265L710.373 156.619C710.373 156.619 736.11 164.064 739.095 160.502L700.049 131.637L676.688 162.902L696.227 177.265Z" fill="#263238"/>
<path d="M697.048 149.385C696.445 148.62 696.551 147.384 697.291 146.75C698.031 146.116 699.288 146.213 699.905 146.968C700.521 147.722 700.44 149.209 699.633 149.757C698.827 150.304 697.357 150.11 696.94 149.229" fill="#E0E0E0"/>
<path d="M700.048 131.637L697.817 134.881L736.088 161.344C736.088 161.344 738.385 161.873 739.094 160.503L700.048 131.637Z" fill="#455A64"/>
<path d="M710.859 157.286C710.994 157.091 710.104 156.299 709.619 154.993C709.1 153.699 709.227 152.515 708.996 152.461C708.793 152.368 708.235 153.718 708.85 155.29C709.45 156.866 710.771 157.491 710.859 157.286Z" fill="white"/>
<path d="M716.206 158.619C716.386 158.467 715.8 157.532 715.749 156.247C715.66 154.964 716.141 153.971 715.945 153.839C715.788 153.676 714.831 154.696 714.925 156.292C715.005 157.889 716.068 158.798 716.206 158.619Z" fill="white"/>
<path d="M722.156 155.437C722.013 155.268 721.043 156.025 720.761 157.431C720.469 158.836 721.063 159.912 721.261 159.813C721.485 159.736 721.32 158.748 721.57 157.597C721.791 156.44 722.331 155.596 722.156 155.437Z" fill="white"/>
<path d="M707.113 161.633C707.161 161.4 706.092 161.017 705.069 160.147C704.028 159.298 703.456 158.316 703.236 158.406C703.024 158.462 703.321 159.773 704.541 160.781C705.752 161.798 707.096 161.852 707.113 161.633Z" fill="white"/>
<path d="M682.661 261.183L696.928 240.621C696.928 240.621 722.62 248.217 725.627 244.674L686.752 215.579L663.208 246.705L682.661 261.183Z" fill="#263238"/>
<path d="M683.647 233.308C683.048 232.539 683.162 231.305 683.905 230.675C684.648 230.045 685.905 230.15 686.517 230.908C687.129 231.666 687.038 233.153 686.229 233.695C685.42 234.237 683.951 234.034 683.539 233.151" fill="#E0E0E0"/>
<path d="M686.752 215.579L684.502 218.809L722.617 245.497C722.617 245.497 724.911 246.039 725.628 244.674L686.752 215.579Z" fill="#455A64"/>
<path d="M697.41 241.29C697.546 241.095 696.661 240.299 696.184 238.99C695.673 237.693 695.807 236.51 695.576 236.455C695.374 236.361 694.807 237.708 695.413 239.283C696.004 240.863 697.321 241.495 697.41 241.29Z" fill="white"/>
<path d="M702.75 242.655C702.931 242.504 702.351 241.565 702.307 240.28C702.226 238.996 702.713 238.006 702.517 237.873C702.361 237.709 701.398 238.723 701.483 240.32C701.553 241.918 702.611 242.833 702.75 242.655Z" fill="white"/>
<path d="M708.718 239.508C708.576 239.339 707.602 240.089 707.311 241.494C707.01 242.897 707.598 243.977 707.797 243.879C708.021 243.803 707.862 242.814 708.118 241.665C708.348 240.509 708.893 239.668 708.718 239.508Z" fill="white"/>
<path d="M693.639 245.615C693.689 245.382 692.622 244.993 691.604 244.116C690.568 243.261 690.002 242.276 689.781 242.365C689.568 242.42 689.858 243.733 691.072 244.748C692.278 245.772 693.621 245.834 693.639 245.615Z" fill="white"/>
<path d="M535.393 276.084C536.721 276.087 655.3 241.924 663.547 234.503C671.795 227.082 705.479 168.321 705.479 168.321L681.555 148.815L639.972 203L566.955 209.592C566.955 209.592 536.171 207.492 530.806 218.501L530.299 234.979L535.393 276.084Z" fill="#263238"/>
<path d="M535.393 276.084C537.148 276.134 590.117 335.074 606.71 338.426C623.303 341.778 631.654 330.333 637.321 323.472C644.538 314.733 693.7 251.998 693.7 251.998L669.037 231.599L614.97 289.132L582.459 244.36L554.116 241.703L536.883 256.968L535.393 276.084Z" fill="#263238"/>
<path d="M610.157 294.635C610.15 294.629 610.214 294.546 610.344 294.392C610.496 294.216 610.69 293.993 610.932 293.715C611.483 293.099 612.253 292.24 613.231 291.147C615.271 288.904 618.178 285.708 621.759 281.772C625.382 277.818 629.684 273.124 634.458 267.914C636.856 265.313 639.373 262.583 641.981 259.754C644.628 256.959 647.368 254.066 650.175 251.102C656.949 243.972 663.334 237.252 668.862 231.433L669.018 231.269L669.19 231.413C676.494 237.507 682.629 242.625 686.972 246.248C689.094 248.041 690.777 249.462 691.962 250.462C692.512 250.937 692.945 251.311 693.268 251.59C693.561 251.849 693.709 251.987 693.7 251.998C693.692 252.008 693.528 251.889 693.219 251.65C692.885 251.385 692.436 251.03 691.866 250.579C690.661 249.603 688.95 248.217 686.791 246.468C682.418 242.882 676.24 237.815 668.885 231.784L669.213 231.764C663.698 237.595 657.329 244.329 650.572 251.473C647.763 254.434 645.02 257.324 642.371 260.117C639.755 262.939 637.231 265.661 634.825 268.255C630.019 273.435 625.689 278.101 622.041 282.032C618.408 285.919 615.458 289.075 613.387 291.29C612.377 292.353 611.583 293.189 611.014 293.789C610.756 294.053 610.549 294.264 610.387 294.43C610.241 294.572 610.164 294.642 610.157 294.635Z" fill="#455A64"/>
<path d="M609.478 254.169C609.488 254.204 608.94 254.397 607.942 254.718C606.855 255.058 605.427 255.504 603.704 256.043C600.124 257.154 595.162 258.641 589.728 260.408C588.372 260.862 587.048 261.305 585.768 261.734C584.488 262.15 583.254 262.551 582.155 263.075C579.943 264.108 578.458 265.867 577.688 267.53C576.905 269.204 576.629 270.71 576.423 271.729C576.234 272.757 576.148 273.332 576.107 273.327C576.089 273.325 576.089 273.179 576.106 272.903C576.12 272.626 576.16 272.22 576.223 271.698C576.371 270.662 576.589 269.129 577.354 267.376C578.104 265.636 579.641 263.747 581.946 262.644C583.082 262.088 584.328 261.674 585.609 261.25C586.888 260.818 588.211 260.372 589.565 259.915C595.012 258.144 599.99 256.713 603.599 255.692C605.404 255.185 606.869 254.787 607.885 254.525C608.902 254.261 609.468 254.134 609.478 254.169Z" fill="#455A64"/>
<path d="M519.423 225.369C519.407 225.36 519.491 225.198 519.666 224.895C519.764 224.729 519.873 224.544 519.996 224.337C520.156 224.123 520.332 223.888 520.526 223.63C521.344 222.582 522.728 221.213 524.683 219.858C528.575 217.106 534.673 214.497 541.632 212.572C548.604 210.651 555.106 209.691 559.83 209.385C562.193 209.227 564.114 209.236 565.436 209.311C566.098 209.348 566.61 209.396 566.955 209.449C567.301 209.495 567.481 209.528 567.479 209.545C567.474 209.595 566.747 209.52 565.429 209.513C564.112 209.501 562.205 209.548 559.858 209.752C555.166 210.15 548.705 211.163 541.771 213.074C534.849 214.989 528.783 217.523 524.89 220.162C522.934 221.462 521.536 222.766 520.682 223.759C520.477 224.003 520.291 224.226 520.121 224.427C519.985 224.621 519.863 224.795 519.754 224.951C519.552 225.233 519.438 225.377 519.423 225.369Z" fill="#455A64"/>
<path d="M568.512 308.95C568.5 308.964 568.358 308.869 568.098 308.675C567.794 308.44 567.424 308.155 566.977 307.81C565.948 307 564.566 305.913 562.887 304.592C559.432 301.876 554.526 298.312 549.074 294.399C543.618 290.483 538.904 286.617 535.65 283.655C534.026 282.17 532.725 280.954 531.856 280.084C531.457 279.684 531.126 279.354 530.855 279.082C530.63 278.849 530.518 278.72 530.53 278.707C530.542 278.694 530.679 278.797 530.927 279.006C531.217 279.258 531.569 279.565 531.995 279.936C532.906 280.76 534.243 281.933 535.895 283.379C539.206 286.266 543.933 290.067 549.381 293.978C554.828 297.886 559.718 301.51 563.118 304.304C564.822 305.696 566.187 306.839 567.108 307.654C567.53 308.029 567.88 308.34 568.167 308.595C568.404 308.814 568.524 308.936 568.512 308.95Z" fill="#455A64"/>
<path d="M202.077 267.506C217.646 225.921 219.507 188.182 206.235 183.213C192.962 178.244 169.582 207.927 154.014 249.513C138.446 291.098 136.584 328.837 149.857 333.806C163.129 338.775 186.509 309.091 202.077 267.506Z" fill="#263238"/>
<path d="M161.245 252.405C175.433 214.5 196.11 186.488 209.711 185.585C208.697 184.49 207.54 183.679 206.235 183.191C192.962 178.223 169.583 207.908 154.017 249.496C138.45 291.083 136.591 328.824 149.863 333.792C151.038 334.232 152.294 334.395 153.615 334.307C144.32 324.267 147.21 289.902 161.245 252.405Z" fill="#455A64"/>
<path d="M22.3031 158.803C22.3031 158.803 18.7631 149.774 17.2301 146.507C15.6971 143.241 16.0351 133.261 17.0511 131.449C18.0671 129.637 17.1281 128.261 17.1281 128.261C17.1281 128.261 11.9071 118.532 14.3511 116.131L15.7741 115.97C15.7741 115.97 21.0001 126.411 21.1781 126.617C21.3561 126.822 22.4991 126.88 22.8621 125.059C23.2251 123.238 22.3451 117.843 22.3451 117.843C22.3451 117.843 20.3681 114.401 20.2221 112.045C20.1671 111.159 20.9621 109.903 21.6691 109.367L22.3841 108.825C22.3841 108.825 26.7731 116.762 27.0171 118.703C27.2611 120.645 28.0691 124.852 28.0691 124.852L28.6801 124.361L28.7301 114.625C28.7301 114.625 26.5341 106.383 28.2041 104.58C29.8741 102.777 30.0341 104.289 30.0341 104.289C30.0341 104.289 33.1691 112.703 33.4021 114.835C33.4971 115.705 33.5941 124.067 33.5941 124.067L34.9431 123.511L35.4121 115.689C35.4121 115.689 33.8331 107.93 36.1991 107.14L38.0961 107.079C38.0961 107.079 39.8961 117.291 40.0921 117.767C40.2881 118.243 38.7141 129.901 38.7141 129.901L39.1881 131L40.5551 129.136C40.5551 129.136 41.1661 127.347 43.8911 125.852C46.6161 124.356 47.8071 125.443 47.8071 125.443L44.3861 131.524C44.3861 131.524 41.2721 138.629 39.9991 140.268C38.7261 141.907 34.3781 145.744 33.6931 146.119C33.0071 146.495 33.7771 149.65 33.7771 149.65L34.8551 151.852L22.3031 158.803Z" fill="#FFBF9D"/>
<path d="M35.991 135.004C35.992 135.107 34.889 135.081 33.195 135.49C31.513 135.886 29.229 136.826 27.285 138.62C25.341 140.416 24.222 142.619 23.694 144.264C23.152 145.92 23.09 147.022 22.988 147.012C22.929 147.015 22.839 145.889 23.295 144.145C23.735 142.417 24.844 140.073 26.885 138.187C29.696 135.945 31.989 135.087 33.108 135.082C34.883 134.767 35.998 134.945 35.991 135.004Z" fill="#FF9A6C"/>
<path d="M36.4611 123.844C36.4561 124.043 32.3541 123.373 27.5201 124.643C22.6681 125.853 19.3931 128.41 19.2931 128.238C19.2521 128.186 20.0041 127.481 21.4121 126.598C22.8141 125.714 24.9081 124.707 27.3741 124.072C29.8401 123.445 32.1601 123.322 33.8151 123.424C35.4731 123.522 36.4721 123.779 36.4611 123.844Z" fill="#FF9A6C"/>
<path d="M22.303 158.803C22.643 159.626 39.862 211.744 47.307 217.34C54.752 222.936 103.928 237.385 103.928 237.385L111.656 211.185L63.554 196.094L33.693 146.12L22.303 158.803Z" fill="#FFBF9D"/>
<path d="M114.834 203.994L77.687 197.657L69.752 229.955L112.722 239.787L114.834 203.994Z" fill="#69D6BF"/>
<path d="M138.156 206.563L135.976 149.588C135.895 135.397 127.57 123.616 113.386 124.09L112.078 124.21C98.9132 125.421 88.8812 136.534 89.0292 149.753C89.1672 162.052 89.4782 175.64 90.1612 182.183C91.5762 195.727 105.331 196.588 105.331 196.588C105.362 196.587 109.546 213.444 109.546 213.444L114.349 215.039L138.156 206.563Z" fill="#FFBF9D"/>
<path d="M105.332 196.588C105.332 196.588 113.925 196.303 122.507 189.745C122.507 189.745 120.012 200.658 106.369 200.681L105.332 196.588Z" fill="#FF9A6C"/>
<path d="M95.8703 160.783C95.9273 161.809 96.8443 162.606 97.9173 162.565C98.9873 162.524 99.8103 161.662 99.7523 160.636C99.6943 159.61 98.7783 158.812 97.7073 158.852C96.6353 158.893 95.8123 159.757 95.8703 160.783Z" fill="#263238"/>
<path d="M92.4643 155.475C92.7273 155.705 94.0943 154.485 96.1793 154.299C98.2583 154.083 99.8863 155.014 100.088 154.738C100.189 154.615 99.9023 154.181 99.1923 153.758C98.4923 153.336 97.3313 152.969 96.0333 153.094C94.7363 153.221 93.6883 153.799 93.1053 154.345C92.5103 154.897 92.3353 155.373 92.4643 155.475Z" fill="#263238"/>
<path d="M112.341 160.41C112.605 160.64 113.974 159.42 116.057 159.234C118.136 159.019 119.764 159.95 119.967 159.673C120.067 159.55 119.783 159.117 119.07 158.693C118.37 158.27 117.209 157.904 115.912 158.028C114.615 158.155 113.567 158.733 112.984 159.279C112.39 159.831 112.213 160.308 112.341 160.41Z" fill="#263238"/>
<path d="M106.932 170.779C106.931 170.66 105.615 170.555 103.492 170.48C102.955 170.474 102.441 170.415 102.318 170.06C102.157 169.687 102.327 169.093 102.528 168.45C102.91 167.116 103.309 165.718 103.729 164.254C105.384 158.284 106.529 153.396 106.289 153.331C106.048 153.267 104.511 158.053 102.857 164.022C102.462 165.493 102.084 166.895 101.725 168.237C101.579 168.86 101.296 169.578 101.641 170.351C101.821 170.735 102.238 170.988 102.587 171.048C102.938 171.121 103.238 171.099 103.503 171.091C105.623 171.009 106.934 170.898 106.932 170.779Z" fill="#263238"/>
<path d="M110.597 154.924C110.929 155.43 112.9 154.685 115.356 154.405C117.808 154.076 119.9 154.318 120.099 153.747C120.184 153.476 119.725 153.035 118.818 152.684C117.919 152.332 116.567 152.116 115.095 152.297C113.624 152.481 112.365 153.02 111.579 153.581C110.786 154.142 110.448 154.682 110.597 154.924Z" fill="#263238"/>
<path d="M91.9672 150.186C92.4372 150.626 94.0982 150.004 96.1392 149.823C98.1742 149.583 99.9362 149.851 100.296 149.325C100.452 149.071 100.143 148.617 99.3532 148.227C98.5742 147.837 97.3002 147.568 95.8992 147.712C94.4982 147.857 93.3152 148.381 92.6422 148.921C91.9572 149.463 91.7582 149.969 91.9672 150.186Z" fill="#263238"/>
<path d="M135.792 159.73C136.014 159.609 144.855 156.118 145.412 165.415C145.968 174.712 136.519 173.353 136.487 173.088C136.456 172.821 135.792 159.73 135.792 159.73Z" fill="#FFBF9D"/>
<path d="M139.117 169.395C139.156 169.363 139.286 169.498 139.567 169.608C139.841 169.714 140.305 169.771 140.779 169.56C141.739 169.141 142.473 167.532 142.418 165.853C142.391 165.006 142.165 164.21 141.826 163.561C141.501 162.898 141.033 162.449 140.533 162.391C140.034 162.307 139.702 162.624 139.604 162.892C139.495 163.159 139.565 163.341 139.517 163.36C139.493 163.385 139.308 163.216 139.36 162.828C139.387 162.641 139.483 162.415 139.691 162.223C139.903 162.028 140.226 161.916 140.572 161.933C141.292 161.94 141.977 162.561 142.35 163.273C142.763 163.986 143.036 164.879 143.066 165.831C143.119 167.708 142.265 169.519 140.944 169.987C140.3 170.197 139.743 170.032 139.448 169.83C139.147 169.618 139.085 169.413 139.117 169.395Z" fill="#FF9A6C"/>
<path d="M113.556 171.741C113.235 171.737 113.329 173.874 111.57 175.474C109.814 177.079 107.526 176.944 107.523 177.244C107.5 177.379 108.049 177.636 109.012 177.618C109.956 177.607 111.32 177.241 112.396 176.262C113.469 175.28 113.891 174.018 113.924 173.138C113.964 172.24 113.701 171.722 113.556 171.741Z" fill="#263238"/>
<path d="M69.6381 138.462C69.7521 137.905 70.1231 137.43 70.5931 137.112C71.6191 136.417 72.8511 136.425 74.0351 136.333C76.9821 136.103 79.8611 135.168 82.4091 133.67C81.4631 133.262 80.5721 132.75 79.7991 132.069C78.2041 130.663 77.1981 128.421 77.7621 126.371C77.8681 125.986 78.0631 125.578 78.4361 125.437C79.0281 125.214 79.5941 125.775 80.0441 126.219C81.5241 127.68 82.8441 128.265 84.8961 127.929C86.1711 127.72 87.3961 127.356 88.3651 126.665C88.4031 126.621 88.4361 126.572 88.4741 126.528C88.9271 125.999 89.3691 125.494 89.8051 125.004C89.8061 125.002 89.8071 125.001 89.8081 124.999L89.8071 125.002C93.0901 121.317 95.9491 118.727 98.9681 117.289C103.394 115.181 110.938 113.971 115.747 114.919C120.556 115.868 125.044 119.444 126.002 124.252C128.517 121.844 132.503 121.616 135.815 122.716L135.894 122.675C139.573 123.735 141.853 127.412 143.143 131.017C143.213 131.214 143.276 131.415 143.344 131.613C144.68 133.467 146.437 135.018 148.481 136.045C148.842 136.226 149.256 136.449 149.323 136.847C149.39 137.241 149.075 137.591 148.765 137.843C147.94 138.514 146.96 138.983 145.927 139.234C146.31 140.086 146.749 140.91 147.277 141.69C147.726 142.353 148.26 143.147 147.949 143.885C147.709 144.456 147.019 144.727 146.402 144.676C145.785 144.624 145.222 144.319 144.679 144.021C145.14 144.957 145.601 145.894 146.062 146.83C144.774 147.137 143.419 147.116 142.13 146.811C141.577 150.291 141.396 156.685 140.656 159.066C138.191 159.262 137.575 159.03 136.356 159.521C134.78 160.155 135.57 162.966 133.425 162.286C132.333 161.94 130.446 157.999 130.022 156.935C127.208 149.873 125.944 142.2 126.333 134.608C124.744 133.111 122.864 131.923 120.829 131.131L120.999 131.266C117.116 130.181 112.736 129.148 109.24 131.156C106.528 132.713 105.063 135.718 103.115 138.164C99.4231 142.799 95.0811 145.42 89.1871 146.04C88.9081 150.177 89.1661 156.899 89.2021 160.741L85.4581 153.278L85.4571 153.309C85.1651 152.876 84.9191 152.437 84.6801 151.996L84.5991 151.863L84.5981 151.846C84.2181 151.138 83.8541 150.428 83.3861 149.734C83.3741 149.746 83.3631 149.757 83.3511 149.769C81.3891 151.728 78.1591 149.118 79.6571 146.785C79.9541 146.322 80.3181 145.904 80.7421 145.551C79.8491 146.5 78.4611 147.014 77.1941 146.709C75.9271 146.404 74.8841 145.205 74.9121 143.902C74.9311 143.013 75.5151 142.182 76.2921 141.783C74.6241 142.016 72.8871 141.757 71.3751 141.014C70.3831 140.528 69.3881 139.687 69.6381 138.462Z" fill="#263238"/>
<path d="M121.818 126.079C121.793 126.116 122.41 126.404 123.26 127.243C124.102 128.079 125.08 129.563 125.628 131.631C125.906 132.658 126.113 133.814 126.19 135.067C126.273 136.319 126.255 137.667 126.247 139.087C126.243 140.506 126.234 142.007 126.421 143.555C126.514 144.328 126.657 145.111 126.874 145.89C127.093 146.654 127.349 147.483 127.975 148.113C128.475 148.627 129.269 148.82 129.935 148.64C130.608 148.478 131.19 148.078 131.602 147.557C132.414 146.481 132.552 145.172 132.699 144.017L132.416 144.069C132.946 145.067 133.488 146.051 134.248 146.817C134.996 147.588 135.996 148.067 136.984 148.095C137.476 148.109 137.964 148 138.371 147.762C138.787 147.527 139.076 147.152 139.266 146.764C139.446 146.369 139.526 145.943 139.48 145.54C139.432 145.138 139.251 144.764 138.978 144.509L138.841 144.647C139.964 145.777 141.111 146.351 141.899 146.659C142.297 146.813 142.613 146.9 142.826 146.955C143.041 147.004 143.153 147.024 143.156 147.015C143.158 147.006 143.05 146.969 142.841 146.903C142.633 146.832 142.325 146.73 141.938 146.562C141.171 146.228 140.058 145.635 138.979 144.512L138.843 144.649C139.331 145.106 139.41 145.956 139.058 146.665C138.88 147.015 138.614 147.349 138.248 147.549C137.884 147.756 137.439 147.852 136.989 147.835C136.081 147.801 135.149 147.351 134.447 146.617C133.73 145.885 133.205 144.926 132.68 143.927L132.458 143.503L132.397 143.98C132.25 145.134 132.095 146.392 131.353 147.362C130.984 147.829 130.45 148.19 129.861 148.331C129.272 148.483 128.631 148.325 128.195 147.885C127.648 147.34 127.39 146.556 127.176 145.804C126.964 145.045 126.823 144.278 126.728 143.518C126.54 141.996 126.542 140.506 126.538 139.088C126.538 137.669 126.546 136.316 126.451 135.048C126.361 133.78 126.139 132.609 125.843 131.569C125.26 129.476 124.229 127.976 123.346 127.154C122.454 126.328 121.818 126.079 121.818 126.079Z" fill="#455A64"/>
<path d="M80.548 141.922C80.545 141.926 80.584 141.956 80.663 142.008C80.759 142.069 80.876 142.144 81.018 142.235C81.173 142.337 81.37 142.455 81.617 142.569C81.86 142.689 82.138 142.837 82.472 142.953C83.773 143.475 85.836 143.946 88.36 143.64C90.861 143.343 93.818 142.268 96.383 140.1C98.98 137.977 101.188 134.95 102.934 131.533C103.822 129.825 104.524 128.086 105.316 126.471C106.103 124.856 106.989 123.353 108.1 122.141C109.197 120.924 110.5 119.994 111.873 119.519C112.557 119.269 113.255 119.179 113.925 119.153C114.599 119.147 115.243 119.243 115.84 119.399C117.037 119.72 118.024 120.309 118.783 120.931C119.545 121.559 120.072 122.239 120.442 122.827C121.138 124.039 121.222 124.84 121.27 124.824C121.276 124.823 121.269 124.775 121.25 124.682C121.225 124.57 121.196 124.435 121.16 124.269C121.071 123.909 120.881 123.391 120.548 122.765C120.189 122.156 119.665 121.45 118.897 120.794C118.132 120.145 117.13 119.526 115.9 119.181C115.286 119.013 114.621 118.906 113.923 118.906C113.229 118.925 112.495 119.015 111.787 119.268C110.36 119.749 109.011 120.702 107.883 121.942C106.739 123.177 105.832 124.707 105.036 126.333C104.233 127.959 103.53 129.694 102.65 131.387C100.917 134.779 98.742 137.772 96.195 139.873C93.678 142.021 90.792 143.093 88.33 143.416C85.849 143.745 83.813 143.317 82.514 142.836C81.206 142.348 80.57 141.881 80.548 141.922Z" fill="#455A64"/>
<path d="M78.9401 136.02C78.9301 136.04 79.1111 136.149 79.4491 136.33C79.7841 136.517 80.2941 136.742 80.9391 136.974C81.5841 137.212 82.3781 137.422 83.2731 137.584C84.1711 137.73 85.1711 137.817 86.2221 137.791C87.2731 137.754 88.2671 137.607 89.1541 137.409C90.0381 137.194 90.8181 136.937 91.4481 136.662C92.0791 136.391 92.5741 136.137 92.8971 135.93C93.2241 135.729 93.3981 135.61 93.3871 135.591C93.3571 135.539 92.6301 135.972 91.3651 136.453C90.7341 136.698 89.9611 136.929 89.0911 137.123C88.2171 137.302 87.2431 137.437 86.2131 137.473C85.1841 137.498 84.2031 137.421 83.3201 137.295C82.4391 137.152 81.6541 136.969 81.0101 136.761C79.7181 136.355 78.9661 135.966 78.9401 136.02Z" fill="#455A64"/>
<path d="M180.383 310.842L181.322 306.338C170.003 301.324 159.725 294.23 151.022 285.426L100.97 234.791L102.267 220.261L126.909 197.187C126.909 197.187 138.66 189.395 153.891 195.432C171.189 202.288 178.514 211.998 198.713 235.541C206.718 244.871 202.221 237.076 210.044 242.131C210.044 242.131 205.137 268.805 195.854 285.336C189.059 297.435 180.383 310.842 180.383 310.842Z" fill="#69D6BF"/>
<path d="M106.152 240.173C106.095 240.211 105.362 239.246 104.306 237.599C103.25 235.953 101.889 233.612 100.577 230.928C99.267 228.242 98.256 225.73 97.608 223.884C96.958 222.038 96.647 220.868 96.713 220.846C96.789 220.82 97.227 221.945 97.965 223.747C98.702 225.55 99.761 228.021 101.063 230.69C102.367 233.356 103.665 235.711 104.634 237.4C105.601 239.092 106.219 240.129 106.152 240.173Z" fill="#263238"/>
<g opacity="0.3">
<path d="M193.301 273.607C193.301 273.607 194.774 265.388 191.633 257.216C188.492 249.043 180.383 237.543 180.383 237.543L177.595 240.175L193.301 273.607Z" fill="black"/>
</g>
<path d="M149.993 323.889L168.021 276.734L158.516 264.867L140.599 242.848C140.599 242.848 127.806 236.206 121.684 226.412C119.771 223.351 119.404 218.182 121.401 214.405C126.998 203.82 138.596 199.623 150.144 202.786L160.301 209.444C160.301 209.444 193.834 261.997 193.294 272.122C192.912 279.276 164.637 327.696 164.637 327.696L149.993 323.889Z" fill="#FFBF9D"/>
<path d="M151.261 321.887L131.252 323.611C129.144 323.793 127.242 324.948 126.11 326.735L117.158 340.865C117.158 340.865 120.727 342.518 123.091 339.876C125.523 337.157 129.273 331.682 129.273 331.682L127.572 347.423C127.572 347.423 132.187 347.874 132.963 344.364C133.854 340.334 133.922 335.057 133.922 335.057L138.425 350.021C138.425 350.021 143.314 348.412 141.744 342.753C140.752 339.179 139.68 335.506 139.68 335.506L145.173 345.244C145.173 345.244 149.165 344.891 148.128 341.273C147.437 338.863 145.317 334.082 145.317 334.082C145.317 334.082 156.839 334.952 159.129 334.123C162.249 332.994 165.439 326.372 165.439 326.372L151.261 321.887Z" fill="#FFBF9D"/>
<path d="M133.517 200.046C133.517 200.046 116.73 209.071 118.566 221.694C120.402 234.316 134.846 240.889 134.846 240.889L153.615 261.011L183.111 235.385L156.272 202.039" fill="#69D6BF"/>
<path d="M156.27 202.037C156.275 202.033 156.322 202.081 156.41 202.181C156.51 202.298 156.636 202.444 156.795 202.629C157.146 203.051 157.636 203.641 158.266 204.399C159.56 205.981 161.423 208.262 163.784 211.149C168.525 217.001 175.255 225.31 183.295 235.235L183.439 235.413L183.266 235.563C174.657 243.055 164.616 251.795 153.939 261.087L153.793 261.214L153.596 261.385L153.418 261.194C146.801 254.092 140.458 247.284 134.661 241.061L134.741 241.119C131.171 239.343 128.039 237.092 125.414 234.54C122.818 231.976 120.698 229.095 119.516 225.997C119.268 225.209 118.941 224.457 118.772 223.673C118.625 222.885 118.408 222.124 118.329 221.349C118.148 219.802 118.248 218.281 118.552 216.868C119.161 214.027 120.531 211.669 121.955 209.75C124.877 205.916 127.988 203.618 130.097 202.123C131.166 201.381 132.023 200.862 132.608 200.523C132.887 200.369 133.109 200.247 133.28 200.153C133.433 200.074 133.514 200.039 133.517 200.045C133.521 200.052 133.447 200.099 133.301 200.191C133.136 200.294 132.922 200.428 132.652 200.597C132.083 200.959 131.243 201.499 130.193 202.26C128.123 203.791 125.058 206.122 122.207 209.937C120.817 211.846 119.493 214.175 118.919 216.947C118.632 218.325 118.545 219.802 118.729 221.303C118.81 222.054 119.029 222.802 119.175 223.57C119.344 224.335 119.67 225.07 119.914 225.839C122.342 231.877 128.005 237.161 134.95 240.657L135 240.682L135.031 240.715C140.835 246.93 147.187 253.732 153.811 260.826L153.436 260.806L153.582 260.679C164.275 251.405 174.331 242.682 182.952 235.205L182.923 235.533C174.946 225.558 168.267 217.207 163.563 211.325C161.247 208.402 159.418 206.094 158.148 204.492C157.542 203.715 157.071 203.11 156.734 202.677C156.587 202.482 156.471 202.329 156.378 202.205C156.303 202.098 156.265 202.041 156.27 202.037Z" fill="#263238"/>
<path d="M135.622 325.751C135.621 325.837 134.966 325.821 133.985 326.099C133.013 326.366 131.703 327.006 130.716 328.187C129.732 329.371 129.339 330.775 129.252 331.779C129.155 332.794 129.29 333.435 129.205 333.452C129.152 333.47 128.881 332.844 128.884 331.76C128.879 330.694 129.24 329.148 130.316 327.854C131.395 326.563 132.85 325.929 133.9 325.742C134.965 325.542 135.63 325.696 135.622 325.751Z" fill="#FF9A6C"/>
<path d="M137.462 328.102C137.497 328.167 137.066 328.46 136.393 328.951C136.059 329.198 135.661 329.493 135.257 329.851C134.864 330.216 134.424 330.622 134.244 331.16C133.863 332.3 133.942 333.484 134.007 334.292C134.084 335.114 134.217 335.614 134.143 335.64C134.083 335.665 133.819 335.191 133.643 334.348C133.485 333.513 133.322 332.297 133.754 330.983C133.997 330.289 134.521 329.847 134.947 329.485C135.393 329.126 135.824 328.856 136.192 328.642C136.932 328.22 137.429 328.039 137.462 328.102Z" fill="#FF9A6C"/>
<path d="M145.832 329.98C145.85 330.051 145.229 330.232 144.223 330.346C143.256 330.485 141.759 330.57 140.857 331.728C139.978 332.88 139.802 334.331 139.986 335.256C140.173 336.211 140.495 336.769 140.414 336.808C140.372 336.837 139.929 336.352 139.627 335.337C139.334 334.329 139.44 332.73 140.45 331.403C140.961 330.74 141.718 330.353 142.392 330.192C143.073 330.021 143.687 330.003 144.192 329.98C145.205 329.959 145.816 329.911 145.832 329.98Z" fill="#FF9A6C"/>
<path d="M161.379 325.747C161.327 325.881 158.926 325.072 156.01 323.958C154.551 323.401 153.24 322.874 152.298 322.477C151.356 322.082 150.779 321.809 150.801 321.78C150.849 321.572 153.283 322.36 156.196 323.471C159.113 324.586 161.431 325.613 161.379 325.747Z" fill="#FF9A6C"/>
<g opacity="0.3">
<path d="M206.344 236.703C206.344 236.703 202.75 268.114 195.718 280.911C188.687 293.708 182.899 304.672 182.899 304.672L182.394 307.092C182.394 307.092 196.678 284.564 199.261 278.958C201.844 273.351 206.549 262.086 209.142 251.152C211.721 240.274 212.13 238.38 212.055 238.38C212.057 238.38 207.97 235.385 206.344 236.703Z" fill="black"/>
</g>
</svg>
