<svg width="430" height="396" viewBox="0 0 430 396" fill="none" xmlns="http://www.w3.org/2000/svg">
<path d="M398.992 201.766C413.575 186.13 427.265 165.044 419.814 145.268C412.343 125.44 387.841 117.844 366.35 114.053C344.859 110.262 320.481 106.071 308.578 88.3776C296.564 70.5206 302.302 45.4696 290.496 27.4836C277.959 8.38364 251.258 4.59864 227.927 2.68964C192.349 -0.22036 155.712 -3.02836 121.624 7.23164C87.5349 17.4926 56.1929 44.1336 52.3139 78.4156C48.3709 113.262 72.7109 148.6 62.0059 182.094C50.8949 216.859 5.67087 236.035 1.16587 272.157C-1.19213 291.066 8.65587 309.178 18.1919 325.849C30.3919 347.179 42.5919 369.859 54.7909 391.189H357.701C353.347 385.255 357.657 376.715 363.735 372.422C369.813 368.129 377.425 366.131 383.267 361.542C398.737 349.391 395.247 325.529 386.525 308.21C377.803 290.891 364.977 273.958 366.034 254.726C367.19 233.712 384.409 217.402 398.992 201.766Z" fill="#F3EDFF"/>
<path d="M26.001 216.414C58.678 184.947 56.186 168.202 49.478 126.279C46.205 105.821 20.19 125.87 10.909 156.883C1.16904 189.424 8.61304 233.157 26.001 216.414Z" fill="#F3EDFF"/>
<path d="M132.485 375.408C128.163 383.093 68.5546 399.536 68.1106 376.891C67.7376 357.82 111.079 363.498 126.979 370.192C122.238 365.556 117.695 360.768 113.341 356.008C109.172 351.448 105.165 346.757 101.316 341.948C91.9617 347.911 34.5386 349.349 39.1346 327.974C42.8116 310.87 77.5066 322.461 93.9866 332.338C88.1926 324.448 82.7996 316.274 77.7916 307.866C70.8926 313.815 9.71064 311.753 15.9756 290.099C21.2106 272.004 59.9946 289.606 73.6716 300.746C68.5506 291.623 63.8586 282.253 59.6056 272.684C50.8856 277.282 -8.01536 267.24 0.919644 246.83C8.31064 229.946 43.0786 251.134 55.9146 264.073C53.6816 258.669 51.5896 253.208 49.6196 247.704C40.4326 243.955 9.97665 192.694 31.2886 186.272C51.4236 180.203 56.9256 233.409 52.6986 245.501C54.9086 251.727 57.3026 257.883 59.8546 263.967C60.6036 246.969 74.7036 203.998 91.7326 213.488C110.91 224.178 72.5916 268.368 62.6956 270.585C66.8856 280.014 71.5186 289.232 76.5586 298.22C75.5466 280.484 83.9407 238.161 101.659 245.187C121.796 253.174 90.6966 300.8 80.7176 305.417C86.7986 315.628 93.4476 325.499 100.681 334.962C97.2356 320.045 102.119 271.04 121.475 277.191C142.807 283.972 112.522 336.796 103.89 339.116C107.839 344.098 111.944 348.969 116.225 353.704C120.062 357.946 124.074 362.206 128.258 366.348C122.093 349.484 117.735 307.14 136.615 308.584C158.2 310.237 142.665 364.881 134.5 372.304C142.285 379.455 150.621 386.033 159.513 391.275C161.559 392.481 159.353 395.443 157.322 394.246C148.47 389.024 140.219 382.497 132.485 375.408Z" fill="#C8C1E8"/>
<path d="M223.545 393.699C225.65 379.936 228.534 366.296 232.182 352.859C235.823 339.451 240.239 326.255 245.365 313.342C250.501 300.401 256.357 287.744 262.895 275.451C269.419 263.183 276.622 251.281 284.484 239.824C292.323 228.397 300.801 217.41 309.879 206.941C311.03 205.614 312.192 204.296 313.361 202.985C314.889 201.271 312.145 199.003 310.624 200.709C301.269 211.197 292.516 222.216 284.42 233.703C276.346 245.158 268.912 257.07 262.158 269.351C255.417 281.609 249.361 294.242 244.025 307.173C238.652 320.191 234.024 333.51 230.135 347.045C226.272 360.489 223.167 374.149 220.859 387.944C220.569 389.677 220.293 391.411 220.027 393.148C219.681 395.409 223.197 395.971 223.545 393.699Z" fill="#DAD4F8"/>
<path d="M280.146 246.706C277.533 219.503 284.734 179.204 285.38 152.42C286.092 122.865 290.222 91.0892 315.208 73.9552C321.725 69.4862 330.038 66.1532 339.257 67.3872C352.209 69.1202 363.519 79.7102 367.91 90.6172C372.301 101.525 371.144 112.63 369.05 123.037C358.826 173.865 326.955 218.2 280.146 246.706Z" fill="#DAD4F8"/>
<path d="M240.869 320.444C222.932 301.639 204.897 267.354 189.718 246.97C172.969 224.477 157.555 198.343 166.793 171.036C169.202 163.914 173.662 156.597 181.493 152.167C192.495 145.942 207.414 147.287 217.184 152.886C226.954 158.485 232.561 167.453 237.039 176.442C258.907 220.349 260.28 271.973 240.869 320.444Z" fill="#DAD4F8"/>
<path d="M227.184 360.012C241.304 334.101 271.774 299.74 288.453 275.398C306.858 248.538 329.548 220.881 361.424 214.242C369.739 212.51 378.919 212.472 386.133 216.956C396.267 223.254 399.653 237.081 396.877 248.686C394.101 260.291 386.418 270.06 378.348 278.849C338.93 321.772 284.739 350.869 227.184 360.012Z" fill="#DAD4F8"/>
<path d="M216.661 395.074C233.687 390.397 250.205 381.56 265.371 371.911C266.035 372.36 267.001 372.977 268.233 373.665C270.742 375.097 274.352 376.878 278.695 378.502C283.034 380.12 288.121 381.609 293.573 382.666C299.042 383.735 304.879 384.359 310.727 384.58C316.587 384.752 322.451 384.514 327.97 383.796C330.742 383.449 333.4 382.992 335.944 382.454C338.471 381.921 340.865 381.252 343.096 380.606C345.314 379.935 347.34 379.22 349.171 378.505C350.976 377.782 352.548 377.085 353.845 376.446C356.458 375.176 357.959 374.182 357.959 374.182C357.959 374.182 356.524 373.084 354.013 371.66C352.749 370.93 351.212 370.131 349.456 369.295C347.702 368.466 345.707 367.633 343.542 366.803C341.367 366.017 339.02 365.186 336.518 364.503C334.014 363.801 331.388 363.166 328.652 362.641C323.194 361.564 317.354 360.955 311.501 360.755C305.648 360.603 299.771 360.839 294.258 361.563C288.736 362.25 283.577 363.416 279.132 364.755C276.954 365.413 274.955 366.12 273.166 366.825C274.299 366.054 275.432 365.295 276.558 364.524C287.422 357.119 297.775 349.07 307.706 340.558C308.223 340.871 308.824 341.223 309.521 341.62C312.038 343.06 315.652 344.837 319.993 346.452C324.334 348.076 329.409 349.565 334.874 350.623C340.32 351.697 346.176 352.319 352.026 352.538C357.883 352.718 363.75 352.487 369.259 351.756C372.023 351.411 374.692 350.955 377.234 350.411C379.763 349.886 382.167 349.215 384.389 348.563C386.616 347.893 388.636 347.176 390.457 346.472C392.254 345.746 393.84 345.046 395.143 344.407C397.75 343.14 399.251 342.146 399.251 342.146C399.251 342.146 397.813 341.045 395.313 339.623C394.035 338.896 392.5 338.089 390.757 337.258C388.996 336.429 387.009 335.592 384.83 334.765C382.665 333.973 380.316 333.157 377.815 332.459C375.315 331.757 372.677 331.135 369.947 330.606C364.489 329.538 358.645 328.921 352.798 328.725C346.94 328.565 341.069 328.799 335.558 329.518C330.039 330.227 324.866 331.374 320.427 332.718C318.102 333.421 315.984 334.181 314.101 334.912C323.609 326.374 332.684 317.378 341.329 307.963C341.953 308.117 342.661 308.292 343.482 308.469C346.33 309.061 350.309 309.668 354.933 309.899C359.562 310.135 364.856 310.019 370.38 309.364C375.903 308.737 381.662 307.569 387.307 305.997C392.949 304.401 398.467 302.399 403.506 300.038C406.031 298.874 408.437 297.638 410.689 296.347C412.949 295.079 415.034 293.719 416.953 292.425C418.857 291.098 420.591 289.813 422.099 288.584C423.601 287.348 424.914 286.209 425.942 285.201C428.045 283.215 429.173 281.8 429.173 281.8C429.173 281.8 427.478 281.191 424.647 280.585C423.224 280.283 421.53 279.988 419.59 279.725C417.665 279.462 415.525 279.263 413.203 279.127C410.892 279.043 408.396 278.968 405.812 279.066C403.221 279.155 400.518 279.351 397.748 279.666C392.227 280.304 386.47 281.483 380.837 283.067C375.201 284.68 369.692 286.686 364.645 289.05C359.692 291.335 355.22 293.946 351.445 296.506C358.416 288.338 365.098 279.912 371.496 271.262C373.782 269.829 376.548 267.9 379.498 265.451C383.061 262.469 386.861 258.795 390.479 254.571C394.131 250.357 397.554 245.597 400.635 240.613C403.696 235.622 406.397 230.407 408.506 225.247C409.567 222.68 410.488 220.137 411.28 217.669C412.072 215.211 412.676 212.784 413.222 210.532C413.733 208.27 414.118 206.143 414.395 204.219C414.667 202.289 414.849 200.581 414.925 199.126C415.131 196.24 414.988 194.438 414.988 194.438C414.988 194.438 413.334 195.14 410.844 196.617C409.585 197.357 408.138 198.286 406.545 199.408C404.954 200.519 403.226 201.832 401.447 203.314C399.678 204.812 397.802 206.44 395.964 208.274C394.124 210.096 392.271 212.072 390.464 214.179C386.824 218.389 383.403 223.167 380.319 228.153C377.296 233.157 374.599 238.382 372.486 243.529C370.36 248.679 368.811 253.733 367.776 258.252C366.741 262.77 366.239 266.759 366.046 269.654C365.98 270.636 365.957 271.476 365.946 272.183C355.584 285.98 344.449 299.219 332.54 311.683C333.526 309.151 334.621 305.885 335.553 302.1C336.651 297.593 337.526 292.371 337.94 286.826C338.362 281.275 338.285 275.405 337.82 269.572C337.305 263.734 336.386 257.939 335.014 252.548C334.335 249.833 333.579 247.236 332.74 244.783C331.914 242.33 330.975 240.027 330.071 237.894C329.125 235.771 328.183 233.839 327.263 232.122C326.331 230.41 325.456 228.924 324.66 227.7C323.108 225.266 321.944 223.9 321.944 223.9C321.944 223.9 321.016 225.445 319.899 228.11C319.318 229.452 318.71 231.066 318.083 232.91C317.476 234.759 316.871 236.826 316.307 239.072C315.79 241.328 315.241 243.759 314.849 246.326C314.453 248.879 314.132 251.572 313.926 254.343C313.503 259.9 313.579 265.775 314.072 271.607C314.602 277.448 315.541 283.241 316.902 288.635C318.241 294.028 320.003 299.027 321.859 303.281C323.71 307.527 325.676 311.038 327.242 313.468C327.79 314.33 328.293 315.067 328.718 315.636C316.608 327.956 303.741 339.482 290.038 349.959C290.261 349.46 290.51 348.904 290.778 348.275C291.899 345.603 293.229 341.812 294.333 337.309C295.44 332.802 296.31 327.591 296.728 322.045C297.146 316.497 297.084 310.624 296.605 304.777C296.093 298.941 295.169 293.142 293.8 287.74C293.132 285.056 292.368 282.446 291.526 279.999C290.701 277.55 289.757 275.245 288.856 273.109C287.916 270.981 286.976 269.038 286.048 267.334C285.124 265.628 284.252 264.137 283.453 262.908C281.895 260.487 280.724 259.11 280.724 259.11C280.724 259.11 279.803 260.654 278.68 263.325C278.111 264.66 277.501 266.276 276.874 268.123C276.263 269.971 275.652 272.039 275.1 274.295C274.56 276.543 274.016 278.98 273.645 281.532C273.234 284.094 272.915 286.789 272.715 289.566C272.302 295.109 272.372 300.977 272.868 306.818C273.386 312.654 274.325 318.458 275.684 323.855C277.034 329.25 278.789 334.244 280.643 338.488C282.501 342.737 284.463 346.237 286.028 348.682C286.799 349.891 287.477 350.846 287.954 351.493C282.686 355.469 277.302 359.298 271.782 362.939C265.018 367.413 257.959 371.887 250.673 376.018C250.974 375.396 251.323 374.641 251.689 373.743C252.824 371.067 254.161 367.282 255.242 362.779C256.365 358.277 257.241 353.05 257.64 347.516C258.07 341.952 258.008 336.088 257.516 330.244C257.013 324.408 256.095 318.621 254.734 313.226C254.063 310.516 253.287 307.912 252.444 305.46C251.626 303.012 250.677 300.701 249.777 298.571C248.844 296.457 247.894 294.509 246.969 292.799C246.038 291.091 245.158 289.603 244.377 288.389C242.813 285.949 241.648 284.58 241.648 284.58C241.648 284.58 240.729 286.126 239.593 288.794C239.035 290.13 238.415 291.75 237.798 293.589C237.177 295.438 236.584 297.506 236.01 299.761C235.487 302.007 234.937 304.457 234.569 307.005C234.16 309.567 233.835 312.253 233.635 315.028C233.219 320.584 233.296 326.449 233.781 332.29C234.319 338.124 235.234 343.917 236.606 349.326C237.95 354.721 239.712 359.703 241.558 363.955C243.421 368.21 245.384 371.702 246.959 374.15C247.738 375.39 248.429 376.355 248.919 377.007C238.222 382.955 227.029 388.093 215.507 391.256C213.05 391.947 214.2 395.751 216.661 395.074Z" fill="#C8C1E8"/>
<path d="M142.188 44.2094C146.93 44.2094 150.774 48.0534 150.774 52.7954C150.774 54.3764 152.055 55.6574 153.636 55.6574C155.217 55.6574 156.498 54.3764 156.498 52.7954C156.498 44.8914 150.091 38.4844 142.187 38.4844C140.606 38.4844 139.325 39.7654 139.325 41.3464C139.326 42.9284 140.608 44.2094 142.188 44.2094Z" fill="#EA5455"/>
<path d="M142.188 32.7611C153.253 32.7611 162.223 41.7311 162.223 52.7961C162.223 54.3771 163.504 55.6581 165.085 55.6581C166.666 55.6581 167.947 54.3771 167.947 52.7961C167.947 38.5701 156.414 27.0371 142.188 27.0371C140.607 27.0371 139.326 28.3181 139.326 29.8991C139.326 31.4791 140.608 32.7611 142.188 32.7611Z" fill="#EA5455"/>
<path d="M167.232 66.8491C166.912 65.9151 166.133 65.2121 165.171 64.9891L147.998 61.0681C147.051 60.8531 146.059 61.1331 145.365 61.8121C144.964 62.1841 144.936 62.2131 143.075 65.7621C136.902 62.9181 131.956 57.9511 129.136 51.7661C132.771 49.9341 132.799 49.9341 133.172 49.5051C133.851 48.8101 134.131 47.8191 133.916 46.8721L129.995 29.9001C129.772 28.9381 129.069 28.1591 128.135 27.8391C127.467 27.6001 126.776 27.4281 126.074 27.3241C125.351 27.1561 124.612 27.0601 123.87 27.0381C116.599 27.0381 110.704 32.9331 110.704 40.2041C110.736 64.5341 130.451 84.2491 154.781 84.2811C162.052 84.2811 167.947 78.3861 167.947 71.1151C167.948 70.3861 167.891 69.6591 167.775 68.9401C167.656 68.2271 167.474 67.5281 167.232 66.8491Z" fill="#454975"/>
<path d="M307.476 52.2393H272.31C265.022 52.2393 259.059 46.2763 259.059 38.9883C259.059 31.7003 265.022 25.7373 272.31 25.7373H307.476C314.764 25.7373 320.727 31.7003 320.727 38.9883C320.727 46.2763 314.765 52.2393 307.476 52.2393Z" fill="#454975"/>
<path d="M310.783 56.3108C310.783 57.9278 309.472 59.2388 307.855 59.2388C306.238 59.2388 304.927 57.9278 304.927 56.3108C304.927 54.6938 306.238 53.3828 307.855 53.3828C309.472 53.3828 310.783 54.6938 310.783 56.3108Z" fill="#454975"/>
<path d="M282.205 38.6291C282.205 40.7511 280.485 42.4711 278.363 42.4711C276.241 42.4711 274.521 40.7511 274.521 38.6291C274.521 36.5071 276.241 34.7871 278.363 34.7871C280.485 34.7871 282.205 36.5071 282.205 38.6291Z" fill="white"/>
<path d="M293.736 38.6291C293.736 40.7511 292.016 42.4711 289.894 42.4711C287.772 42.4711 286.052 40.7511 286.052 38.6291C286.052 36.5071 287.772 34.7871 289.894 34.7871C292.016 34.7871 293.736 36.5071 293.736 38.6291Z" fill="white"/>
<path d="M305.266 38.6291C305.266 40.7511 303.546 42.4711 301.424 42.4711C299.302 42.4711 297.582 40.7511 297.582 38.6291C297.582 36.5071 299.302 34.7871 301.424 34.7871C303.546 34.7871 305.266 36.5071 305.266 38.6291Z" fill="white"/>
<path d="M256.216 83.0274H291.382C298.67 83.0274 304.633 77.0644 304.633 69.7764C304.633 62.4884 298.67 56.5254 291.382 56.5254H256.216C248.928 56.5254 242.965 62.4884 242.965 69.7764C242.965 77.0644 248.928 83.0274 256.216 83.0274Z" fill="#EA5455"/>
<path d="M252.909 87.0999C252.909 88.7169 254.22 90.0279 255.837 90.0279C257.454 90.0279 258.765 88.7169 258.765 87.0999C258.765 85.4829 257.454 84.1719 255.837 84.1719C254.22 84.1719 252.909 85.4829 252.909 87.0999Z" fill="#EA5455"/>
<path d="M266.111 69.5393C266.111 71.6613 264.391 73.3813 262.269 73.3813C260.147 73.3813 258.427 71.6613 258.427 69.5393C258.427 67.4173 260.147 65.6973 262.269 65.6973C264.391 65.6973 266.111 67.4173 266.111 69.5393Z" fill="white"/>
<path d="M277.642 69.5393C277.642 71.6613 275.922 73.3813 273.8 73.3813C271.678 73.3813 269.958 71.6613 269.958 69.5393C269.958 67.4173 271.678 65.6973 273.8 65.6973C275.921 65.6973 277.642 67.4173 277.642 69.5393Z" fill="white"/>
<path d="M289.172 69.5393C289.172 71.6613 287.452 73.3813 285.33 73.3813C283.208 73.3813 281.488 71.6613 281.488 69.5393C281.488 67.4173 283.208 65.6973 285.33 65.6973C287.452 65.6973 289.172 67.4173 289.172 69.5393Z" fill="white"/>
<path d="M204.437 162.111C203.219 165.253 201.176 167.775 198.773 169.405C195.707 171.514 192.044 172.188 188.728 170.905C182.825 168.622 180.292 160.969 183.064 153.827C185.825 146.685 192.859 142.749 198.762 145.032C198.795 145.043 198.827 145.054 198.86 145.076C204.698 147.413 207.188 155.012 204.437 162.111Z" fill="#A6AFE2"/>
<path d="M59.7176 151.45C65.8956 160.866 83.8846 188.23 93.9756 203.061C86.3246 217.379 70.3046 225.299 70.3046 225.299C70.3046 225.299 62.0216 203.136 57.6596 191.14C53.2976 179.145 49.9186 169.805 50.0496 163.671C50.0676 162.823 50.7626 162.54 51.2346 162.442L50.5756 161.249C49.7726 159.795 50.3476 157.965 51.8376 157.232C52.7846 156.766 53.8576 156.888 54.6926 157.428L53.4706 155.451C52.4606 153.817 52.8656 151.681 54.4036 150.53C56.1166 149.249 58.5436 149.662 59.7176 151.45Z" fill="#FFB8B8"/>
<path d="M65.4614 189.496C65.6504 182.05 72.3194 176.165 74.8734 174.525L75.7604 175.908C72.4944 178.004 67.2544 183.56 67.1034 189.538L65.4614 189.496Z" fill="#F18B8B"/>
<path d="M54.7882 157.417L54.0781 157.831L63.7089 174.349L64.419 173.935L54.7882 157.417Z" fill="#F18B8B"/>
<path d="M51.31 162.53L50.5698 162.885L58.2239 178.831L58.964 178.476L51.31 162.53Z" fill="#F18B8B"/>
<path d="M228.26 175.83L228.298 176.457L228.664 195.678L229.599 244.49L171.163 228.778L199.31 210.259L199.027 202.909L198.073 177.379C197.733 169.089 204.155 162.071 212.44 161.652C220.753 161.258 227.768 167.627 228.26 175.83Z" fill="#FFB8B8"/>
<path d="M228.259 175.83L228.297 176.457L228.663 195.678C225.641 197.301 222.499 198.696 219.351 199.96C214.282 201.994 209.78 203.418 204.301 203.432C202.544 203.432 200.708 203.411 199.026 202.909L198.072 177.379C197.732 169.089 204.154 162.071 212.439 161.652C220.752 161.258 227.767 167.627 228.259 175.83Z" fill="#F18B8B"/>
<path d="M240.705 165.829C236.379 176.313 233.11 180.389 229.556 179.265C219.309 196.816 205.208 203.429 192.629 200.015C182.423 197.271 182.947 182.401 185.81 168.938C186.489 165.83 187.275 162.768 188.077 159.967C189.403 155.404 191.596 149.138 194.661 142.112C186.578 117.061 210.84 111.569 226.852 129.826C227.706 129.198 228.621 128.724 229.577 128.483C233.805 127.286 238.555 130.435 242.113 142.098C249.437 150.126 245.058 155.343 240.705 165.829Z" fill="#454975"/>
<path d="M234.995 141.423C233.667 138.96 231.204 135.909 226.854 129.825C227.708 129.197 228.622 128.723 229.578 128.482C231.675 132.42 234.666 138.559 234.995 141.423Z" fill="#3B3E63"/>
<path d="M237.357 169.438C232.444 179.328 224.837 174.882 224.153 170.912C220.175 176.709 217.59 178.201 215.819 178.385C214.047 178.57 209.115 175.458 207.003 174.772C204.863 174.061 194.195 177.166 185.838 168.963L185.81 168.938C186.489 165.83 187.275 162.768 188.077 159.967C189.403 155.404 191.596 149.138 194.661 142.112C199.192 136.361 213.026 125.28 229.208 153.804C227.913 159.309 226.986 163.533 225.819 166.355C233.716 156.81 242.271 159.574 237.357 169.438Z" fill="#FFB8B8"/>
<path d="M227.037 168.092C227.4 167.137 227.937 166.257 228.634 165.512C229.305 164.741 230.131 164.093 231.067 163.611C231.998 163.134 233.055 162.802 234.173 162.859C234.724 162.874 235.303 163.017 235.797 163.338C236.287 163.651 236.646 164.222 236.572 164.749C236.271 164.313 235.876 164.126 235.472 164.076C235.077 164.005 234.658 164.052 234.245 164.139C233.419 164.324 232.61 164.664 231.819 165.071C231.024 165.473 230.252 165.957 229.472 166.476C228.681 166.983 227.928 167.566 227.037 168.092Z" fill="#F18B8B"/>
<path d="M228.034 166.99C228.404 166.536 228.96 166.227 229.542 166.085C230.127 165.932 230.752 165.929 231.358 166.076C231.956 166.234 232.552 166.57 232.92 167.108C233.303 167.636 233.376 168.308 233.23 168.865C232.886 167.723 232.13 167.103 231.154 166.871C230.675 166.74 230.159 166.705 229.638 166.716C229.117 166.743 228.584 166.802 228.034 166.99Z" fill="#F18B8B"/>
<path d="M199.448 156.879C194.545 163.296 188.725 166.01 187.992 167.724C187.259 169.438 189.797 172.793 196.128 173.944C199.874 171.57 196.844 167.683 199.448 156.879Z" fill="#F18B8B"/>
<path d="M211.357 159.501C211.447 161.006 210.528 162.285 209.303 162.358C208.078 162.431 207.013 161.271 206.922 159.767C206.832 158.262 207.751 156.983 208.976 156.91C210.201 156.836 211.267 157.996 211.357 159.501Z" fill="#454975"/>
<path d="M195.495 158.013C195.211 159.493 194.005 160.506 192.8 160.275C191.595 160.044 190.848 158.657 191.132 157.177C191.415 155.697 192.622 154.684 193.827 154.915C195.032 155.145 195.779 156.532 195.495 158.013Z" fill="#454975"/>
<path d="M211.881 145.926C216.298 146.052 218.39 151.276 219.059 154.114C219.388 155.512 218.462 155.891 217.714 154.585C216.794 152.98 214.306 150.067 211.493 148.952C209.503 148.163 210.165 145.877 211.881 145.926Z" fill="#454975"/>
<path d="M199.246 143.764C195.52 142.236 192.397 144.885 190.82 147.099C189.987 148.269 190.607 149.431 191.868 148.609C193.418 147.598 195.201 146.348 198.214 146.635C200.344 146.838 200.834 144.415 199.246 143.764Z" fill="#454975"/>
<path d="M159.03 363.615C172.431 368.321 186.245 371.166 209.204 369.002C222.611 325.693 224.768 221.663 225.207 215.864C214.692 219.906 201.714 222.258 196.225 209.469C169.929 239.12 158.876 284.423 159.03 363.615Z" fill="white"/>
<path d="M228.837 204.783C214.63 212.985 205.68 237.89 203.32 275.94C200.96 313.989 198.037 348.763 199.003 360.111C199.969 371.458 203.349 389.789 223.692 391.421C244.034 393.052 274.036 394.104 274.036 394.104C274.036 394.104 250.117 247.27 249.305 238.479C248.493 229.688 245.558 215.904 228.837 204.783Z" fill="#EA5455"/>
<path d="M397.985 368.612C388.624 362.351 361.42 344.121 346.679 333.899C332.294 341.423 324.233 357.373 324.233 357.373C324.233 357.373 346.322 365.852 358.279 370.319C370.235 374.786 379.545 378.249 385.679 378.171C386.527 378.16 386.816 377.468 386.918 376.997L388.106 377.666C389.553 378.482 391.388 377.923 392.134 376.439C392.608 375.496 392.496 374.422 391.963 373.582L393.93 374.822C395.555 375.847 397.694 375.46 398.859 373.932C400.154 372.232 399.763 369.801 397.985 368.612Z" fill="#FFB8B8"/>
<path d="M354.312 339.982L387.796 348.609C389.731 349.108 390.92 351.054 390.479 353.003C390.019 355.041 387.963 356.292 385.941 355.765L365.933 350.552C365.933 350.552 350.088 347.832 354.312 339.982Z" fill="#FFB8B8"/>
<path d="M363.998 361.849C362.727 362.258 361.386 362.509 359.991 362.531L359.965 360.889C365.945 360.79 371.544 355.602 373.67 352.354L375.044 353.252C373.694 355.318 369.514 360.075 363.998 361.849Z" fill="#F18B8B"/>
<path d="M375.549 363.701L375.129 364.406L391.561 374.182L391.981 373.477L375.549 363.701Z" fill="#F18B8B"/>
<path d="M370.937 369.121L370.575 369.858L386.455 377.652L386.816 376.915L370.937 369.121Z" fill="#F18B8B"/>
<path d="M228.837 204.783C247.209 217.789 252.902 227.142 258.431 238.501C263.96 249.86 284.727 287.107 290.904 295.006C297.08 302.904 346.681 333.899 346.681 333.899L320.191 363.144C320.191 363.144 269.414 340.775 259.658 330.24C249.9 319.705 228.334 280.522 228.837 204.783Z" fill="#EA5455"/>
<path d="M199.177 207.147L199.364 212.012C188.272 224.213 179.677 245.702 174.934 273.278C169.545 304.511 167.473 337.721 167.261 365.209C167.137 384.119 149.662 383.882 141.017 377.427C142.854 352.542 150.052 292.467 153.959 274.117C157.702 256.536 165.282 205.457 199.177 207.147Z" fill="#EA5455"/>
<path d="M199.196 207.46L199.253 208.846C181.707 215.718 172.346 248.92 172.346 248.92C172.346 248.92 161.417 283.225 151.389 291.154C131.925 306.543 117.419 302.462 106.459 290.822C100.671 284.675 64.1416 226.377 64.1416 226.377L94.0206 202.678L127.861 248.127C127.861 248.127 156.571 227.634 167.393 219.67C177.159 212.453 185.477 207.339 199.196 207.46Z" fill="#EA5455"/>
<path d="M234.129 272.309L232.599 272.905L251.005 320.136L252.536 319.539L234.129 272.309Z" fill="#BB4344"/>
<path d="M160.201 252.852L152.203 278.171L153.768 278.665L161.766 253.346L160.201 252.852Z" fill="#BB4344"/>
<path d="M62.5486 170.356L31.8726 139.68V165.955C31.8726 171.038 35.9926 175.158 41.0756 175.158H84.0226C89.1056 175.158 93.2256 171.038 93.2256 165.955V139.68L62.5486 170.356Z" fill="#3E4169"/>
<path d="M93.2246 139.678V135.277C93.2246 130.194 89.1046 126.074 84.0216 126.074H41.0746C35.9916 126.074 31.8716 130.194 31.8716 135.277V139.678L62.5476 170.354L93.2246 139.678Z" fill="#454975"/>
<path d="M87.3504 143.337C93.5934 143.337 98.6544 138.276 98.6544 132.033C98.6544 125.789 93.5934 120.729 87.3504 120.729C81.1074 120.729 76.0464 125.789 76.0464 132.033C76.0464 138.276 81.1074 143.337 87.3504 143.337Z" fill="#EA5455"/>
<path d="M59.0307 154.772H38.8857V159.27H59.0307V154.772Z" fill="#A6AFE2"/>
<path d="M87.9596 195.375L79.6286 161.816C79.1476 159.876 77.2116 158.671 75.2586 159.094C73.2176 159.536 71.9476 161.581 72.4566 163.607L77.4926 183.66C77.4926 183.66 80.0726 199.53 87.9596 195.375Z" fill="#FFB8B8"/>
<path d="M200.028 177.532C200.017 177.586 200.02 177.639 200.009 177.693C198.787 187.394 187.23 188.381 186.375 176.537C186.317 175.924 186.297 175.269 186.316 174.585C189.509 174.704 197.186 176.658 200.028 177.532Z" fill="#F18B8B"/>
<path d="M200.028 177.532C200.017 177.586 200.02 177.639 200.009 177.693C198.701 178.027 197.279 178.233 195.769 178.31C191.977 178.502 188.554 177.792 186.375 176.537C186.317 175.924 186.297 175.269 186.316 174.585C189.509 174.704 197.186 176.658 200.028 177.532Z" fill="#F3EDFF"/>
<path d="M242.625 171.038C241.407 174.18 239.364 176.702 236.961 178.333C233.895 180.442 230.232 181.116 226.916 179.833C221.013 177.55 218.48 169.897 221.252 162.754C224.013 155.612 231.047 151.677 236.95 153.959C236.983 153.97 237.015 153.981 237.048 154.003C242.886 156.341 245.375 163.939 242.625 171.038Z" fill="#A6AFE2"/>
<path d="M233.312 154.132C237.815 147.8 232.709 135.558 226.855 129.824C226.855 129.824 224.739 127.515 224.027 126.95C225.345 126.971 225.826 127.201 227.165 128.226C228.504 129.251 246.307 140.015 239.494 156.521C239.494 156.521 233.667 155.566 233.312 154.132Z" fill="#A6AFE2"/>
<path d="M242.626 171.038C241.408 174.18 239.365 176.702 236.962 178.333C228.711 180.192 222.232 171.919 227.885 162.168C230.364 157.896 233.658 155.276 237.049 154.004C242.887 156.341 245.376 163.939 242.626 171.038Z" fill="#BBC3ED"/>
<path d="M225.885 173.912C220.893 178.904 211.094 179.439 203.346 179.565C202.599 179.577 201.986 180.157 201.937 180.903C201.88 181.761 202.591 182.477 203.45 182.429C215.228 181.775 222.549 181.031 227.548 175.672L225.885 173.912Z" fill="#A6AFE2"/>
<path d="M203.387 183.972C205.062 183.972 206.419 182.615 206.419 180.94C206.419 179.266 205.062 177.908 203.387 177.908C201.713 177.908 200.355 179.266 200.355 180.94C200.355 182.615 201.713 183.972 203.387 183.972Z" fill="#EA5455"/>
<path d="M108.039 90.7607C114.216 90.7607 119.225 85.7525 119.225 79.5747C119.225 73.3968 114.216 68.3887 108.039 68.3887C101.861 68.3887 96.8525 73.3968 96.8525 79.5747C96.8525 85.7525 101.861 90.7607 108.039 90.7607Z" fill="#DAD4F8"/>
<path d="M225.707 44.3868C225.707 46.9218 223.652 48.9759 221.118 48.9759C218.583 48.9759 216.529 46.9208 216.529 44.3868C216.529 41.8528 218.584 39.7979 221.118 39.7979C223.653 39.7979 225.707 41.8528 225.707 44.3868Z" fill="#DAD4F8"/>
<path d="M174.682 112.353C176.492 112.353 177.96 110.885 177.96 109.075C177.96 107.264 176.492 105.797 174.682 105.797C172.871 105.797 171.404 107.264 171.404 109.075C171.404 110.885 172.871 112.353 174.682 112.353Z" fill="#DAD4F8"/>
<path d="M269.492 212.609C269.492 214.6 267.878 216.215 265.886 216.215C263.895 216.215 262.28 214.601 262.28 212.609C262.28 210.618 263.894 209.003 265.886 209.003C267.878 209.004 269.492 210.618 269.492 212.609Z" fill="#DAD4F8"/>
<path d="M287.708 280.001V349.435C287.708 356.295 282.153 361.861 275.282 361.861H152.069C145.209 361.861 139.654 356.295 139.654 349.435V280.001C139.654 273.141 145.209 267.575 152.069 267.575H275.282C282.153 267.575 287.708 273.141 287.708 280.001Z" fill="#454975"/>
<path d="M246.148 361.86H201.522L199.935 309.646H227.417L246.148 361.86Z" fill="#393C61"/>
<path d="M260.346 383.872H237.05L227.422 309.651H199.939L190.311 383.872H167.015C165.089 383.872 163.528 385.433 163.528 387.359V390.787H263.831V387.359C263.832 385.433 262.271 383.872 260.346 383.872ZM223.746 346.849C223.746 352.408 219.24 356.914 213.681 356.914C208.122 356.914 203.616 352.408 203.616 346.849V342.648C203.616 337.089 208.122 332.583 213.681 332.583C219.24 332.583 223.746 337.09 223.746 342.648V346.849Z" fill="#A6AFE2"/>
<path d="M213.556 345.339C190.348 345.339 198.442 374.027 198.442 390.104" stroke="#F3EDFF" stroke-width="2.1742" stroke-miterlimit="10"/>
<path d="M328.45 124.773C323.172 124.773 318.182 125.43 313.746 126.598C311.475 127.196 309.887 129.237 309.887 131.585V165.798V170.194C309.887 173.477 312.912 175.895 316.123 175.211C319.936 174.398 324.096 173.951 328.45 173.951C335.321 173.951 341.719 175.064 347.027 176.97V165.797V127.791C341.719 125.886 335.321 124.773 328.45 124.773Z" fill="#454975"/>
<path d="M365.603 124.773C358.732 124.773 352.334 125.886 347.026 127.792V165.798V176.971C352.334 175.065 358.732 173.952 365.603 173.952C369.957 173.952 374.116 174.399 377.93 175.212C381.141 175.896 384.166 173.478 384.166 170.195V165.799V131.586C384.166 129.238 382.578 127.197 380.307 126.599C375.872 125.43 370.881 124.773 365.603 124.773Z" fill="#3E4169"/>
<path d="M383.144 395.519H30.3745C29.0465 395.519 27.9595 394.432 27.9595 393.104C27.9595 391.776 29.0465 390.689 30.3745 390.689H383.145C384.473 390.689 385.56 391.776 385.56 393.104C385.559 394.432 384.473 395.519 383.144 395.519Z" fill="#454975"/>
</svg>
