<svg width="2757" height="2800" viewBox="0 0 2757 2800" fill="none" xmlns="http://www.w3.org/2000/svg">
<path d="M2437.4 2410.39C2380.79 2469.99 2327.23 2508.42 2284.9 2538.79C1787.42 2895.74 1198.77 2791.69 1073.67 2766.28C888.925 2728.76 531.825 2656.23 273.648 2352.62C-116.952 1893.28 -56.13 1169.6 246.846 691.898C302.265 604.517 595.005 119.534 1190 41.7567C1550.08 -5.31233 1969.82 89.6206 2273.78 344.283C2911.83 878.841 2866.41 1958.74 2437.4 2410.39Z" fill="url(#paint0_linear_76_7)"/>
<path d="M1884.73 2706.41C1879.94 2705.76 1875.65 2703.23 1872.77 2699.35C1830.78 2642.76 1525.46 2199.91 1931.8 1795.11C2317.54 1410.83 2492.39 1331.93 2515.64 1106.14C2518.36 1079.78 2554.01 1073.45 2565.73 1097.22C2653.38 1274.87 2789.94 1689.41 2338.03 1961.5C1839.52 2261.64 1880.37 2590.65 1904.48 2684.15C1907.67 2696.51 1897.38 2708.13 1884.73 2706.41Z" fill="#91B3FA"/>
<path d="M1946.56 2714.83C1935.22 2713.28 1926.23 2704.54 1924.48 2693.22C1912.58 2616.22 1883.35 2328.46 2095.35 2252.15C2328.72 2168.15 2517.13 2385.5 2688.67 2215.38C2697.7 2206.43 2712.88 2214.23 2710.72 2226.76C2695.45 2315.62 2627.45 2521.45 2324.87 2562.86C2001 2607.19 1964.56 2644.34 1971.1 2690.43C1973.11 2704.64 1960.78 2716.76 1946.56 2714.83Z" fill="#91B3FA"/>
<path opacity="0.47" d="M2504.36 1336.34C2500.41 1353.1 2495.15 1368.81 2488.87 1384.41C2482.71 1400 2475.61 1415.2 2467.87 1430.07C2452.55 1459.91 2434.16 1488.14 2414.03 1515.03C2373.5 1568.69 2324.46 1615.81 2270.41 1655.78C2243.45 1675.65 2214.63 1693.91 2186.14 1710.41C2158.41 1726.5 2131.72 1744.5 2106.15 1763.99C2054.99 1802.97 2008.6 1848.2 1967.63 1897.8C1886.02 1997.06 1828.1 2116.85 1809.03 2244.4C1799.3 2308.02 1799.18 2373.17 1807.94 2437.32C1816.61 2501.56 1834.92 2564.47 1859.06 2625.11C1860.37 2628.35 1858.8 2632.03 1855.57 2633.33C1852.46 2634.59 1848.93 2633.15 1847.5 2630.17C1819.26 2570.23 1798.17 2506.52 1786.49 2440.72C1780.52 2407.86 1776.99 2374.49 1775.98 2340.98C1775.18 2307.48 1776.59 2273.84 1780.81 2240.51C1788.92 2173.77 1807.75 2108.4 1834.86 2046.86C1862.05 1985.29 1897.97 1927.78 1939.93 1875.33C1981.87 1822.79 2030.54 1775.8 2083.75 1734.73C2110.41 1714.25 2138.28 1695.3 2167.38 1678.28C2195.86 1661.93 2222.9 1645.32 2249.09 1626.42C2301.37 1589.08 2349.68 1545.97 2391.24 1496.78C2412.28 1472.4 2431.33 1446.3 2448.74 1419.09C2465.81 1391.83 2481.75 1363.07 2493.23 1333.33L2493.38 1332.95C2494.52 1329.98 2497.86 1328.5 2500.83 1329.65C2503.55 1330.69 2505.02 1333.58 2504.36 1336.34Z" fill="white"/>
<path opacity="0.47" d="M1933.11 2662.6C1934.1 2659.81 1933.8 2657.22 1933.7 2654.56L1933.46 2646.62L1933.27 2630.76C1933.29 2620.18 1933.52 2609.61 1933.98 2599.05C1934.92 2577.92 1936.72 2556.81 1939.55 2535.82C1945.31 2493.89 1954.81 2452.08 1971.74 2412.71C1988.47 2373.6 2013.82 2336.23 2050.6 2311.82C2068.93 2299.83 2089.6 2291.3 2111.02 2286.96C2132.43 2282.45 2154.42 2281.78 2175.93 2283.67C2260.23 2293.45 2342.87 2309.61 2425.72 2322.74C2466.99 2328.89 2508.84 2334.38 2549.36 2328.84C2559.42 2327.37 2569.34 2325.17 2578.98 2322.07C2588.52 2318.75 2597.89 2314.85 2606.64 2309.72C2624.26 2299.66 2639.75 2285.9 2653.59 2270.64L2653.64 2270.6C2655.54 2268.49 2658.79 2268.33 2660.89 2270.24C2662.97 2272.12 2663.15 2275.31 2661.32 2277.42C2647.29 2293.57 2631.26 2308.5 2612.53 2319.75C2603.23 2325.46 2593.19 2329.92 2582.96 2333.72C2572.63 2337.29 2562.01 2339.88 2551.3 2341.68C2508.15 2348 2465.37 2342.62 2423.63 2336.9C2381.76 2330.94 2340.43 2323.18 2298.95 2316.47C2257.6 2309.74 2215.76 2303.23 2174.58 2298.4C2154.25 2296.44 2133.69 2296.91 2113.88 2300.91C2094.02 2304.75 2075.05 2312.41 2058.07 2323.28C2023.84 2345.08 1999.01 2379.76 1982.14 2417.31C1965.08 2455.04 1954.95 2495.89 1948.52 2537.11C1945.35 2557.76 1943.19 2578.58 1941.87 2599.47C1941.23 2609.91 1940.81 2620.37 1940.6 2630.83L1940.49 2646.52L1940.59 2654.35C1940.66 2656.95 1940.54 2659.61 1941.82 2662.08C1943.03 2664.42 1942.12 2667.3 1939.78 2668.51C1937.44 2669.72 1934.56 2668.81 1933.35 2666.47C1932.72 2665.25 1932.66 2663.89 1933.08 2662.69L1933.11 2662.6Z" fill="white"/>
<path d="M1492.63 31.7963C1365.61 30.7943 1237.49 50.9373 1124.14 97.9683C860.278 207.449 636.345 497.138 723.978 793.037C752.446 889.16 737.49 995.207 833.249 1036.98C885.061 1059.58 1026.16 1073.04 1079.8 1055.22C1222.39 1007.88 1316.12 878.315 1238.57 734.633C1213.73 688.62 1181.59 646.586 1160.15 598.9C1138.7 551.213 1128.93 494.612 1150.79 447.111C1193.71 353.876 1336.28 324.236 1428.73 327.033C1537.85 330.334 1636.73 384.308 1695.46 476.899C1768.64 592.296 1787.18 732.655 1776.47 866.606C1765.01 1009.94 1704.58 1119.39 1614.01 1229.35C1536.03 1324.01 1450.16 1414.88 1398.33 1526.04C1350.75 1628.09 1335.21 1741.16 1333.06 1852.8C1332.64 1874.44 1225.03 2078.36 1225.49 2140.66C1225.56 2149.46 1347.54 2178.62 1356.34 2178.71C1402.27 2179.23 1532.35 2180.68 1580.23 2181.22C1590.08 2181.33 1598.2 2173.46 1598.31 2163.61C1601.72 1860.52 1694.94 1571.55 1930.94 1367.99C2016.82 1293.92 2109.3 1233.61 2176.07 1140.12C2271.24 1006.86 2318.19 875.729 2304.64 711.276C2292.27 561.08 2242.81 410.802 2144.91 294.268C2039.68 169.017 1885.67 90.8013 1725.61 57.0473C1650.96 41.3073 1572.01 32.4223 1492.63 31.7963Z" fill="url(#paint1_linear_76_7)"/>
<path d="M1726.86 2520.99C1726.86 2660.37 1649.61 2783.67 1510.23 2783.67C1480.12 2783.67 1377.72 2783.95 1350.95 2774.28C1253.79 2739.18 1253.44 2664.53 1253.44 2555.27C1253.44 2415.89 1300.5 2278.82 1439.88 2278.82C1579.25 2278.82 1726.86 2381.61 1726.86 2520.99Z" fill="url(#paint2_linear_76_7)"/>
<path d="M1371.94 0.0355354C1244.92 -0.966465 1116.8 19.1765 1003.45 66.2075C739.589 175.689 515.656 465.378 603.289 761.277C631.757 857.4 697.578 978.396 793.337 1020.17C845.149 1042.77 905.467 1041.27 959.115 1023.46C1101.7 976.122 1195.43 846.555 1117.88 702.872C1093.04 656.859 1060.9 614.826 1039.46 567.14C1018.01 519.454 1008.24 462.851 1030.1 415.35C1073.02 322.115 1215.59 292.475 1308.04 295.272C1417.16 298.573 1516.04 352.548 1574.77 445.139C1647.95 560.536 1666.49 700.895 1655.78 834.846C1644.32 978.177 1583.89 1087.63 1493.32 1197.59C1415.34 1292.25 1329.47 1383.12 1277.64 1494.28C1230.06 1596.33 1214.52 1709.4 1212.37 1821.04C1211.95 1842.68 1219.23 2068.65 1219.7 2130.94C1219.76 2139.74 1226.85 2146.85 1235.65 2146.95C1281.58 2147.47 1411.66 2148.92 1459.54 2149.46C1469.39 2149.57 1477.51 2141.7 1477.62 2131.85C1481.03 1828.76 1574.25 1539.79 1810.26 1336.23C1896.13 1262.16 1988.61 1201.84 2055.38 1108.35C2150.55 975.103 2197.5 843.969 2183.95 679.516C2171.58 529.32 2122.12 379.042 2024.22 262.508C1918.99 137.257 1764.98 59.0405 1604.92 25.2865C1530.27 9.54654 1451.32 0.662535 1371.94 0.0355354Z" fill="url(#paint3_linear_76_7)"/>
<path d="M1385.11 2775.87C1524.48 2775.87 1637.47 2662.88 1637.47 2523.51C1637.47 2384.13 1524.48 2271.14 1385.11 2271.14C1245.73 2271.14 1132.75 2384.13 1132.75 2523.51C1132.75 2662.88 1245.73 2775.87 1385.11 2775.87Z" fill="url(#paint4_linear_76_7)"/>
<path opacity="0.63" d="M686.822 732.293C685.337 732.293 683.997 731.265 683.664 729.754C665.979 649.901 663.381 524.852 751.445 382.598C837.397 243.753 957.964 150.85 1109.8 106.466C1272.11 59.0266 1464.8 69.1826 1682.56 136.654C1684.27 137.184 1685.23 138.999 1684.69 140.707C1684.17 142.415 1682.34 143.375 1680.65 142.842C1262.3 13.2126 934.266 99.5735 756.949 386.007C670.033 526.409 672.561 649.673 689.986 728.354C690.372 730.1 689.27 731.829 687.524 732.215C687.29 732.268 687.053 732.293 686.822 732.293Z" fill="white"/>
<path opacity="0.63" d="M739.908 860.773C738.908 860.773 737.925 860.313 737.291 859.445C736.525 858.397 718.338 833.27 701.425 789.015C700.788 787.343 701.623 785.472 703.296 784.834C704.956 784.199 706.837 785.029 707.477 786.702C724.054 830.079 742.336 855.374 742.521 855.625C743.574 857.069 743.257 859.095 741.815 860.149C741.237 860.57 740.568 860.773 739.908 860.773Z" fill="white"/>
<path opacity="0.63" d="M1469.55 2359.94C1469.06 2359.94 1468.56 2359.83 1468.09 2359.59C1442.23 2346.47 1414.31 2339.82 1385.11 2339.82C1383.32 2339.82 1381.87 2338.37 1381.87 2336.58C1381.87 2334.79 1383.32 2333.34 1385.11 2333.34C1415.34 2333.34 1444.24 2340.23 1471.02 2353.81C1472.61 2354.62 1473.25 2356.57 1472.44 2358.17C1471.87 2359.29 1470.73 2359.94 1469.55 2359.94Z" fill="white"/>
<path opacity="0.63" d="M1280.59 2681.74C1279.97 2681.74 1279.34 2681.56 1278.79 2681.19C1226.29 2645.72 1194.95 2586.77 1194.95 2523.51C1194.95 2453.36 1233.36 2389.14 1295.2 2355.9C1296.78 2355.05 1298.74 2355.64 1299.59 2357.22C1300.44 2358.79 1299.84 2360.76 1298.27 2361.6C1238.53 2393.71 1201.42 2455.75 1201.42 2523.51C1201.42 2584.62 1231.7 2641.56 1282.41 2675.82C1283.89 2676.82 1284.29 2678.84 1283.28 2680.32C1282.66 2681.24 1281.63 2681.74 1280.59 2681.74Z" fill="white"/>
<g opacity="0.3">
<path d="M545.624 472.135C542.97 475.414 538.159 475.919 534.882 473.264C528.513 468.108 521.826 463.15 515.005 458.531C511.554 456.194 510.622 451.529 512.883 448.049C512.91 448.008 512.937 447.967 512.964 447.924C515.329 444.432 520.078 443.519 523.571 445.885C530.75 450.748 537.791 455.965 544.495 461.395C547.561 463.876 548.2 468.247 546.097 471.483C545.952 471.706 545.796 471.925 545.624 472.135ZM480.263 438.324C472.88 434.679 465.271 431.316 457.641 428.325C453.717 426.787 451.779 422.356 453.317 418.428C454.875 414.492 459.289 412.566 463.216 414.106C471.243 417.252 479.253 420.792 487.022 424.626C490.804 426.493 492.356 431.074 490.489 434.856C490.353 435.131 490.203 435.394 490.041 435.644C487.962 438.844 483.77 440.056 480.263 438.324ZM419.313 416.304C411.326 414.399 403.159 412.819 395.034 411.607C390.863 410.985 387.985 407.097 388.607 402.927C389.233 398.76 393.115 395.88 397.288 396.5C405.844 397.776 414.446 399.441 422.856 401.447C426.959 402.425 429.49 406.545 428.514 410.648C428.305 411.522 427.954 412.326 427.491 413.039C425.78 415.67 422.54 417.074 419.313 416.304ZM354.968 408.469C346.747 408.397 338.428 408.683 330.24 409.315C326.034 409.638 322.362 406.492 322.038 402.288C321.718 398.083 324.864 394.414 329.065 394.086C337.687 393.422 346.445 393.122 355.097 393.194C359.314 393.231 362.705 396.679 362.668 400.896C362.655 402.405 362.206 403.808 361.44 404.986C360.066 407.101 357.676 408.49 354.968 408.469ZM290.481 415.163C282.469 416.915 274.417 419.035 266.553 421.467C262.522 422.711 258.246 420.454 257 416.425C255.753 412.393 258.012 408.117 262.043 406.875C270.316 404.317 278.788 402.086 287.219 400.243C291.338 399.341 295.409 401.951 296.31 406.072C296.765 408.148 296.327 410.212 295.253 411.864C294.198 413.49 292.525 414.716 290.481 415.163ZM229.084 435.959C221.646 439.444 214.268 443.292 207.15 447.398C203.497 449.505 198.825 448.251 196.72 444.599C194.612 440.945 195.863 436.276 199.518 434.166C207.008 429.845 214.777 425.795 222.604 422.127C226.424 420.338 230.969 421.983 232.76 425.803C233.923 428.284 233.634 431.071 232.244 433.211C231.492 434.366 230.423 435.332 229.084 435.959ZM56.9613 661.351C52.7913 660.722 49.9193 656.831 50.5483 652.66C51.8383 644.117 53.5193 635.512 55.5443 627.091C56.5303 622.989 60.6543 620.464 64.7553 621.452C68.8543 622.436 71.3793 626.561 70.3943 630.661C68.4713 638.658 66.8763 646.827 65.6523 654.94C65.4843 656.053 65.0854 657.072 64.5084 657.959C62.9274 660.393 60.0193 661.813 56.9613 661.351ZM173.856 469.827C167.383 474.876 161.051 480.268 155.037 485.855C151.945 488.725 147.112 488.546 144.243 485.456C141.371 482.364 141.567 477.546 144.643 474.662C150.978 468.779 157.646 463.101 164.462 457.784C167.788 455.19 172.586 455.783 175.181 459.109C177.239 461.746 177.291 465.312 175.565 467.968C175.116 468.661 174.543 469.29 173.856 469.827ZM72.5863 596.65C68.6633 595.104 66.7363 590.668 68.2833 586.743C71.4533 578.707 75.0123 570.7 78.8563 562.945C80.7153 559.154 85.3133 557.624 89.0923 559.496C92.8703 561.369 94.4143 565.952 92.5413 569.732C88.8873 577.102 85.5043 584.711 82.4933 592.349C82.3013 592.836 82.0624 593.291 81.7874 593.714C79.8504 596.695 76.0213 598.005 72.5863 596.65ZM127.592 515.18C122.416 521.547 117.446 528.22 112.822 535.019C110.451 538.509 105.701 539.412 102.212 537.04C98.7713 534.699 97.8454 530.041 100.102 526.567C100.131 526.522 100.162 526.476 100.193 526.432C105.059 519.273 110.29 512.246 115.737 505.545C118.4 502.274 123.209 501.777 126.483 504.438C129.54 506.922 130.174 511.285 128.073 514.517C127.926 514.742 127.764 514.964 127.592 515.18Z" fill="#91B3FA"/>
<path d="M61.3383 711.492C62.1573 710.231 62.6153 708.716 62.5643 707.098C62.4393 703.162 62.3973 699.159 62.4323 695.197C62.4723 690.98 59.0833 687.528 54.8673 687.49C50.6493 687.449 47.1923 690.837 47.1603 695.057C47.1203 699.224 47.1673 703.434 47.2963 707.576C47.4283 711.791 50.9544 715.103 55.1674 714.97C57.7684 714.889 60.0223 713.518 61.3383 711.492Z" fill="#91B3FA"/>
</g>
<g opacity="0.3">
<path d="M158.943 922.883C160.951 919.792 160.478 915.616 157.657 913.064C154.736 910.424 151.821 907.678 148.996 904.903C145.986 901.947 141.151 901.991 138.196 905C135.229 908.022 135.285 912.846 138.293 915.801C141.269 918.722 144.338 921.615 147.412 924.395C150.541 927.223 155.37 926.98 158.199 923.852C158.478 923.545 158.725 923.22 158.943 922.883Z" fill="#91B3FA"/>
<path d="M599.346 877.14C596.878 880.56 592.104 881.332 588.682 878.861C585.263 876.392 584.497 871.626 586.962 868.199C591.662 861.689 596.157 854.876 600.379 847.876C602.534 844.274 607.252 843.103 610.864 845.281C614.476 847.459 615.638 852.153 613.461 855.765C611.632 858.798 609.76 861.789 607.846 864.735C605.112 868.939 602.254 873.113 599.346 877.14ZM622.449 822.738C618.578 821.069 616.791 816.576 618.46 812.704C621.663 805.267 624.59 797.616 627.153 789.96C628.478 785.961 632.819 783.803 636.82 785.142C640.817 786.48 642.975 790.809 641.636 794.807C638.938 802.868 635.86 810.923 632.486 818.748C632.311 819.154 632.105 819.538 631.872 819.895C629.881 822.957 625.918 824.233 622.449 822.738ZM572.733 909.135C566.865 915.28 560.653 921.258 554.268 926.902C551.108 929.696 546.281 929.398 543.486 926.237C540.694 923.077 540.995 918.255 544.151 915.457C550.216 910.098 556.114 904.423 561.685 898.587C564.599 895.537 569.433 895.425 572.485 898.338C575.183 900.915 575.58 904.996 573.618 908.015C573.363 908.407 573.068 908.784 572.733 909.135ZM643.196 760.612C639.051 759.835 636.319 755.843 637.099 751.698C638.591 743.752 639.759 735.647 640.575 727.609C640.999 723.409 644.744 720.355 648.943 720.781C653.139 721.206 656.195 724.951 655.77 729.147C654.912 737.612 653.681 746.147 652.111 754.515C651.92 755.526 651.541 756.454 651.013 757.267C649.377 759.784 646.329 761.2 643.196 760.612ZM521.29 952.236C514.218 956.937 506.846 961.4 499.377 965.503C495.681 967.534 491.04 966.185 489.008 962.489C486.974 958.791 488.326 954.148 492.023 952.117C499.117 948.219 506.12 943.98 512.835 939.515C516.348 937.18 521.089 938.135 523.424 941.648C525.164 944.266 525.076 947.564 523.467 950.04C522.916 950.889 522.185 951.642 521.29 952.236ZM461.641 983.01C453.694 986.059 445.525 988.807 437.362 991.18C433.31 992.356 429.074 990.028 427.896 985.977C426.718 981.921 429.047 977.685 433.099 976.513C440.855 974.258 448.618 971.646 456.171 968.751C460.109 967.24 464.526 969.209 466.037 973.147C466.946 975.52 466.593 978.068 465.306 980.047C464.458 981.352 463.205 982.41 461.641 983.01ZM396.701 1000.05C388.274 1001.3 379.7 1002.2 371.221 1002.74C367.01 1003.01 363.384 999.812 363.116 995.603C362.849 991.388 366.047 987.765 370.254 987.498C378.312 986.989 386.457 986.128 394.466 984.944C398.638 984.327 402.521 987.21 403.137 991.381C403.421 993.298 402.967 995.152 401.988 996.658C400.836 998.431 398.957 999.72 396.701 1000.05ZM329.59 1002.53C321.095 1001.9 312.529 1000.9 304.129 999.562C299.964 998.898 297.125 994.982 297.791 990.816C298.454 986.658 302.372 983.816 306.537 984.48C314.512 985.753 322.645 986.699 330.716 987.294C334.922 987.604 338.08 991.264 337.769 995.471C337.67 996.8 337.239 998.022 336.561 999.066C335.091 1001.32 332.469 1002.74 329.59 1002.53ZM263.541 990.184C255.413 987.707 247.284 984.849 239.376 981.689C235.459 980.123 233.552 975.679 235.118 971.762C236.68 967.858 241.126 965.939 245.043 967.505C252.555 970.508 260.276 973.222 267.997 975.576C272.03 976.804 274.304 981.073 273.074 985.107C272.86 985.809 272.555 986.46 272.173 987.046C270.366 989.827 266.873 991.2 263.541 990.184ZM201.879 963.669C196.431 960.584 191.009 957.292 185.769 953.886C183.87 952.652 181.993 951.402 180.131 950.134C176.647 947.76 175.648 943.007 178.121 939.524C180.494 936.037 185.245 935.136 188.733 937.511C190.501 938.715 192.288 939.907 194.092 941.079C199.075 944.317 204.225 947.445 209.406 950.379C213.076 952.456 214.366 957.117 212.288 960.787C212.209 960.924 212.128 961.06 212.043 961.192C209.859 964.55 205.41 965.67 201.879 963.669Z" fill="#91B3FA"/>
<path d="M655.882 691.778C656.709 690.505 657.166 688.975 657.108 687.345C656.958 683.213 656.717 679.006 656.393 674.841C656.066 670.635 652.392 667.491 648.188 667.819C643.983 668.148 640.837 671.816 641.166 676.024C641.473 679.981 641.701 683.977 641.845 687.9C641.996 692.113 645.537 695.407 649.753 695.254C652.336 695.159 654.573 693.791 655.882 691.778Z" fill="#91B3FA"/>
</g>
<path d="M560.09 602.527C559.624 601.077 558.292 600.081 556.769 600.048L513.336 599.093C502.902 581.693 489.619 565.833 473.724 552.296L479.922 509.326C480.139 507.819 479.376 506.34 478.022 505.643L431.689 481.797C430.335 481.099 428.687 481.339 427.588 482.391L396.222 512.409C375.968 507.341 355.341 505.748 335.118 507.37L309.1 472.581C308.188 471.362 306.602 470.855 305.152 471.32L255.528 487.221C254.078 487.686 253.082 489.019 253.049 490.542L252.095 533.974C234.695 544.407 218.834 557.69 205.298 573.587L162.328 567.389C160.82 567.171 159.341 567.934 158.645 569.288L134.798 615.621C134.101 616.975 134.341 618.622 135.393 619.722L165.411 651.089C160.342 671.343 158.75 691.97 160.373 712.193L125.583 738.211C124.364 739.123 123.856 740.708 124.322 742.159L140.223 791.783C140.687 793.233 142.022 794.228 143.543 794.262L186.977 795.216C197.41 812.616 210.693 828.476 226.589 842.013L220.391 884.984C220.173 886.491 220.936 887.971 222.29 888.667L268.624 912.513C269.978 913.21 271.625 912.971 272.725 911.918L304.092 881.901C324.346 886.969 344.973 888.561 365.196 886.94L391.214 921.729C392.125 922.949 393.711 923.455 395.162 922.99L444.786 907.089C446.236 906.624 447.231 905.291 447.265 903.769L448.219 860.336C465.619 849.903 481.479 836.62 495.016 820.724L537.986 826.922C539.492 827.139 540.972 826.377 541.669 825.022L565.515 778.689C566.212 777.335 565.973 775.688 564.92 774.588L534.903 743.222C539.971 722.968 541.562 702.341 539.941 682.118L574.731 656.099C575.951 655.187 576.457 653.601 575.992 652.152L560.09 602.527Z" fill="#91B3FA"/>
<path d="M389.445 731.795C370.344 753.458 337.182 755.546 315.515 736.444C305.019 727.192 298.756 714.405 297.879 700.442C297 686.481 301.61 673.01 310.866 662.516C329.967 640.852 363.13 638.765 384.796 657.867C404.505 675.245 408.01 704.261 394.098 725.67C392.719 727.792 391.167 729.842 389.445 731.795ZM310.074 699.676C310.748 710.383 315.549 720.185 323.597 727.28C340.206 741.923 365.636 740.325 380.28 723.715C394.934 707.105 393.325 681.676 376.714 667.03C360.105 652.387 334.675 653.985 320.031 670.595C318.703 672.102 317.503 673.686 316.429 675.339C311.763 682.521 309.528 690.975 310.074 699.676Z" fill="#BDD0FB"/>
<path d="M456.951 767.791C459.34 764.114 461.559 760.295 463.593 756.343C464.234 755.1 464.854 753.844 465.454 752.58C468.413 746.346 470.871 739.887 472.79 733.303C472.816 733.213 472.842 733.124 472.869 733.034C472.942 732.779 473.015 732.524 473.086 732.268C473.227 731.771 473.363 731.272 473.498 730.775C473.852 729.464 473.296 728.123 472.217 727.42C471.954 727.249 471.66 727.117 471.342 727.031C469.713 726.592 468.041 727.561 467.6 729.187C465.344 737.57 462.167 745.765 458.16 753.546C438.272 792.204 400.554 815.821 360.175 819.553C337.716 821.632 314.433 817.555 292.934 806.49C289.163 804.551 285.519 802.434 282.012 800.154C258.41 784.813 240.948 762.012 232.244 734.843C222.244 703.636 224.995 670.402 239.991 641.265C270.967 581.093 345.071 557.366 405.217 588.322C408.926 590.23 412.524 592.32 415.998 594.579C431.053 604.366 443.799 617.338 453.275 632.609C453.52 633.003 453.839 633.323 454.205 633.559C455.166 634.183 456.442 634.239 457.48 633.593C458.912 632.698 459.359 630.822 458.464 629.385C448.515 613.353 435.133 599.731 419.329 589.457C415.683 587.086 411.906 584.893 408.015 582.889C344.867 550.388 267.048 575.342 234.559 638.467C218.815 669.056 215.929 703.944 226.427 736.705C235.564 765.227 253.897 789.164 278.673 805.27C282.355 807.663 286.181 809.884 290.137 811.921C320.728 827.664 355.616 830.553 388.377 820.056C416.905 810.916 440.846 792.575 456.951 767.791Z" fill="#BDD0FB"/>
<g opacity="0.3">
<path d="M856.86 362.62C857.972 360.909 857.88 358.608 856.482 356.98C853.875 353.941 851.141 350.938 848.354 348.058C846.543 346.186 843.56 346.137 841.684 347.948C839.802 349.755 839.764 352.746 841.574 354.618C844.23 357.362 846.836 360.224 849.325 363.124C851.018 365.1 853.996 365.327 855.976 363.633C856.326 363.331 856.62 362.989 856.86 362.62Z" fill="#91B3FA"/>
<path d="M830.524 337.758C828.888 339.785 825.922 340.107 823.892 338.471C818.77 334.349 813.377 330.441 807.866 326.859C806.704 326.104 805.528 325.359 804.341 324.624C802.13 323.25 801.447 320.343 802.82 318.129C804.202 316.088 807.102 315.236 809.319 316.608C810.56 317.379 811.789 318.158 813.006 318.949C818.784 322.704 824.438 326.801 829.808 331.126C831.709 332.655 832.11 335.36 830.808 337.365C830.722 337.498 830.625 337.628 830.524 337.758ZM783.253 313.257C776.018 309.91 768.513 306.979 760.943 304.552C758.461 303.755 757.098 301.103 757.893 298.62C758.688 296.153 761.344 294.772 763.825 295.569C771.758 298.113 779.629 301.183 787.214 304.695C789.579 305.789 790.608 308.593 789.516 310.959C789.42 311.166 789.306 311.364 789.185 311.552C787.927 313.487 785.408 314.254 783.253 313.257ZM737.72 298.673C729.898 297.202 721.902 296.208 713.948 295.717C711.35 295.556 709.371 293.317 709.533 290.719C709.695 288.111 711.926 286.139 714.53 286.3C722.87 286.814 731.26 287.86 739.461 289.399C742.021 289.881 743.709 292.347 743.227 294.906C743.107 295.529 742.874 296.102 742.548 296.604C741.537 298.16 739.655 299.035 737.72 298.673ZM689.992 295.722C682.036 296.215 674.036 297.207 666.227 298.673C663.663 299.152 661.199 297.466 660.721 294.906C660.244 292.352 661.926 289.882 664.486 289.4C672.681 287.864 681.063 286.824 689.409 286.306C692.008 286.144 694.248 288.124 694.41 290.724C694.471 291.772 694.191 292.762 693.659 293.581C692.872 294.791 691.543 295.626 689.992 295.722ZM642.992 304.512C635.398 306.924 627.884 309.829 620.653 313.145C618.288 314.231 615.488 313.191 614.401 310.823C613.314 308.455 614.348 305.653 616.722 304.57C624.299 301.094 632.176 298.05 640.133 295.519C642.616 294.733 645.268 296.104 646.056 298.585C646.502 299.987 646.259 301.444 645.516 302.588C644.943 303.47 644.072 304.168 642.992 304.512ZM599.549 324.446C592.777 328.629 586.204 333.273 580.011 338.256C577.983 339.888 575.012 339.567 573.381 337.537C571.75 335.507 572.069 332.548 574.099 330.903C580.592 325.679 587.488 320.806 594.592 316.418C596.809 315.052 599.716 315.737 601.084 317.952C602.074 319.557 601.989 321.523 601.026 323.004C600.657 323.57 600.163 324.067 599.549 324.446ZM562.315 354.386C556.794 360.085 551.557 366.207 546.752 372.586C545.182 374.664 542.226 375.08 540.147 373.512C538.067 371.946 537.68 369.014 539.216 366.904C544.257 360.22 549.748 353.801 555.539 347.823C557.353 345.953 560.339 345.905 562.211 347.717C563.856 349.311 564.089 351.816 562.884 353.67C562.721 353.922 562.532 354.162 562.315 354.386ZM516.687 416.52C514.287 415.505 513.166 412.739 514.182 410.339C516.993 403.698 520.218 397.097 523.752 390.735C524.284 389.765 524.827 388.809 525.377 387.853C526.607 385.571 529.566 384.823 531.824 386.134C534.08 387.438 534.849 390.321 533.546 392.579C533.026 393.472 532.517 394.374 532.009 395.299C528.624 401.387 525.549 407.683 522.867 414.016C522.757 414.277 522.624 414.524 522.476 414.751C521.254 416.634 518.824 417.425 516.687 416.52Z" fill="#91B3FA"/>
</g>
<g opacity="0.3">
<path d="M871.099 603.051C866.531 609.886 861.503 616.498 856.163 622.713C854.464 624.685 851.487 624.913 849.51 623.213C847.532 621.513 847.34 618.537 849.01 616.56C854.106 610.637 858.899 604.327 863.257 597.806C864.703 595.639 867.635 595.059 869.799 596.506C871.947 597.943 872.538 600.838 871.135 602.997C871.123 603.014 871.11 603.033 871.099 603.051ZM877.229 583.794C874.907 582.617 873.978 579.778 875.156 577.456C878.699 570.466 881.855 563.192 884.533 555.832C885.426 553.401 888.131 552.122 890.581 553.017C893.029 553.908 894.288 556.612 893.399 559.061C890.591 566.773 887.284 574.397 883.569 581.72C883.49 581.875 883.407 582.021 883.314 582.164C882.019 584.157 879.402 584.896 877.229 583.794ZM838.933 640.426C832.845 645.957 826.368 651.164 819.681 655.899C817.555 657.404 814.608 656.901 813.105 654.776C811.597 652.65 812.101 649.718 814.225 648.2C820.605 643.683 826.782 638.718 832.593 633.444C834.522 631.693 837.505 631.837 839.253 633.762C840.726 635.384 840.859 637.75 839.719 639.503C839.504 639.835 839.242 640.146 838.933 640.426ZM894.758 538.898C892.22 538.314 890.637 535.78 891.22 533.242C892.979 525.607 894.285 517.789 895.1 510.001C895.375 507.414 897.696 505.533 900.28 505.8C902.872 506.072 904.754 508.392 904.482 510.983C903.63 519.15 902.261 527.353 900.414 535.36C900.285 535.914 900.065 536.421 899.773 536.871C898.723 538.486 896.741 539.355 894.758 538.898ZM798.702 668.91C791.479 672.806 783.941 676.298 776.296 679.296C773.871 680.247 771.133 679.05 770.182 676.624C769.231 674.198 770.422 671.46 772.853 670.51C780.147 667.655 787.334 664.322 794.222 660.604C796.514 659.368 799.376 660.223 800.613 662.519C801.461 664.089 801.324 665.931 800.414 667.331C799.999 667.97 799.422 668.521 798.702 668.91ZM752.806 686.913C744.844 688.969 736.686 690.559 728.561 691.641C725.98 691.985 723.609 690.173 723.266 687.59C722.92 685.011 724.734 682.635 727.319 682.291C735.066 681.258 742.848 679.739 750.447 677.777C752.969 677.125 755.542 678.643 756.194 681.165C756.537 682.497 756.277 683.845 755.58 684.917C754.96 685.872 753.994 686.606 752.806 686.913ZM703.915 693.411C695.687 693.503 687.381 693.088 679.234 692.183C676.642 691.894 674.779 689.563 675.067 686.973C675.353 684.385 677.69 682.522 680.274 682.806C688.045 683.672 695.963 684.066 703.807 683.975C706.413 683.946 708.549 686.035 708.576 688.64C708.59 689.607 708.308 690.506 707.818 691.259C706.988 692.537 705.555 693.391 703.915 693.411Z" fill="#91B3FA"/>
<path d="M904.794 488.727C905.29 487.964 905.57 487.05 905.552 486.072C905.478 482.035 905.282 477.983 904.975 474.026C904.772 471.43 902.503 469.486 899.905 469.687C897.314 469.896 895.37 472.16 895.567 474.757C895.862 478.53 896.047 482.397 896.12 486.249C896.168 488.854 898.321 490.926 900.924 490.876C902.549 490.845 903.969 489.996 904.794 488.727Z" fill="#91B3FA"/>
</g>
<path d="M840.923 425.606C840.611 424.636 839.72 423.969 838.701 423.947L809.638 423.308C802.656 411.665 793.768 401.052 783.131 391.994L787.278 363.24C787.423 362.231 786.913 361.242 786.007 360.775L755.003 344.819C754.097 344.352 752.994 344.512 752.259 345.216L731.27 365.303C717.717 361.911 703.914 360.846 690.382 361.931L672.971 338.652C672.361 337.836 671.3 337.497 670.329 337.808L637.123 348.448C636.153 348.759 635.486 349.651 635.464 350.67L634.826 379.733C623.183 386.714 612.569 395.603 603.511 406.24L574.757 402.092C573.748 401.947 572.759 402.457 572.292 403.363L556.335 434.367C555.869 435.273 556.029 436.375 556.733 437.111L576.82 458.1C573.428 471.653 572.363 485.456 573.449 498.988L550.169 516.398C549.353 517.008 549.014 518.069 549.325 519.039L559.965 552.246C560.276 553.216 561.168 553.882 562.186 553.905L591.25 554.544C598.231 566.187 607.12 576.8 617.757 585.858L613.61 614.613C613.464 615.621 613.974 616.611 614.881 617.077L645.885 633.033C646.791 633.499 647.893 633.339 648.629 632.635L669.618 612.548C683.171 615.94 696.974 617.005 710.506 615.919L727.916 639.199C728.526 640.015 729.587 640.354 730.558 640.043L763.764 629.403C764.735 629.092 765.401 628.2 765.424 627.181L766.062 598.118C777.705 591.137 788.318 582.248 797.376 571.611L826.13 575.759C827.138 575.904 828.128 575.394 828.595 574.488L844.551 543.484C845.017 542.578 844.858 541.476 844.153 540.74L824.067 519.751C827.459 506.198 828.523 492.395 827.438 478.863L850.718 461.452C851.534 460.842 851.873 459.781 851.562 458.811L840.923 425.606Z" fill="#91B3FA"/>
<path d="M727.208 512.519C720.906 519.672 712.195 523.938 702.683 524.535C693.174 525.135 683.998 521.993 676.849 515.689C662.093 502.68 660.679 480.128 673.681 465.328C686.697 450.574 709.285 449.154 724.037 462.162C731.187 468.464 735.454 477.173 736.053 486.684C736.539 494.416 734.553 501.926 730.407 508.306C729.454 509.774 728.385 511.183 727.208 512.519ZM683.085 508.612C688.345 513.25 695.094 515.561 702.093 515.121C709.087 514.681 715.495 511.541 720.131 506.283C724.761 501.018 727.077 494.275 726.637 487.276C726.2 480.282 723.057 473.875 717.801 469.24C706.946 459.67 690.331 460.714 680.757 471.566C679.895 472.547 679.118 473.572 678.427 474.636C671.455 485.365 673.212 499.907 683.085 508.612Z" fill="#BDD0FB"/>
<path d="M774.193 537.57C775.819 535.067 777.332 532.462 778.729 529.755C781.499 524.377 783.723 518.712 785.345 512.902C785.416 512.64 785.487 512.379 785.558 512.117C786.104 510.093 785.247 508.023 783.579 506.936C783.174 506.673 782.72 506.468 782.229 506.335C779.714 505.657 777.134 507.156 776.45 509.664C774.987 515.103 772.93 520.407 770.34 525.432L770.339 525.434C770.198 525.71 770.051 525.986 769.908 526.258C763.672 538.095 754.721 547.93 743.873 555.155C737.984 559.077 731.531 562.228 724.64 564.504C724.584 564.523 724.528 564.541 724.472 564.56C724.298 564.615 724.129 564.673 723.957 564.726C703.754 571.198 682.239 569.418 663.377 559.709C660.935 558.454 658.578 557.085 656.307 555.609C641.028 545.678 629.724 530.915 624.086 513.326C617.614 493.123 619.398 471.61 629.105 452.75C638.814 433.904 655.286 419.935 675.487 413.458C695.69 406.986 717.205 408.766 736.067 418.475C738.468 419.708 740.797 421.063 743.044 422.523C752.792 428.86 761.042 437.256 767.176 447.142C767.555 447.751 768.047 448.244 768.612 448.609C770.095 449.573 772.067 449.659 773.67 448.663C775.88 447.283 776.566 444.384 775.19 442.165C768.326 431.104 759.094 421.707 748.193 414.618C745.675 412.982 743.071 411.468 740.387 410.086C719.281 399.224 695.211 397.232 672.607 404.475C650.007 411.719 631.569 427.309 620.717 448.431C609.854 469.534 607.86 493.602 615.107 516.206C621.41 535.884 634.058 552.399 651.152 563.51C653.69 565.159 656.329 566.693 659.058 568.098C699.917 589.125 749.673 575.302 774.193 537.57Z" fill="#BDD0FB"/>
<path d="M1812.17 857.776L1675 998.092L1839.54 954.139L1812.17 857.776Z" fill="#91B3FA"/>
<path d="M2628.37 915.856L1848.95 953.682C1828.93 954.654 1812.17 938.686 1812.17 918.646V597.992C1812.17 563.14 1839.85 534.588 1874.69 533.51L2577.14 511.773C2629.46 511.773 2671.86 554.179 2671.86 606.49V870.197C2671.86 894.582 2652.72 914.674 2628.37 915.856Z" fill="#91B3FA"/>
<path opacity="0.85" d="M1872.26 940.806C1859.84 940.806 1848.13 936.125 1839.07 927.487C1829.45 918.303 1824.14 905.917 1824.14 892.611V603.609C1824.14 569.55 1851.45 542.047 1886.31 540.994L2566.45 520.456C2618 520.456 2659.89 561.361 2659.89 611.639V860.802C2659.89 884.779 2640.69 904.469 2616.17 905.629L1874.61 940.751C1873.83 940.786 1873.04 940.806 1872.26 940.806ZM2566.5 523.834L1886.41 544.372C1853.39 545.369 1827.52 571.389 1827.52 603.608V892.61C1827.52 904.984 1832.45 916.5 1841.41 925.04C1850.36 933.579 1862.08 937.975 1874.45 937.373L2616.01 902.251C2638.72 901.177 2656.51 882.97 2656.51 860.8V611.637C2656.51 563.223 2616.13 523.834 2566.5 523.834Z" fill="white"/>
<path d="M2564.22 582.295L1940.99 605.62C1934.87 605.849 1930.05 609.906 1930.25 614.658L1930.49 620.136C1930.69 624.839 1935.73 628.453 1941.79 628.231L2565.05 605.472C2571.17 605.248 2576 601.19 2575.8 596.434L2575.54 590.389C2575.34 585.684 2570.28 582.069 2564.22 582.295Z" fill="url(#paint5_linear_76_7)"/>
<path d="M2508.45 740.077L1885.21 763.284C1879.09 763.512 1874.28 767.706 1874.49 772.629L1874.73 778.303C1874.94 783.174 1879.99 786.925 1886.05 786.705L2509.31 764.085C2515.44 763.863 2520.26 759.667 2520.05 754.74L2519.78 748.479C2519.57 743.603 2514.51 739.851 2508.45 740.077Z" fill="url(#paint6_linear_76_7)"/>
<path d="M2581.26 806.081L1886.49 832.313C1879.66 832.571 1874.28 836.828 1874.49 841.799L1874.74 847.529C1874.95 852.448 1880.56 856.213 1887.31 855.964L2582.12 830.324C2588.94 830.072 2594.34 825.812 2594.12 820.837L2593.85 814.514C2593.64 809.594 2588.02 805.826 2581.26 806.081Z" fill="url(#paint7_linear_76_7)"/>
<path d="M2222.52 675.319L1882.83 685.221C1879.5 685.318 1877 689.897 1877.27 695.422L1877.59 701.791C1877.86 707.258 1880.74 711.595 1884.04 711.505L2223.76 702.261C2227.1 702.17 2229.6 697.59 2229.33 692.06L2228.98 685.033C2228.71 679.561 2225.82 675.223 2222.52 675.319Z" fill="url(#paint8_linear_76_7)"/>
<path d="M2596.81 663.579L2275.74 672.783C2272.59 672.873 2270.24 677.445 2270.52 682.97L2270.84 689.34C2271.11 694.807 2273.84 699.148 2276.96 699.065L2598.07 690.52C2601.23 690.436 2603.57 685.861 2603.3 680.332L2602.95 673.304C2602.67 667.832 2599.93 663.489 2596.81 663.579Z" fill="url(#paint9_linear_76_7)"/>
<path d="M628.708 2684.45C628.708 2684.45 622.283 2720.82 619.133 2756.82C617.902 2770.89 628.75 2783.11 642.863 2783.7C690.807 2785.7 793.364 2789.58 830.165 2787.94C835.697 2787.69 839.315 2782.03 837.267 2776.88C835.551 2772.57 832.242 2769.08 828.026 2767.15L658.622 2689.29L628.708 2684.45Z" fill="url(#paint10_linear_76_7)"/>
<path d="M623.444 2663.08L628.606 2706.58C628.606 2706.58 658.281 2720.4 678.547 2704.84L666.258 2656.36L623.444 2663.08Z" fill="url(#paint11_linear_76_7)"/>
<path d="M627.325 1845.2C625.095 1856.56 615.358 2412.12 674.743 2661.09C675.712 2665.16 673.652 2669.34 669.786 2670.92C660.678 2674.64 642.821 2680.03 621.421 2680.75C614.794 2680.97 608.852 2676.67 606.982 2670.31C590.007 2612.54 508.665 2323.12 498.053 2046.65C486.196 1737.72 498.053 2036.13 498.053 2036.13L505.007 1845.17L627.325 1845.2Z" fill="url(#paint12_linear_76_7)"/>
<path d="M433.838 2703.42C433.838 2703.42 423.612 2721.78 413.71 2770.57C411.923 2779.39 418.079 2787.82 427.027 2788.7C442.858 2790.26 467.23 2792.26 486.752 2792.12C495.752 2792.06 502.775 2784.23 501.691 2775.29C499.529 2757.48 492.792 2728.26 471.98 2705.49L433.838 2703.42Z" fill="url(#paint13_linear_76_7)"/>
<path d="M424.854 2647.47L436.916 2713.26C436.916 2713.26 448.841 2722.13 472.431 2715.7L466.674 2644.91L424.854 2647.47Z" fill="url(#paint14_linear_76_7)"/>
<path d="M392.274 1862.25C343.704 2155.37 402.81 2586.72 422.743 2671.15C423.963 2676.31 428.135 2680.28 433.374 2681.14C442.272 2682.62 456.921 2683.82 471.363 2679.63C476.339 2678.18 479.835 2673.7 480.037 2668.52C482.711 2600.26 477.898 2181.24 523.154 2015.63C525.447 2007.24 530.572 1999.92 537.663 1994.88L625.502 1932.44L632.236 1831.5L392.274 1862.25Z" fill="url(#paint15_linear_76_7)"/>
<path d="M701.76 1306.84C556.206 1304.43 395.603 1345.06 395.603 1345.06C352.216 1598.22 388.016 1890.22 388.016 1890.22C500.7 1919.77 627.815 1872.15 627.815 1872.15C646.544 1766.33 733.928 1468.54 733.928 1468.54C805.045 1459.71 863.631 1439.19 911.876 1412.06C875.075 1369.41 857.726 1315.13 850.191 1283.04C798.729 1299.04 746.655 1307.58 701.76 1306.84Z" fill="url(#paint16_linear_76_7)"/>
<path d="M1131.7 1092.44C1117.4 1075.17 1099.31 1083.34 1099.31 1083.34C1077.89 1173.82 965.576 1247.18 850.192 1283.04C857.727 1315.13 875.076 1369.41 911.877 1412.07C1103.37 1304.4 1131.7 1092.44 1131.7 1092.44Z" fill="url(#paint17_linear_76_7)"/>
<path d="M1128.23 1096.83C1129.73 1101.59 1112.4 1108.83 1102.2 1089.38C1101.84 1080.06 1096.18 1040.12 1101.75 1032.52C1131.42 992.07 1188.94 941.363 1188.94 941.363C1198.66 950.956 1190.65 960.379 1190.65 960.379L1162.75 989.449C1168.58 999.997 1175.7 1008.9 1179.04 1021.66C1181.57 1031.32 1180.02 1041.65 1175.14 1050.44C1170.24 1059.26 1163.56 1070.74 1157.24 1079.71C1145.28 1096.71 1128.23 1096.83 1128.23 1096.83Z" fill="url(#paint18_linear_76_7)"/>
<path d="M1150.54 1008.31L1125.11 1029.87L1117.13 1051.33L1139.8 1076.49C1139.8 1076.49 1147.42 1033.9 1153.09 1024.68C1158.76 1015.47 1155.82 1011.01 1150.54 1008.31Z" fill="url(#paint19_linear_76_7)"/>
<path d="M451.432 1485.99L395.603 1345.05C395.603 1345.05 259.647 1437.43 237.288 1554.55C262.977 1556.45 309.722 1563.13 355.477 1586.23C365.533 1530.93 451.432 1485.99 451.432 1485.99Z" fill="url(#paint20_linear_76_7)"/>
<path d="M570.242 1618.61C570.242 1618.61 417.598 1704.88 366.093 1631.22C355.4 1615.92 352.843 1600.72 355.478 1586.23C309.723 1563.13 262.977 1556.45 237.289 1554.55C230.548 1589.86 234.113 1627.42 254.861 1665.37C345.079 1830.41 590.444 1656.25 590.444 1656.25L570.242 1618.61Z" fill="url(#paint21_linear_76_7)"/>
<path d="M551.903 1727.75L635.211 1436.82C636.156 1433.52 638.973 1431.11 642.386 1430.71C657.48 1428.95 701.214 1424.01 751.712 1419.74C812.539 1414.59 883.177 1410.42 925.388 1413.97C931.389 1414.47 935.015 1420.82 932.346 1426.22C908.342 1474.78 809.607 1672.32 760.164 1737.03C758.525 1739.18 755.992 1740.43 753.294 1740.4L560.007 1738.61C554.382 1738.55 550.354 1733.16 551.903 1727.75Z" fill="#91B3FA"/>
<path d="M760.355 1394.51L820.754 1384.45C823.971 1383.91 826.606 1386.99 825.583 1390.08L819.604 1408.2C819.083 1409.78 817.708 1410.92 816.062 1411.14L757.939 1418.9C754.933 1419.31 752.453 1416.57 753.144 1413.62L756.845 1397.8C757.244 1396.1 758.629 1394.8 760.355 1394.51Z" fill="#BDD0FB"/>
<path d="M715.128 1445.65L720.104 1419.73C720.603 1417.13 722.75 1415.17 725.382 1414.9L847.375 1402.52C851.481 1402.1 854.769 1405.87 853.806 1409.88L846.049 1442.17C845.428 1444.76 843.179 1446.62 840.525 1446.76L721.313 1452.76C717.433 1452.96 714.396 1449.46 715.128 1445.65Z" fill="#BDD0FB"/>
<path d="M572.029 1657.46C572.029 1657.46 560.425 1609.74 565.105 1592.81C569.787 1575.88 578.856 1554.12 609.087 1558.95C639.319 1563.79 674.98 1576.53 674.98 1576.53C674.98 1576.53 673.179 1598.58 650.202 1591.46L664.45 1602.49C664.45 1602.49 662.414 1620.14 643.006 1610.71L656.258 1625.33C656.258 1625.33 647.923 1639.83 633.644 1630.53C619.367 1621.23 612.522 1663.21 572.029 1657.46Z" fill="url(#paint22_linear_76_7)"/>
<path d="M554.327 1188.67L508.014 1322.6C507.247 1324.82 508.159 1327.28 510.213 1328.42C522.837 1335.4 568.321 1355.57 623.133 1320.82C628.843 1317.2 632.73 1311.3 633.597 1304.59L648.595 1188.67H554.327V1188.67Z" fill="url(#paint23_linear_76_7)"/>
<path d="M655.096 1064.64C655.096 1064.64 705.953 1160.37 699.434 1199.05C692.915 1237.72 629.886 1234.94 574.847 1203.53L536.387 1100.16L655.096 1064.64Z" fill="url(#paint24_linear_76_7)"/>
<path d="M577.28 1152.77C579.516 1151.78 580.342 1149.04 579.002 1146.99C574.927 1140.77 567.289 1128.07 564.853 1116.95C564.853 1116.95 555.711 1111.1 588.123 1103.34C620.535 1095.58 668.869 1083.54 679.029 1055.95C688.935 1029.05 662.909 961.407 621.387 1015.31C619.808 1017.36 616.713 1017.4 615.135 1015.35C608.328 1006.49 590.433 988.102 565.588 999.249C542.338 1009.68 539.72 1026.72 540.039 1035.31C540.132 1037.83 537.874 1039.8 535.391 1039.32C523.636 1037.08 495.427 1035.16 482.261 1064.09C471.415 1087.93 478.465 1101.42 484.884 1108.02C486.965 1110.16 486.053 1113.68 483.2 1114.55C475.475 1116.92 465.499 1123.47 466.497 1141.57C467.878 1166.59 495.854 1164.39 503.819 1163.25C505.125 1163.06 506.44 1163.51 507.324 1164.48C514.153 1172.04 544.925 1204.13 578.229 1208C581.113 1208.34 583.348 1205.49 582.404 1202.74L567.991 1160.85C567.322 1158.9 568.253 1156.77 570.134 1155.93L577.28 1152.77Z" fill="url(#paint25_linear_76_7)"/>
<path d="M583.074 1158.71C583.074 1158.71 546.864 1133.87 544.218 1154.79C541.573 1175.71 576.826 1185.1 594.287 1177.3L583.074 1158.71Z" fill="url(#paint26_linear_76_7)"/>
<defs>
<linearGradient id="paint0_linear_76_7" x1="3115.45" y1="3617.52" x2="650.786" y2="556.564" gradientUnits="userSpaceOnUse">
<stop stop-color="#DAE3FE"/>
<stop offset="1" stop-color="#E9EFFD"/>
</linearGradient>
<linearGradient id="paint1_linear_76_7" x1="4892.91" y1="-1898.27" x2="-257.711" y2="2491.92" gradientUnits="userSpaceOnUse">
<stop stop-color="#E1473D"/>
<stop offset="1" stop-color="#E9605A"/>
</linearGradient>
<linearGradient id="paint2_linear_76_7" x1="5644.14" y1="-1016.92" x2="493.511" y2="3373.28" gradientUnits="userSpaceOnUse">
<stop stop-color="#E1473D"/>
<stop offset="1" stop-color="#E9605A"/>
</linearGradient>
<linearGradient id="paint3_linear_76_7" x1="84.5812" y1="2280.67" x2="4555.89" y2="-2454.26" gradientUnits="userSpaceOnUse">
<stop stop-color="#FF928E"/>
<stop offset="1" stop-color="#FE7062"/>
</linearGradient>
<linearGradient id="paint4_linear_76_7" x1="1902.81" y1="1951.44" x2="889.063" y2="3071.63" gradientUnits="userSpaceOnUse">
<stop stop-color="#FF928E"/>
<stop offset="1" stop-color="#FE7062"/>
</linearGradient>
<linearGradient id="paint5_linear_76_7" x1="1930.25" y1="605.264" x2="2575.8" y2="605.264" gradientUnits="userSpaceOnUse">
<stop stop-color="#DAE3FE"/>
<stop offset="1" stop-color="#E9EFFD"/>
</linearGradient>
<linearGradient id="paint6_linear_76_7" x1="1874.48" y1="763.39" x2="2520.05" y2="763.39" gradientUnits="userSpaceOnUse">
<stop stop-color="#DAE3FE"/>
<stop offset="1" stop-color="#E9EFFD"/>
</linearGradient>
<linearGradient id="paint7_linear_76_7" x1="1874.49" y1="831.023" x2="2594.13" y2="831.023" gradientUnits="userSpaceOnUse">
<stop stop-color="#DAE3FE"/>
<stop offset="1" stop-color="#E9EFFD"/>
</linearGradient>
<linearGradient id="paint8_linear_76_7" x1="1877.25" y1="693.411" x2="2229.35" y2="693.411" gradientUnits="userSpaceOnUse">
<stop stop-color="#DAE3FE"/>
<stop offset="1" stop-color="#E9EFFD"/>
</linearGradient>
<linearGradient id="paint9_linear_76_7" x1="2270.5" y1="681.322" x2="2603.32" y2="681.322" gradientUnits="userSpaceOnUse">
<stop stop-color="#DAE3FE"/>
<stop offset="1" stop-color="#E9EFFD"/>
</linearGradient>
<linearGradient id="paint10_linear_76_7" x1="824.803" y1="2634.18" x2="204.449" y2="3308.95" gradientUnits="userSpaceOnUse">
<stop stop-color="#09005D"/>
<stop offset="1" stop-color="#1A0F91"/>
</linearGradient>
<linearGradient id="paint11_linear_76_7" x1="623.445" y1="2684.3" x2="678.548" y2="2684.3" gradientUnits="userSpaceOnUse">
<stop stop-color="#FEBBBA"/>
<stop offset="1" stop-color="#FF928E"/>
</linearGradient>
<linearGradient id="paint12_linear_76_7" x1="873.649" y1="1871.09" x2="345.789" y2="2586.54" gradientUnits="userSpaceOnUse">
<stop stop-color="#09005D"/>
<stop offset="1" stop-color="#1A0F91"/>
</linearGradient>
<linearGradient id="paint13_linear_76_7" x1="685.636" y1="2506.24" x2="65.284" y2="3181.01" gradientUnits="userSpaceOnUse">
<stop stop-color="#09005D"/>
<stop offset="1" stop-color="#1A0F91"/>
</linearGradient>
<linearGradient id="paint14_linear_76_7" x1="424.855" y1="2681.47" x2="472.431" y2="2681.47" gradientUnits="userSpaceOnUse">
<stop stop-color="#FEBBBA"/>
<stop offset="1" stop-color="#FF928E"/>
</linearGradient>
<linearGradient id="paint15_linear_76_7" x1="779.571" y1="1801.68" x2="251.711" y2="2517.13" gradientUnits="userSpaceOnUse">
<stop stop-color="#09005D"/>
<stop offset="1" stop-color="#1A0F91"/>
</linearGradient>
<linearGradient id="paint16_linear_76_7" x1="592.924" y1="1483.34" x2="1434.46" y2="33.4605" gradientUnits="userSpaceOnUse">
<stop stop-color="#4F52FF"/>
<stop offset="1" stop-color="#4042E2"/>
</linearGradient>
<linearGradient id="paint17_linear_76_7" x1="1088.29" y1="918.749" x2="991.071" y2="1196.53" gradientUnits="userSpaceOnUse">
<stop stop-color="#FEBBBA"/>
<stop offset="1" stop-color="#FF928E"/>
</linearGradient>
<linearGradient id="paint18_linear_76_7" x1="1171.39" y1="947.833" x2="1074.17" y2="1225.61" gradientUnits="userSpaceOnUse">
<stop stop-color="#FEBBBA"/>
<stop offset="1" stop-color="#FF928E"/>
</linearGradient>
<linearGradient id="paint19_linear_76_7" x1="1096.7" y1="1125.3" x2="1169.94" y2="977.576" gradientUnits="userSpaceOnUse">
<stop stop-color="#FEBBBA"/>
<stop offset="1" stop-color="#FF928E"/>
</linearGradient>
<linearGradient id="paint20_linear_76_7" x1="417.881" y1="1381.74" x2="1259.42" y2="-68.1371" gradientUnits="userSpaceOnUse">
<stop stop-color="#4F52FF"/>
<stop offset="1" stop-color="#4042E2"/>
</linearGradient>
<linearGradient id="paint21_linear_76_7" x1="234.19" y1="1645.49" x2="590.444" y2="1645.49" gradientUnits="userSpaceOnUse">
<stop stop-color="#FEBBBA"/>
<stop offset="1" stop-color="#FF928E"/>
</linearGradient>
<linearGradient id="paint22_linear_76_7" x1="563.993" y1="1608.14" x2="674.98" y2="1608.14" gradientUnits="userSpaceOnUse">
<stop stop-color="#FEBBBA"/>
<stop offset="1" stop-color="#FF928E"/>
</linearGradient>
<linearGradient id="paint23_linear_76_7" x1="507.744" y1="1264.63" x2="648.594" y2="1264.63" gradientUnits="userSpaceOnUse">
<stop stop-color="#FEBBBA"/>
<stop offset="1" stop-color="#FF928E"/>
</linearGradient>
<linearGradient id="paint24_linear_76_7" x1="682.093" y1="1175.03" x2="527.227" y2="1080.57" gradientUnits="userSpaceOnUse">
<stop stop-color="#FEBBBA"/>
<stop offset="1" stop-color="#FF928E"/>
</linearGradient>
<linearGradient id="paint25_linear_76_7" x1="445.251" y1="981.003" x2="645.32" y2="1139.02" gradientUnits="userSpaceOnUse">
<stop stop-color="#09005D"/>
<stop offset="1" stop-color="#1A0F91"/>
</linearGradient>
<linearGradient id="paint26_linear_76_7" x1="641.417" y1="1210.25" x2="502.081" y2="1125.27" gradientUnits="userSpaceOnUse">
<stop stop-color="#FEBBBA"/>
<stop offset="1" stop-color="#FF928E"/>
</linearGradient>
</defs>
</svg>
