<svg width="1000" height="667" viewBox="0 0 1000 667" fill="none" xmlns="http://www.w3.org/2000/svg">
<path d="M873.632 587.612C873.632 587.612 842.742 573.875 828.784 538.471C828.784 538.471 848.868 543.236 870.315 564.684C870.315 564.684 866.911 542.896 869.635 530.642C869.635 530.642 881.55 553.196 882.911 570.404C882.911 570.404 892.443 557.535 902.996 549.364C902.996 549.364 900.954 572.753 889.72 587.612" fill="#B8BEE5"/>
<path d="M289.654 428.146C252.889 471.011 249.052 537.588 249.052 537.588C242.49 504.707 220.669 465.01 220.669 465.01C217.566 495.982 229.593 545.472 229.593 545.472C197.654 488.343 151.442 470.386 151.442 470.386C157.158 496.724 165.673 517.802 174.792 534.414C152.718 521.758 134.59 519.359 134.59 519.359C144.974 551.546 181.74 571.471 181.74 571.471C123.867 546.886 117.229 587.612 117.229 587.612H289.654C312.122 501.946 289.654 428.146 289.654 428.146Z" fill="#B8BEE5"/>
<path d="M589.811 461.681H451.966C438.434 461.681 427.463 450.711 427.463 437.179V124.699C427.463 111.167 438.434 100.198 451.966 100.198H589.811C603.343 100.198 614.312 111.167 614.312 124.699V437.179C614.312 450.711 603.343 461.681 589.811 461.681Z" fill="#100F0D"/>
<path d="M589.811 461.681H451.966C438.434 461.681 427.463 450.711 427.463 437.179V124.699C427.463 111.167 438.434 100.198 451.966 100.198H589.811C603.343 100.198 614.312 111.167 614.312 124.699V437.179C614.312 450.711 603.343 461.681 589.811 461.681Z" fill="#100F0D"/>
<path d="M451.964 453.429C443.005 453.429 435.715 446.139 435.715 437.179V124.701C435.715 115.739 443.005 108.45 451.964 108.45H589.811C598.771 108.45 606.06 115.739 606.06 124.701V437.179C606.06 446.139 598.771 453.429 589.811 453.429H451.964Z" fill="white"/>
<path d="M427.462 192.897H426.834C425.6 192.897 424.6 191.896 424.6 190.661V157.211C424.6 155.976 425.6 154.975 426.834 154.975H427.462V192.897Z" fill="#100F0D"/>
<path d="M614.312 154.975H614.94C616.174 154.975 617.176 155.977 617.176 157.211V198.076C617.176 199.311 616.174 200.312 614.94 200.312H614.312V154.975Z" fill="#100F0D"/>
<path d="M427.462 234.375H426.834C425.6 234.375 424.6 233.375 424.6 232.14V198.688C424.6 197.454 425.6 196.452 426.834 196.452H427.462V234.375Z" fill="#100F0D"/>
<path d="M589.971 448.269V447.769H451.804C449.112 447.769 446.68 446.679 444.915 444.915C443.151 443.151 442.062 440.718 442.062 438.026V124.154C442.062 121.462 443.151 119.029 444.915 117.265C446.68 115.501 449.112 114.41 451.804 114.41H589.971C592.663 114.41 595.096 115.501 596.86 117.265C598.624 119.029 599.714 121.462 599.714 124.154V438.026C599.714 440.718 598.624 443.151 596.86 444.915C595.096 446.679 592.663 447.769 589.971 447.769V448.269V448.769C595.904 448.769 600.714 443.959 600.714 438.026V124.154C600.714 118.219 595.904 113.41 589.971 113.41H451.804C445.871 113.41 441.062 118.219 441.062 124.154V438.026C441.062 443.959 445.871 448.769 451.804 448.769H589.971V448.269Z" fill="#100F0D"/>
<path d="M517.293 200.618C536.205 197.505 536.521 217.901 524.656 223.235C515.332 227.425 497.453 227.21 497.453 227.21C496.946 225.618 492.156 210.139 493.516 200.007C495.245 187.117 514.886 181.603 517.293 200.618Z" fill="#EC2941"/>
<path d="M599.083 285.594C614.507 283.054 614.764 299.69 605.087 304.04C597.483 307.456 582.902 307.282 582.902 307.282C582.488 305.983 578.58 293.359 579.69 285.095C581.1 274.582 597.119 270.084 599.083 285.594Z" fill="#EC2941"/>
<path d="M509.193 264.929C534.073 216.634 581.02 250.391 573.104 286.406C566.876 314.705 536.168 355.023 536.168 355.023C531.688 353.486 488.369 338.225 467.612 318.003C441.203 292.278 461.855 238.266 509.193 264.929Z" fill="#EC2941"/>
<path d="M643.213 168.635H568.908C565.126 168.635 562.06 171.7 562.06 175.482V211.815C562.06 215.596 565.126 218.662 568.908 218.662H574.904L569.184 241.186L591.061 218.662H643.213C646.994 218.662 650.06 215.596 650.06 211.815V175.482C650.06 171.7 646.994 168.635 643.213 168.635Z" fill="white"/>
<path d="M643.213 168.635V168.302H568.908C564.941 168.302 561.727 171.516 561.727 175.482V211.815C561.727 215.78 564.941 218.995 568.908 218.995H574.476L568.861 241.104C568.824 241.25 568.889 241.403 569.021 241.476C569.153 241.551 569.317 241.527 569.423 241.418L591.203 218.995H643.213C647.179 218.995 650.393 215.78 650.393 211.815V175.482C650.393 171.516 647.179 168.302 643.213 168.302V168.635V168.968C645.013 168.968 646.639 169.696 647.819 170.876C648.999 172.056 649.727 173.682 649.727 175.482V211.815C649.727 213.615 648.999 215.24 647.819 216.42C646.639 217.6 645.013 218.328 643.213 218.328H591.061L590.823 218.43L569.813 240.059L575.228 218.744L575.168 218.458L574.904 218.328H568.908C567.108 218.328 565.481 217.6 564.301 216.42C563.123 215.24 562.393 213.615 562.393 211.815V175.482C562.393 173.682 563.123 172.056 564.301 170.876C565.481 169.696 567.108 168.968 568.908 168.968H643.213V168.635Z" fill="#100F0D"/>
<path d="M637.149 184.142H574.972C574.236 184.142 573.639 184.738 573.639 185.475C573.639 186.211 574.236 186.809 574.972 186.809H637.149C637.885 186.809 638.483 186.211 638.483 185.475C638.483 184.738 637.885 184.142 637.149 184.142Z" fill="#100F0D"/>
<path d="M637.149 192.315H574.972C574.236 192.315 573.639 192.912 573.639 193.648C573.639 194.384 574.236 194.981 574.972 194.981H637.149C637.885 194.981 638.483 194.384 638.483 193.648C638.483 192.912 637.885 192.315 637.149 192.315Z" fill="#100F0D"/>
<path d="M637.149 200.49H613.462C612.725 200.49 612.129 201.086 612.129 201.823C612.129 202.559 612.725 203.156 613.462 203.156H637.149C637.885 203.156 638.482 202.559 638.482 201.823C638.482 201.086 637.885 200.49 637.149 200.49Z" fill="#100F0D"/>
<path d="M492.615 423.594H549.162C552.039 423.594 554.372 421.26 554.372 418.383V390.734C554.372 387.856 552.039 385.523 549.162 385.523H544.598L524.56 362.475L532.302 385.523H492.615C489.738 385.523 487.404 387.856 487.404 390.734V418.383C487.404 421.26 489.738 423.594 492.615 423.594Z" fill="white"/>
<path d="M492.614 423.593V423.847H549.161C552.178 423.847 554.625 421.4 554.625 418.383V390.733C554.625 387.716 552.178 385.269 549.161 385.269H544.713L524.75 362.308L524.433 362.255L524.318 362.555L531.949 385.269H492.614C489.596 385.269 487.15 387.716 487.15 390.733V418.383C487.15 421.4 489.596 423.847 492.614 423.847V423.593V423.34C489.877 423.335 487.662 421.12 487.657 418.383V390.733C487.662 387.996 489.877 385.781 492.614 385.776H532.301L532.508 385.671L532.542 385.441L525.208 363.607L544.405 385.689L544.597 385.776H549.161C551.898 385.781 554.113 387.996 554.117 390.733V418.383C554.113 421.12 551.898 423.335 549.161 423.34H492.614V423.593Z" fill="#100F0D"/>
<path d="M497.229 411.794H531.082C531.642 411.794 532.096 411.339 532.096 410.779C532.096 410.219 531.642 409.765 531.082 409.765H497.229C496.669 409.765 496.215 410.219 496.215 410.779C496.215 411.339 496.669 411.794 497.229 411.794Z" fill="#100F0D"/>
<path d="M497.229 405.572H544.547C545.107 405.572 545.561 405.119 545.561 404.558C545.561 403.998 545.107 403.544 544.547 403.544H497.229C496.669 403.544 496.215 403.998 496.215 404.558C496.215 405.119 496.669 405.572 497.229 405.572Z" fill="#100F0D"/>
<path d="M497.229 399.353H544.272C544.832 399.353 545.287 398.899 545.287 398.338C545.287 397.778 544.832 397.323 544.272 397.323H497.229C496.669 397.323 496.215 397.778 496.215 398.338C496.215 398.899 496.669 399.353 497.229 399.353Z" fill="#100F0D"/>
<path d="M383.714 231.808C401.738 231.148 409.97 222.24 409.97 222.24C409.97 222.24 403.84 216.044 402.306 212.087C400.302 206.919 399.672 201.587 398.832 198.238C397.348 192.323 381.094 202.226 381.094 202.226L377.564 218.599C377.564 218.599 379.631 231.959 383.714 231.808Z" fill="#4A59B1"/>
<path d="M451.361 495.864L465.778 561.979C465.778 561.979 453.506 566.882 436.56 564.743L425.644 527.56" fill="#F9AA98"/>
<path d="M401.868 513.968L349.186 556.438C349.186 556.438 340.172 552.193 334.503 536.081L362.016 505.145L401.868 513.968Z" fill="#F9AA98"/>
<path d="M505.584 567.695C497.202 559.45 486.28 563.064 481.984 564.259C477.672 562.092 477.178 561.728 472.57 559.271C471.413 555.512 469.256 548.788 468.516 548.418C467.486 547.903 464.09 547.44 463.113 548.11C462.334 548.642 457.298 554.799 455.27 557.296C450.353 557.346 441.538 556.35 433.733 555.579C433.733 555.579 430.292 563.087 429.374 569.242C428.458 575.396 431.141 587.612 431.141 587.612H509.306C509.306 587.612 511.826 573.835 505.584 567.695Z" fill="#4A59B1"/>
<path d="M449.17 467.736C436.037 485.268 420.53 504.335 409.09 518.108C399.424 529.735 392.664 537.588 392.664 537.588C376.144 532.228 363.677 523.203 359.037 507.148L394.264 464.935L418.184 436.281L397.945 338.132L422.078 335.639L437.02 334.101C437.02 334.101 471.397 401.641 475.17 423.668C476.157 429.469 464.237 447.589 449.17 467.736Z" fill="#2B2E73"/>
<path d="M399.288 529.811C399.288 529.809 399.288 529.807 399.287 529.805C401.87 526.751 405.09 522.919 408.736 518.535C405.09 522.921 401.87 526.755 399.288 529.811ZM410.008 517.004C413.896 512.315 418.219 507.056 422.736 501.483C418.22 507.057 413.898 512.315 410.008 517.004Z" fill="#2B2E73"/>
<path d="M399.286 529.806C396.4 508.34 392.621 477.556 391.476 468.279L401.161 456.674L407.156 449.492L424.6 499.178C423.974 499.951 423.353 500.72 422.736 501.483C418.218 507.056 413.896 512.315 410.008 517.004C409.578 517.522 409.153 518.032 408.736 518.535C405.089 522.919 401.869 526.751 399.286 529.806Z" fill="#161728"/>
<path d="M462.984 533.843C452.971 543.268 430.958 548.47 417.131 546.455C417.131 546.455 378.024 386.574 375.81 374.229C372.235 354.314 374.788 346.825 378.358 340.146L397.946 338.133L422.079 335.639L449.171 467.735L462.984 533.843Z" fill="#2B2E73"/>
<path d="M395.93 347.968L436.53 540.276C436.586 540.547 436.852 540.719 437.122 540.662C437.393 540.606 437.565 540.34 437.508 540.07L396.909 347.762C396.852 347.491 396.586 347.318 396.317 347.375C396.046 347.432 395.874 347.698 395.93 347.968Z" fill="white"/>
<path d="M399.996 347.769L441.252 539.478C441.31 539.747 441.576 539.919 441.846 539.862C442.116 539.803 442.287 539.538 442.23 539.267L400.975 347.558C400.916 347.287 400.651 347.115 400.38 347.174C400.111 347.233 399.939 347.498 399.996 347.769Z" fill="white"/>
<path d="M448.848 464.961L428.291 364.193L432.545 356.857L432.46 356.532L432.135 356.619L427.833 364.032L427.807 364.2L448.381 465.057C448.408 465.185 448.533 465.268 448.663 465.243C448.791 465.216 448.875 465.091 448.848 464.961Z" fill="#100F0D"/>
<path d="M390.72 227.582C389.158 227.898 387.529 227.953 385.921 227.871L385.961 240.983L364.883 237.665C364.883 237.665 366.372 225.009 366.869 220.694C357.96 213.835 351.208 200.398 352.621 188.854C354.158 176.223 374.796 169.966 385.365 172.426C395.933 174.885 398.412 184.19 401.231 196.571C404.487 210.83 400.464 225.687 390.72 227.582Z" fill="#F9AA98"/>
<path d="M385.933 231.683L385.921 227.871C385.922 227.871 385.922 227.871 385.924 227.871L385.933 231.683Z" fill="#3C3C97"/>
<path d="M385.936 232.836C373.965 230.513 368.767 220.145 368.767 220.145C368.767 220.145 376.548 226.496 385.924 227.863V227.871C385.923 227.871 385.923 227.871 385.921 227.871L385.933 231.683V231.875L385.936 232.836Z" fill="#F46D55"/>
<path d="M352.373 184.398C352.373 184.398 335.709 186.248 333.516 173.406C331.757 163.114 343.145 148.658 356.192 155.45C365.653 160.376 363.753 173.51 363.753 173.51" fill="#4A59B1"/>
<path d="M366.538 171.835C366.538 171.835 366.805 163.779 358.012 165.898C345.538 168.902 345.729 181.907 345.729 181.907C345.729 181.907 338.301 181.827 334.245 186.17C334.245 186.17 338.73 191.498 348.866 189.568" fill="#F79817"/>
<path d="M400.082 191.663C400.082 191.663 395.949 186.102 391.806 185.18C391.806 185.18 390.885 193.422 384.996 197.775C376.521 204.043 368.873 202.586 368.873 202.586C368.873 202.586 365.444 196.142 359.468 199.236C354.102 202.014 356.868 214.082 366.798 215.322C366.798 215.322 367.441 223.342 367.228 229.247C332.141 220.323 344.782 178.151 357.306 170.875C363.265 167.399 373.821 163.464 385.893 169.411C385.893 169.411 395.914 165.58 401.396 173.548C406.876 181.516 400.082 191.663 400.082 191.663Z" fill="#4A59B1"/>
<path d="M376.278 587.612H340.09L315.826 542.739C315.826 542.739 322.894 529.811 340.598 529.227L348.322 544.134C348.322 544.134 357.756 545.374 359.696 545.751C360.666 545.939 362.769 549.451 362.929 550.548C362.984 550.916 357.882 554.332 357.882 554.332L360.254 563.643C360.254 563.643 369.538 564.059 374.014 567.004C380.306 571.143 376.278 587.612 376.278 587.612Z" fill="#4A59B1"/>
<path d="M378.357 340.145L381.124 329.024L373.124 307.577L424.583 302.981L437.019 334.101C415.677 344.115 384.911 346.003 378.357 340.145Z" fill="#F9AA98"/>
<path d="M364.882 237.665C364.882 237.665 361.174 237.246 359.604 245.951C358.034 254.658 370.588 325.659 370.588 325.659C393.766 325.659 418.512 319.569 433.372 307.787C433.372 307.787 407.517 256.282 402.753 251.155C397.99 246.029 385.961 240.983 385.961 240.983L364.882 237.665Z" fill="#F04429"/>
<path d="M470.681 234.651H454.594C452.822 234.651 451.458 233.089 451.697 231.334L456.992 192.385C457.264 190.393 458.965 188.907 460.974 188.907H477.062C478.834 188.907 480.198 190.47 479.96 192.225L474.664 231.174C474.393 233.166 472.692 234.651 470.681 234.651Z" fill="#100F0D"/>
<path d="M476.9 192.897C476.9 193.921 476.071 194.752 475.047 194.752C474.023 194.752 473.192 193.921 473.192 192.897C473.192 191.873 474.023 191.043 475.047 191.043C476.071 191.043 476.9 191.873 476.9 192.897Z" fill="white"/>
<path d="M471.355 193.794H468.228C467.732 193.794 467.332 193.393 467.332 192.898C467.332 192.403 467.732 192.002 468.228 192.002H471.355C471.851 192.002 472.252 192.403 472.252 192.898C472.252 193.393 471.851 193.794 471.355 193.794Z" fill="white"/>
<path d="M476.636 212.886C475.962 212.985 472.81 213.661 469.233 214.445C470.981 212.715 475.129 207.289 475.824 205.985C477.066 203.657 473.54 201.303 470.604 203.857C469.37 204.93 464.221 210.07 464.221 210.07L455.664 212.397L454.306 212.138L455.284 204.951C455.284 204.951 448.157 209.055 446.881 211.779C445.808 214.069 444.273 221.477 443.809 223.789L412.029 252.269C412.029 252.269 390.124 249.041 380.21 246.81C365.129 243.415 361.401 269.246 376.114 271.233C384.785 272.403 417.238 275.719 423.164 273.47C428.124 271.586 448.001 243.074 454.353 233.826L456.778 232.706L465.625 231.114C465.625 231.114 470.86 229.358 472.544 227.507C473.364 226.606 473.372 225.527 472.834 224.746C474.101 224.138 475.37 223.403 476.054 222.653C477.269 221.317 476.72 219.59 475.213 219.037C476.668 218.379 478.257 217.527 479.054 216.653C480.632 214.919 479.253 212.503 476.636 212.886Z" fill="#F9AA98"/>
<path d="M474.054 219.017C474.052 219.017 472.81 219.527 471.43 220.085C470.052 220.643 468.533 221.251 468.002 221.437C467.482 221.621 466.104 221.984 464.872 222.293C463.636 222.604 462.538 222.867 462.536 222.867C462.409 222.897 462.33 223.025 462.36 223.153C462.39 223.281 462.52 223.36 462.646 223.329C462.653 223.328 467.041 222.28 468.16 221.887C469.262 221.497 474.232 219.457 474.234 219.456C474.357 219.407 474.414 219.268 474.365 219.147C474.314 219.025 474.176 218.967 474.054 219.017Z" fill="#100F0D"/>
<path d="M468.42 214.416L461.368 216.777C461.243 216.819 461.176 216.953 461.217 217.079C461.259 217.203 461.393 217.269 461.519 217.228L468.572 214.867C468.696 214.824 468.763 214.689 468.721 214.565C468.68 214.441 468.545 214.373 468.42 214.416Z" fill="#100F0D"/>
<path d="M471.945 224.827C471.941 224.828 467.954 226.519 467.097 226.868C466.7 227.031 465.868 227.241 465.152 227.403C464.434 227.565 463.824 227.684 463.822 227.684C463.694 227.709 463.609 227.835 463.634 227.963C463.66 228.092 463.785 228.176 463.913 228.151C463.922 228.148 466.362 227.677 467.277 227.308C468.144 226.955 472.13 225.264 472.132 225.264C472.252 225.213 472.309 225.073 472.257 224.952C472.206 224.832 472.066 224.775 471.945 224.827Z" fill="#100F0D"/>
<path d="M393.03 203.855C393.03 203.855 395.888 200.247 400.64 202.171C400.64 202.171 398.93 199.654 396.041 200.139C393.152 200.625 393.03 203.855 393.03 203.855Z" fill="#100F0D"/>
<path d="M397.229 195.66C396.556 195.531 395.76 195.563 394.861 195.7C393.196 195.954 391.985 196.94 391.568 197.415C391.163 197.875 391.783 198.748 392.513 198.18C393.023 197.786 393.899 197.234 395.379 196.912C396.045 196.768 396.661 196.683 397.201 196.698C398.435 196.732 398.458 195.898 397.229 195.66Z" fill="#100F0D"/>
<path d="M386.636 205.834C386.636 205.834 382.334 204.193 379.234 208.275C379.234 208.275 379.417 205.238 382.148 204.179C384.88 203.119 386.636 205.834 386.636 205.834Z" fill="#100F0D"/>
<path d="M377.897 200.828C378.409 200.372 379.11 199.993 379.952 199.651C381.513 199.017 383.058 199.247 383.66 199.441C384.242 199.629 384.157 200.697 383.238 200.583C382.6 200.504 381.564 200.477 380.128 200.959C379.481 201.175 378.908 201.416 378.452 201.705C377.409 202.365 376.962 201.66 377.897 200.828Z" fill="#100F0D"/>
<path d="M393.975 215.321C393.975 215.321 394.9 212.981 394.358 211.577C393.884 210.351 392.528 208.441 392.528 208.441C392.528 208.441 395.932 210.599 395.847 211.96C395.762 213.321 393.975 215.321 393.975 215.321Z" fill="#F46D55"/>
<path d="M398.378 215.322C398.378 215.322 398.187 219.174 395.187 220.146C391.774 221.252 389.188 218.79 389.188 218.79L398.378 215.322Z" fill="white"/>
<path d="M365.841 208.581L361.501 203.421L361.265 203.401L361.245 203.635L365.586 208.795L365.821 208.815L365.841 208.581Z" fill="#100F0D"/>
<path d="M363.443 205.975L361.274 207.613L361.24 207.846L361.474 207.878L363.644 206.241L363.676 206.007L363.443 205.975Z" fill="#100F0D"/>
<path d="M321.646 489.004L354.037 503.172C354.037 503.172 356.496 492.172 357.976 473.692L335.065 461.256L321.646 489.004Z" fill="#F6848F"/>
<path d="M392.651 527.627L376.903 460.044C376.903 460.044 362.268 459.98 350.146 469.452L355.252 487.449C355.252 487.449 349.834 491.204 349.907 493.26C349.98 495.316 352.103 503.172 352.103 503.172L359.847 505.577L362.766 508.425C362.054 518.917 364.423 523.409 366.454 525.56C376.24 535.924 392.651 527.627 392.651 527.627Z" fill="#EC2941"/>
<path d="M321.645 541.329L318.146 563.805C318.146 563.805 306.138 569.011 292.512 564.553L294.822 538.541" fill="#F6848F"/>
<path d="M325.572 587.87H275.264C275.264 587.87 273.615 574.233 281.995 568.087C283.382 567.079 288.735 563.91 290.632 563.358C291.196 559.043 291.435 555.757 291.652 555.313C292.075 554.489 305.828 555.981 310.528 556.981C311.795 557.25 313.716 563.003 313.716 563.003L318.147 563.805C327.696 572.662 325.572 587.87 325.572 587.87Z" fill="#EC2941"/>
<path d="M292.046 563.506C292.048 563.506 292.17 563.467 292.417 563.405C293.161 563.218 294.984 562.841 297.562 562.841C300.004 562.841 303.121 563.178 306.645 564.336C306.77 564.377 306.904 564.309 306.945 564.184C306.986 564.06 306.918 563.925 306.793 563.884C303.217 562.709 300.048 562.365 297.562 562.365C294.061 562.365 291.92 563.048 291.902 563.053C291.777 563.093 291.708 563.227 291.748 563.353C291.788 563.477 291.922 563.546 292.046 563.506Z" fill="#100F0D"/>
<path d="M333.908 500.164C345.652 488.727 348.187 468.028 348.187 468.028C315.511 447.737 281.625 422.717 261.587 417.687L239.227 451.268C244.968 456.563 333.908 500.164 333.908 500.164Z" fill="#4D7DC8"/>
<path d="M348.144 468.355H348.143C348.174 468.142 348.187 468.029 348.187 468.029C337.21 461.213 326.094 453.861 315.415 446.914V446.909C326.095 453.855 337.215 461.215 348.188 468.03C348.188 468.03 348.175 468.142 348.144 468.355Z" fill="#4D7DC8"/>
<path d="M342.143 488.24C346.436 479.266 347.885 470.168 348.143 468.355H348.144C347.887 470.17 346.436 479.267 342.143 488.24Z" fill="#404D96"/>
<path d="M333.908 500.163C333.908 500.163 325.174 495.882 313.001 489.828L315.414 446.914C326.093 453.86 337.209 461.212 348.186 468.028C348.186 468.028 348.173 468.142 348.142 468.355C347.885 470.168 346.436 479.266 342.142 488.24C340.1 492.508 337.414 496.747 333.908 500.163Z" fill="#3B54AD"/>
<path d="M333.616 326.467L273.635 321.424C273.635 321.424 226.801 443.407 239.227 451.268L273.9 447.225C283.116 432.338 291.527 414.314 299.113 393.083L289.028 548.607C304.952 554.181 324.036 550.117 324.036 550.117C324.036 550.117 333.085 489.158 336.8 471.375C340.516 453.594 336.269 443.509 336.269 443.509C336.269 443.509 348.213 393.083 349.805 370.523C351.397 347.964 333.616 326.467 333.616 326.467Z" fill="#4D7DC8"/>
<path d="M264.867 430.891L264.911 430.859C265.404 430.507 270.071 427.432 282.98 427.431C283.104 427.431 283.231 427.431 283.356 427.432L283.58 427.277L283.512 427.013C283.479 426.983 279.169 423.315 269.079 423.316C268.315 423.316 267.516 423.337 266.685 423.383C266.555 423.389 266.453 423.501 266.461 423.632C266.468 423.764 266.58 423.864 266.711 423.857C267.533 423.812 268.323 423.792 269.079 423.792C274.065 423.792 277.604 424.696 279.893 425.595C281.037 426.045 281.869 426.493 282.413 426.828C282.685 426.995 282.884 427.133 283.015 427.229C283.145 427.325 283.203 427.375 283.203 427.375L283.357 427.195L283.359 426.956C283.232 426.956 283.105 426.956 282.98 426.956C269.131 426.955 264.62 430.48 264.572 430.519L264.533 430.852L264.867 430.891Z" fill="#100F0D"/>
<path d="M296.603 428.129L293.659 473.52C293.651 473.651 293.751 473.764 293.881 473.772C294.012 473.781 294.125 473.681 294.133 473.551L297.077 428.16C297.085 428.029 296.987 427.916 296.855 427.908C296.724 427.899 296.611 427.999 296.603 428.129Z" fill="#100F0D"/>
<path d="M299.578 391.692L299.976 386.187L299.92 386.018L293.947 378.916L294.456 354.011C294.459 353.879 294.355 353.771 294.224 353.768C294.092 353.766 293.984 353.87 293.982 354L293.47 378.996L293.526 379.154L299.495 386.25L299.103 391.658C299.094 391.788 299.192 391.903 299.323 391.912C299.454 391.922 299.568 391.823 299.578 391.692Z" fill="#100F0D"/>
<path d="M322.271 349.549C323.094 348.328 329.691 340.504 330.888 339.688C332.087 338.872 339.47 336.324 339.47 336.324L338.45 333.276L347.416 330.979L358.206 298.501L340.367 274.268L370.868 268.512C370.868 268.512 382.623 285.621 383.483 293.195C384.668 303.643 359.771 341.457 359.771 341.457C358.998 353.241 348.39 352.501 348.39 352.501C348.39 352.501 343.566 360.419 342.068 361.701C339.883 363.569 336.782 361.692 337.574 359.883C337.095 360.452 336.704 360.903 336.479 361.132C334.324 363.316 330.072 361.173 331.684 358.363C331.939 357.92 333.195 355.904 334.679 353.536C332.727 355.719 330.546 358.103 329.767 358.743C328.211 360.021 324.319 358.577 325.34 356.32C325.571 355.811 326.964 353.596 328.544 351.137C327.675 351.859 326.946 352.431 326.539 352.672C324.332 353.989 320.976 351.472 322.271 349.549Z" fill="#FBC4A9"/>
<path d="M359.233 298.662L359.328 298.566C359.807 298.115 362.064 296.223 366.645 296.222C367.893 296.222 369.315 296.363 370.921 296.714C371.049 296.742 371.176 296.66 371.204 296.532C371.232 296.404 371.151 296.278 371.023 296.25C369.385 295.892 367.929 295.747 366.645 295.747C361.253 295.746 358.908 298.308 358.88 298.343L358.897 298.678L359.233 298.662Z" fill="#100F0D"/>
<path d="M329.134 350.46C329.136 350.456 330.142 348.74 331.265 346.915C331.826 346.003 332.416 345.063 332.92 344.301C333.42 343.543 333.853 342.947 334.042 342.775C334.222 342.6 334.741 342.299 335.382 341.983C336.349 341.503 337.62 340.957 338.645 340.533C339.67 340.109 340.45 339.808 340.452 339.807C340.574 339.759 340.636 339.621 340.588 339.499C340.541 339.377 340.402 339.316 340.28 339.364C340.278 339.364 338.882 339.905 337.37 340.555C336.614 340.879 335.829 341.231 335.172 341.556C334.512 341.887 333.992 342.175 333.717 342.428C333.45 342.681 333.037 343.267 332.524 344.039C330.997 346.345 328.725 350.217 328.724 350.219L328.809 350.544L329.134 350.46Z" fill="#100F0D"/>
<path d="M334.863 353.344C334.864 353.34 335.751 351.481 336.69 349.577C337.159 348.624 337.64 347.661 338.028 346.917C338.222 346.547 338.392 346.229 338.524 345.997L338.692 345.72L338.746 345.643L338.76 345.624L338.762 345.623L338.711 345.572L338.758 345.627L338.762 345.623L338.711 345.572L338.758 345.627C338.835 345.56 339.162 345.325 339.582 345.035C340.851 344.157 343.056 342.687 343.059 342.685L343.126 342.355L342.796 342.289C342.795 342.289 341.814 342.944 340.782 343.641C340.266 343.991 339.736 344.349 339.311 344.644C338.883 344.941 338.571 345.161 338.448 345.265L338.294 345.46C337.915 346.041 336.962 347.943 336.087 349.724C335.215 351.5 334.434 353.139 334.434 353.139L334.546 353.456L334.863 353.344Z" fill="#100F0D"/>
<path d="M338.245 359.041C338.246 359.036 339.425 356.752 340.712 354.335C341.354 353.127 342.024 351.887 342.585 350.887C343.144 349.891 343.608 349.116 343.792 348.899C344.176 348.433 345.126 347.757 345.964 347.225C346.804 346.689 347.537 346.28 347.538 346.28L347.63 345.956L347.306 345.864C347.304 345.865 346.561 346.28 345.708 346.824C344.853 347.373 343.897 348.036 343.426 348.595C343.184 348.889 342.738 349.644 342.17 350.653C340.478 353.669 337.822 358.821 337.822 358.823L337.924 359.143L338.245 359.041Z" fill="#100F0D"/>
<path d="M260.438 243.276C260.438 243.276 251.652 244.28 239.793 245.403C242.398 228.132 242.564 224.593 245.478 209.321C250.485 205.768 252.653 203.861 254.06 200.471C255.648 196.412 256.513 188.828 256.549 188.024C256.656 185.643 252.974 184.96 251.378 187.385C249.968 189.531 248.634 195.712 247.644 196.231C247.174 196.248 244.56 196.307 242.51 194.291C241.054 192.859 238.453 178.051 237.957 175.157C237.518 175.139 231.837 182.151 231.609 183.348C229.658 193.611 230.474 201.128 230.793 203.765C226.868 214.768 203.397 271.948 222.868 273.449C235.318 274.409 250.098 271.692 261.649 267.873C261.026 258.236 260.438 243.276 260.438 243.276Z" fill="#FBC4A9"/>
<path d="M239.076 245.558C239.021 245.564 233.963 246.639 229.595 254.999L229.695 255.32L230.015 255.219C232.171 251.1 234.475 248.802 236.231 247.531C237.109 246.895 237.852 246.518 238.371 246.299C238.629 246.19 238.833 246.119 238.971 246.078L239.125 246.034L239.172 246.023C239.3 245.996 239.383 245.871 239.356 245.743C239.331 245.614 239.204 245.531 239.076 245.558Z" fill="#100F0D"/>
<path d="M251.934 197.755L258.756 160.01C258.989 158.721 257.998 157.535 256.688 157.535H241.746C240.474 157.535 239.384 158.446 239.158 159.698L232.337 197.443C232.104 198.733 233.094 199.918 234.405 199.918H249.346C250.618 199.918 251.708 199.007 251.934 197.755Z" fill="#100F0D"/>
<path d="M255.82 160.754C255.82 161.778 254.991 162.608 253.967 162.608C252.943 162.608 252.112 161.778 252.112 160.754C252.112 159.73 252.943 158.899 253.967 158.899C254.991 158.899 255.82 159.73 255.82 160.754Z" fill="white"/>
<path d="M250.275 161.651H247.148C246.654 161.651 246.251 161.25 246.251 160.754C246.251 160.259 246.654 159.858 247.148 159.858H250.275C250.77 159.858 251.171 160.259 251.171 160.754C251.171 161.25 250.77 161.651 250.275 161.651Z" fill="white"/>
<path d="M339.491 211.067C339.491 211.067 350.392 216.174 344.399 245.79C338.694 273.98 328.93 241.218 328.93 241.218" fill="#F04429"/>
<path d="M233.628 186.59C233.628 186.59 235.952 184.744 237.677 182.003C239.565 179 237.813 176.176 236.119 176.52C237.011 175.742 237.841 175.184 238.464 174.215C241.812 169.015 237.504 167.838 236.264 168.911C235.179 169.85 233.265 170.995 232.524 171.876C231.232 173.414 230.717 178.059 230.909 180.85L230.608 181.176C226.712 185.81 230.884 192.28 230.884 192.28L233.628 186.59Z" fill="#FBC4A9"/>
<path d="M300.273 217.627C292.144 226.889 290.692 234.545 294.315 240.983L307.592 239.407L312.357 219.389L300.273 217.627Z" fill="#F04429"/>
<path d="M289.228 238.686L244.28 244.174C244.28 244.174 238.547 265.961 251.94 280.939L288.206 272.471" fill="#2B2E73"/>
<path d="M339.985 233.313C339.985 233.313 348.105 232.307 354.489 240.983C360.828 249.602 380.504 281.661 380.504 281.661C372.011 289.446 363.075 295.062 349.905 296.123L341.309 277.803L331.812 297.493L339.985 330.183C339.985 330.183 331.492 336.553 306.28 337.083C281.067 337.614 268.857 328.857 268.857 328.857L280.271 277.899C280.271 277.899 275.493 265.161 276.289 261.975C277.085 258.79 289.228 238.686 289.228 238.686L297.833 237.49L339.985 233.313Z" fill="#2B2E73"/>
<path d="M280.493 277.815C280.492 277.813 280.238 277.14 279.858 276.059C278.714 272.825 276.43 265.913 276.437 262.869C276.437 262.535 276.465 262.249 276.52 262.032C276.644 261.528 277.118 260.467 277.809 259.105C278.501 257.739 279.413 256.056 280.42 254.251L280.328 253.927L280.005 254.019C278.996 255.828 278.082 257.515 277.385 258.891C276.688 260.269 276.209 261.32 276.058 261.917C275.99 262.189 275.962 262.508 275.961 262.869C275.965 265.023 276.989 268.773 278.008 272.021C279.028 275.263 280.046 277.98 280.048 277.983C280.093 278.105 280.23 278.168 280.353 278.121C280.476 278.075 280.538 277.939 280.493 277.815Z" fill="#100F0D"/>
<path d="M324.682 217.627L326.162 234.24L336.903 233.618C336.903 233.618 321.599 262.952 302.358 261.492C283.116 260.032 294.428 237.963 294.428 237.963L303.624 236.471L307.695 221.15L324.682 217.627Z" fill="#FBC4A9"/>
<path d="M304.932 231.562L306.228 226.671L306.442 225.864C312.556 225.821 317.865 224.164 322.261 221.921C319.429 225.374 313.94 230.271 304.932 231.562Z" fill="#F7966C"/>
<path d="M336.928 209.614C336.928 209.614 324.145 227.918 302.556 225.674C284.812 223.83 294.074 180.954 307.001 175.134C320.82 168.912 351.57 183.92 336.928 209.614Z" fill="#FBC4A9"/>
<path d="M341.14 276.917L337.886 270.293L337.567 270.185L337.459 270.502L340.712 277.127L341.031 277.235L341.14 276.917Z" fill="#100F0D"/>
<path d="M293.023 191.152C293.023 191.152 309.124 197.45 318.742 193.875C318.742 193.875 314.699 203.152 323.379 204.951C319.128 222.632 318.27 233.567 326.162 234.24L336.903 233.618C336.903 233.618 349.694 199.407 345.592 187.832C341.491 176.258 333.336 177.766 333.336 177.766C333.336 177.766 329.635 169.095 315.336 169.832C307.632 170.231 292.918 174.131 293.023 191.152Z" fill="#F04429"/>
<path d="M317.144 205.442C317.931 202.762 321.252 197.067 326.536 199.386C332.196 201.868 326.755 214.054 321.083 213.343C317.146 212.85 316.523 207.561 317.144 205.442Z" fill="#FBC4A9"/>
<path d="M294.448 200.218C295.056 199.067 299.524 195.93 301.986 202.203C301.986 202.203 296.186 205.346 294.448 200.218Z" fill="white"/>
<path d="M298.484 201.018C298.284 201.628 297.557 202.576 296.623 202.81C295.729 202.42 294.932 201.636 294.445 200.222C294.801 199.56 296.447 198.228 298.239 198.438C298.564 198.806 298.816 200.002 298.484 201.018Z" fill="#100F0D"/>
<path d="M299.593 199.686L297.103 199.848L299.953 200.974" fill="white"/>
<path d="M294.448 200.218C296.367 197.197 300.239 197.791 301.551 201.027C302.454 203.339 301.387 200.855 300.666 200.125C299.179 197.969 295.98 198.294 294.448 200.218Z" fill="#100F0D"/>
<path d="M296.317 195.189C296.971 194.997 297.76 194.943 298.661 194.985C300.343 195.065 301.824 195.875 302.115 196.349C302.435 196.873 301.92 197.659 301.133 197.17C300.587 196.831 299.777 196.411 298.272 196.246C297.576 196.169 296.977 196.186 296.395 196.225C295.193 196.303 295.091 195.549 296.317 195.189Z" fill="#100F0D"/>
<path d="M307.89 203.296C308.439 202.118 312.748 198.766 315.515 204.91C315.515 204.91 309.876 208.332 307.89 203.296Z" fill="white"/>
<path d="M311.959 203.898C311.789 204.518 311.109 205.501 310.188 205.779C309.276 205.435 308.443 204.69 307.887 203.301C308.209 202.623 309.787 201.211 311.588 201.334C311.931 201.685 312.241 202.867 311.959 203.898Z" fill="#100F0D"/>
<path d="M313.134 202.471L310.644 202.633L313.494 203.759" fill="white"/>
<path d="M307.89 203.296C309.658 200.184 313.555 200.589 315.023 203.756C316.038 206.021 314.851 203.593 314.095 202.899C312.503 200.817 309.324 201.299 307.89 203.296Z" fill="#100F0D"/>
<path d="M315.37 199.116C314.842 198.679 314.127 198.326 313.272 198.015C311.69 197.439 310.154 197.724 309.56 197.94C308.984 198.151 309.108 199.213 310.023 199.067C310.659 198.964 311.692 198.899 313.146 199.327C313.8 199.52 314.38 199.74 314.847 200.012C315.912 200.634 316.334 199.914 315.37 199.116Z" fill="#100F0D"/>
<path d="M301.72 212.343C301.72 212.343 299.889 210.385 299.975 209.535C300.06 208.684 302.357 207.193 302.357 207.193C302.357 207.193 301.508 208.628 301.165 209.768C300.991 210.348 301.72 212.343 301.72 212.343Z" fill="#F7966C"/>
<path d="M297.528 215.343C297.864 215.087 304.825 216.428 305.124 216.641C305.421 216.853 303.81 219.684 300.4 219.279C297.649 218.952 296.928 215.801 297.528 215.343Z" fill="white"/>
<path d="M321.4 207.818L325.74 202.658L325.72 202.423L325.485 202.443L321.146 207.603L321.165 207.838L321.4 207.818Z" fill="#100F0D"/>
<path d="M323.343 205.263L325.514 206.9L325.747 206.868L325.714 206.635L323.543 204.996L323.31 205.03L323.343 205.263Z" fill="#100F0D"/>
<path d="M641.994 287.407C641.994 287.407 653.501 329.535 671.251 331.067C691.978 332.857 705.686 295.733 705.686 295.733L678.145 284.854L666.145 293.169L662.385 285.875L641.994 287.407Z" fill="#A44137"/>
<path d="M665.206 291.965C665.208 291.966 665.544 292.351 666.13 293.054C667.89 295.166 671.878 300.122 675.602 305.947C675.689 306.082 675.868 306.122 676.004 306.035C676.138 305.949 676.178 305.769 676.092 305.634C671.098 297.826 665.649 291.589 665.644 291.582C665.538 291.462 665.356 291.45 665.234 291.555C665.113 291.661 665.101 291.843 665.206 291.965Z" fill="#100F0D"/>
<path d="M725.023 180.374C720.458 179.249 715.282 187.005 725.507 193.349L731.978 181.201" fill="#100F0D"/>
<path d="M701.004 443.041L725.435 575.649H746.888C746.888 575.649 755.316 486.892 742.385 465.057L740.884 441.584L701.004 443.041Z" fill="#A44137"/>
<path d="M755.316 441.584L761.23 462.113C761.23 462.113 765.532 495.836 768.598 507.329C771.662 518.823 791.455 575.649 791.455 575.649H815.783C810.907 540.052 800.806 478.585 794.027 461.588L791.072 441.584H755.316Z" fill="#A44137"/>
<path d="M693.968 359.771C693.968 359.771 691.479 371.648 690.904 386.78C690.33 401.912 699.332 451.142 699.332 451.142C705.32 453.682 738.172 450.733 743.055 445.8L738.408 394.953L742.439 397.635L751.306 445.395C755.82 448.757 790.756 450.051 796.576 446.927C796.576 446.927 788.696 400.1 786.615 390.995C783.208 376.081 776.463 359.771 776.463 359.771H693.968Z" fill="#4A59B1"/>
<path d="M743.501 438.359L744.188 445.823C739.062 451.004 704.555 454.099 698.269 451.424C698.269 451.424 697.209 448.046 695.549 442.854C705.293 442.046 723.558 440.776 743.501 438.359Z" fill="#100F0D"/>
<path d="M797.385 447.24C791.369 450.483 755.217 449.144 750.54 445.653L749.091 437.816C749.808 437.884 770.815 439.345 797.889 439.577C797.603 443.599 797.385 447.24 797.385 447.24Z" fill="#100F0D"/>
<path d="M779.526 311.743C779.526 311.743 774.996 337.931 775.182 341.577C775.379 345.213 781.047 365.293 781.047 365.293C781.047 365.293 746.832 381.796 692.051 363.412L699.716 297.132L669.324 288.573C669.324 288.573 683.62 251.932 691.03 242.479C694.282 238.344 720.996 233.907 720.996 233.907L768.868 238.811C768.868 238.811 782.918 243.94 791.336 249.875C797.643 254.311 808.396 279.828 812.984 292.661L782.103 301.732L779.526 311.743Z" fill="#F04429"/>
<path d="M774.212 240.935V240.948C772.106 248.495 758.911 270.3 734.479 264.935C712.548 260.12 713.879 241.469 715.186 234.976C718.612 234.309 720.999 233.908 720.999 233.908L768.866 238.816C768.866 238.816 771.052 239.615 774.212 240.935Z" fill="#F9AF0E"/>
<path d="M700.263 295.099L703.455 266.939C703.473 266.781 703.359 266.637 703.199 266.619C703.04 266.601 702.896 266.715 702.877 266.874L699.687 295.034C699.668 295.194 699.783 295.338 699.943 295.355C700.101 295.374 700.245 295.259 700.263 295.099Z" fill="#100F0D"/>
<path d="M768.868 238.811C768.868 238.811 765.72 257.449 742.844 260.165C725.947 262.172 715.492 247.335 720.996 233.905L729.635 232.088L730.446 222.717C724.352 222.233 721.379 218.809 720.095 214.508C715.624 199.575 725.591 183.481 725.591 183.481C734.015 169.685 752.362 168.209 760.955 179.133C768.488 188.717 762.622 204.293 754.58 214.508C753.871 215.408 753.048 216.264 752.136 217.076L757.475 233.823L768.868 238.811Z" fill="#97352A"/>
<path d="M723.728 182.53C720.756 180.598 717.475 175.772 718.912 171.912C720.84 166.736 726.891 169.123 726.891 169.123C726.891 169.123 721.068 157.047 728.724 155.43C736.38 153.812 746.084 164.487 746.084 164.487C746.084 164.487 746.408 160.066 750.722 161.468C755.035 162.87 757.838 168.476 757.838 168.476C757.838 168.476 760.556 165.95 763.252 168.428C766.167 171.11 763.763 176.939 763.763 176.939C763.763 176.939 766.126 178.875 768.868 180.264C771.847 179.79 774.688 182.726 775.055 185.262C776.119 192.622 767.219 198.13 767.219 198.13C767.219 198.13 769.304 202.442 767.363 205.462C765.422 208.48 760.534 209.343 760.534 209.343C760.534 209.343 763.36 217.174 752.727 218.919L752.14 217.072L757.191 201.795C757.191 201.795 751.908 200.61 750.722 196.727C749.535 192.846 750.758 187.091 750.758 187.091C750.758 187.091 748.386 188.712 743.64 187.706C739.348 186.795 738.106 182.818 738.106 182.818C738.106 182.818 730.863 187.168 723.728 182.53Z" fill="#100F0D"/>
<path d="M750.685 198.849C750.685 198.849 754.9 194.893 759.168 197.051C765.565 200.286 758.285 211.173 751.979 210.278C746.912 209.559 746.875 201.867 750.685 198.849Z" fill="#97352A"/>
<path d="M750.925 563.435L750.928 563.436C751.099 559.605 755.316 555.629 755.316 555.629L748.56 552.435C746.763 554.246 745.659 556.881 745.105 559.464H733.856C733.856 559.464 725.736 545.414 713.228 559.464L701.004 569.416C701.004 569.416 668.872 558.375 677.929 588.372H755.316C755.316 588.372 758.32 576.574 750.925 563.435Z" fill="#4A59B1"/>
<path d="M825.154 567.26L819.043 559.927C819.043 559.927 816.743 553.315 807.542 553.219C798.34 553.126 794.027 559.927 794.027 559.927H786.016L783.688 553.147L779.908 555.017C779.908 555.017 782.022 557.075 784.836 562.181L784.839 562.187C778.2 575.8 780.8 588.372 780.8 588.372H840.25C846.36 565.247 825.154 567.26 825.154 567.26Z" fill="#4A59B1"/>
<path d="M760.383 279.417C754.354 274.691 748.616 272.382 743.418 271.562C723.899 268.486 707.183 286.305 711.499 305.587C712.648 310.723 715.319 316.301 720.42 322.017C740.37 344.371 786.592 378.327 796.396 382.671C806.2 387.014 818.18 373.679 818.18 373.679C818.18 373.679 830.723 360.873 825.763 351.366C820.803 341.859 783.966 297.898 760.383 279.417Z" fill="#2B2E73"/>
<path d="M760.383 279.417C754.354 274.691 748.616 272.382 743.418 271.562C723.899 268.486 707.183 286.305 711.499 305.587C712.648 310.723 715.319 316.301 720.42 322.017C740.37 344.371 786.592 378.327 796.396 382.671C806.2 387.014 818.18 373.679 818.18 373.679C818.18 373.679 830.723 360.873 825.763 351.366C820.803 341.859 783.966 297.898 760.383 279.417Z" fill="#F9AF0E"/>
<mask id="mask0_75_4" style="mask-type:luminance" maskUnits="userSpaceOnUse" x="710" y="271" width="117" height="113">
<path d="M760.383 279.417C754.354 274.691 748.616 272.382 743.418 271.562C723.898 268.486 707.183 286.305 711.499 305.587C712.648 310.723 715.319 316.301 720.42 322.017C740.37 344.371 786.592 378.327 796.396 382.671C806.2 387.014 818.18 373.679 818.18 373.679C818.18 373.679 830.723 360.873 825.763 351.366C820.803 341.859 783.966 297.898 760.383 279.417Z" fill="white"/>
</mask>
<g mask="url(#mask0_75_4)">
<path d="M711.148 287.799C719.609 290.775 726.816 296.934 731.225 304.731C735.871 312.946 737.019 322.733 734.677 331.854C733.335 337.087 730.892 341.987 727.475 346.173C727.008 346.745 727.983 347.351 728.444 346.786C734.672 339.157 737.711 329.065 736.883 319.261C736.089 309.879 731.64 301.102 724.739 294.725C720.912 291.187 716.408 288.434 711.491 286.705C710.793 286.459 710.452 287.555 711.148 287.799Z" fill="white"/>
<path d="M767.582 278.844C762.976 284.083 758.565 290.029 757.173 297.016C755.997 302.924 757.073 309.133 758.825 314.823C760.362 319.815 763.488 324.323 767.658 327.473C771.178 330.133 775.758 331.917 780.208 331C785.238 329.961 788.413 325.597 790.014 320.988C790.869 318.529 791.033 315.116 788.42 313.621C785.67 312.049 782.86 314.463 781.324 316.592C773.712 327.143 783.174 340.833 791.937 347.136C797.117 350.861 803.497 353.149 809.889 351.701C816.152 350.283 821.216 345.891 825.894 341.743C827.082 340.691 828.264 339.632 829.468 338.599C830.029 338.117 829.245 337.28 828.685 337.76C824.217 341.595 819.993 345.911 814.724 348.664C812.069 350.052 809.154 350.963 806.142 351.015C803.016 351.069 799.936 350.253 797.129 348.905C791.913 346.401 787.35 342.303 784.106 337.528C781.117 333.125 778.874 327.537 780.066 322.149C780.66 319.471 782.18 316.439 784.557 314.931C785.569 314.288 786.877 313.992 787.946 314.675C789.058 315.383 789.49 316.765 789.474 318.025C789.454 319.508 788.857 320.975 788.268 322.316C787.754 323.483 787.122 324.604 786.362 325.628C785.093 327.336 783.39 328.744 781.378 329.48C777.5 330.899 773.228 329.699 769.845 327.588C765.818 325.076 762.669 321.212 760.793 316.872C759.674 314.283 759.036 311.451 758.504 308.688C757.986 306.003 757.698 303.268 757.865 300.531C758.232 294.504 761.018 289.117 764.564 284.344C765.76 282.733 767.04 281.189 768.365 279.683C768.848 279.133 768.07 278.289 767.582 278.844Z" fill="white"/>
<path d="M760.673 362.833C768.846 358.365 778.608 357.645 787.584 359.791C796.336 361.881 804.202 366.695 810.749 372.785C814.389 376.172 817.646 379.951 820.576 383.965C821.01 384.56 821.845 383.772 821.414 383.183C816.03 375.808 809.469 369.156 801.62 364.409C793.638 359.584 784.333 356.919 774.972 357.579C769.782 357.944 764.702 359.324 760.129 361.824C759.482 362.177 760.024 363.188 760.673 362.833Z" fill="white"/>
<path d="M764.86 364.493C768.691 362.713 773.012 362.657 777.129 363.222C780.703 363.712 784.219 364.668 787.573 365.992C794.159 368.592 800.152 372.681 804.999 377.84C807.769 380.788 810.143 384.082 812.057 387.645C812.407 388.296 813.417 387.753 813.067 387.102C806.035 374.016 792.803 364.576 778.131 362.22C773.505 361.476 768.639 361.474 764.316 363.484C763.647 363.796 764.192 364.804 764.86 364.493Z" fill="white"/>
</g>
<path d="M740.494 320.218L737.063 323.875C736.338 324.648 735.124 324.687 734.352 323.962L724.439 314.664C723.667 313.939 723.628 312.726 724.354 311.954L727.784 308.296C728.508 307.523 729.722 307.484 730.495 308.21L740.407 317.507C741.179 318.232 741.218 319.446 740.494 320.218Z" fill="#100F0D"/>
<path d="M763.3 295.905L759.869 299.563C759.144 300.335 757.93 300.373 757.158 299.649L747.246 290.351C746.474 289.627 746.434 288.413 747.16 287.64L750.59 283.983C751.316 283.211 752.529 283.172 753.301 283.896L763.213 293.195C763.986 293.92 764.025 295.133 763.3 295.905Z" fill="#100F0D"/>
<path d="M732.844 316.48L755.65 292.168L754.808 291.378L732.001 315.691" fill="#100F0D"/>
<path d="M741.203 311.416C740.89 311.749 740.364 311.767 740.03 311.453L736.56 308.199C736.227 307.885 736.21 307.36 736.523 307.025C736.836 306.692 737.362 306.675 737.696 306.988L741.166 310.243C741.499 310.556 741.516 311.081 741.203 311.416Z" fill="#100F0D"/>
<path d="M751.13 300.834C750.816 301.167 750.292 301.185 749.957 300.871L746.488 297.617C746.153 297.303 746.137 296.778 746.45 296.443C746.764 296.109 747.289 296.093 747.622 296.406L751.093 299.661C751.426 299.974 751.444 300.499 751.13 300.834Z" fill="#100F0D"/>
<path d="M792.738 369.229L789.306 372.886C788.582 373.658 787.369 373.697 786.595 372.973L776.683 363.674C775.911 362.95 775.873 361.737 776.597 360.963L780.027 357.306C780.753 356.534 781.966 356.495 782.738 357.219L792.651 366.518C793.423 367.242 793.462 368.455 792.738 369.229Z" fill="#100F0D"/>
<path d="M815.546 344.915L812.114 348.573C811.39 349.345 810.176 349.384 809.404 348.66L799.491 339.361C798.719 338.636 798.68 337.423 799.406 336.651L802.836 332.993C803.56 332.22 804.774 332.181 805.547 332.907L815.459 342.205C816.231 342.929 816.27 344.143 815.546 344.915Z" fill="#100F0D"/>
<path d="M785.09 365.491L807.896 341.179L807.054 340.389L784.247 364.701" fill="#100F0D"/>
<path d="M793.448 360.425C793.133 360.76 792.609 360.776 792.274 360.463L788.805 357.208C788.47 356.895 788.454 356.369 788.768 356.036C789.081 355.701 789.606 355.684 789.94 355.999L793.409 359.253C793.744 359.567 793.761 360.092 793.448 360.425Z" fill="#100F0D"/>
<path d="M803.375 349.843C803.062 350.178 802.536 350.194 802.203 349.881L798.733 346.626C798.399 346.313 798.381 345.787 798.695 345.454C799.009 345.119 799.533 345.102 799.868 345.415L803.337 348.67C803.672 348.983 803.688 349.509 803.375 349.843Z" fill="#100F0D"/>
<path d="M812.038 292.937L784.118 301.137L786.038 307.763L756.852 323.463C756.852 323.463 750.4 321.195 747.677 321.11C744.953 321.025 737.73 324.186 735.517 324.867C733.305 325.547 733.485 329.534 736.805 329.982C740.124 330.43 745.932 328.514 745.932 328.514L741.154 333.331C741.154 333.331 735.006 337.703 734.397 338.562C733.681 339.571 734.77 343.186 737.456 342.982C737.058 344.265 738.19 347.345 740.698 347.11C740.86 347.094 741.076 347.026 741.325 346.923C741.253 348.358 742.396 350.81 744.642 350.599C745.02 350.563 745.68 350.25 746.432 349.822C746.974 351.118 748.238 352.478 749.932 352.319C751.288 352.193 755.741 348.271 755.741 348.271V348.27C757.557 346.85 759.614 345.173 760.868 343.918C763.506 341.279 763.609 337.119 763.609 337.119C776.145 334.767 812.08 327.674 815.705 323.017C820.892 316.335 812.038 292.937 812.038 292.937Z" fill="#A44137"/>
<path d="M738.022 342.861C738.022 342.861 739.056 342.245 740.167 341.574C741.28 340.901 742.454 340.185 742.774 339.957C743.106 339.718 743.567 339.254 743.964 338.839C744.358 338.426 744.676 338.067 744.678 338.066L744.655 337.706L744.295 337.727C744.294 337.727 743.98 338.081 743.594 338.486C743.21 338.891 742.74 339.354 742.476 339.541C742.2 339.738 741.007 340.469 739.902 341.135C738.794 341.805 737.762 342.421 737.759 342.422C737.638 342.494 737.598 342.651 737.67 342.773C737.743 342.894 737.899 342.934 738.022 342.861Z" fill="#100F0D"/>
<path d="M741.886 346.923C741.886 346.923 742.796 346.364 743.779 345.749C744.764 345.131 745.807 344.469 746.122 344.225C746.443 343.973 747.002 343.38 747.502 342.832C747.999 342.287 748.423 341.799 748.423 341.799L748.398 341.437L748.038 341.463C748.036 341.464 747.616 341.947 747.124 342.487C746.635 343.024 746.06 343.628 745.807 343.821C745.547 344.025 744.483 344.704 743.507 345.315C742.527 345.928 741.62 346.485 741.618 346.487C741.498 346.56 741.46 346.719 741.534 346.839C741.608 346.959 741.766 346.997 741.886 346.923Z" fill="#100F0D"/>
<path d="M746.929 349.667C746.932 349.664 749.733 347.914 750.353 347.491C751.006 347.04 751.891 346.054 751.899 346.047L751.88 345.686L751.518 345.704C751.518 345.704 751.3 345.947 751.005 346.24C750.712 346.535 750.34 346.88 750.064 347.068C749.77 347.27 748.913 347.814 748.137 348.304C747.36 348.794 746.66 349.232 746.658 349.232L746.577 349.586L746.929 349.667Z" fill="#100F0D"/>
<path d="M670.956 293.168H652.052C649.962 293.168 648.08 291.905 647.286 289.971L631.332 251.021C630.554 249.125 631.949 247.047 633.998 247.047H652.89C654.981 247.047 656.862 248.309 657.656 250.243L673.622 289.193C674.4 291.089 673.005 293.168 670.956 293.168Z" fill="#100F0D"/>
<path d="M654.845 251.492C654.845 252.516 654.014 253.347 652.99 253.347C651.966 253.347 651.136 252.516 651.136 251.492C651.136 250.468 651.966 249.637 652.99 249.637C654.014 249.637 654.845 250.468 654.845 251.492Z" fill="white"/>
<path d="M649.3 252.389H646.172C645.678 252.389 645.276 251.987 645.276 251.493C645.276 250.998 645.678 250.597 646.172 250.597H649.3C649.795 250.597 650.196 250.998 650.196 251.493C650.196 251.987 649.795 252.389 649.3 252.389Z" fill="white"/>
<path d="M645.856 286.655C647.092 284.65 650.171 279.735 651.021 278.259C652.791 275.192 649.841 272.735 648.775 273.651C648.673 273.739 648.496 273.899 648.269 274.107C649.08 272.828 649.785 271.766 650.071 271.239C652.141 267.408 648.841 265.62 647.824 266.632C647.729 266.727 647.523 266.91 647.257 267.167C647.784 266.416 648.203 265.816 648.433 265.482C650.319 262.747 646.741 259.747 645.244 261.235C645.029 261.448 644.529 261.952 644.047 262.478C644.169 262.282 644.277 262.108 644.356 261.978C645.987 259.308 643.08 256.61 641.243 258.248C640.665 258.763 638.081 260.9 636.16 262.972L634.757 259.546C634.209 258.208 629.628 257.844 630.565 261.382C631.229 263.887 632.88 269.667 632.884 269.686C632.883 269.686 633.727 277.711 636.82 283.482C640.564 290.468 647.284 290.143 647.284 290.143L645.856 286.655Z" fill="#A44137"/>
<path d="M643.469 262.612C643.467 262.615 638.94 267.067 638.095 267.981C637.22 268.933 636.204 270.891 636.196 270.9C636.131 271.025 636.18 271.18 636.304 271.245C636.429 271.311 636.584 271.263 636.649 271.137C636.651 271.136 636.903 270.653 637.26 270.056C637.616 269.461 638.079 268.752 638.471 268.329C638.877 267.888 640.223 266.544 641.459 265.319C642.695 264.091 643.827 262.979 643.828 262.976L643.832 262.615L643.469 262.612Z" fill="#100F0D"/>
<path d="M646.878 267.211C646.878 267.211 645.502 268.747 644.048 270.389C642.59 272.034 641.069 273.766 640.74 274.213C640.025 275.187 638.936 277.202 638.932 277.207C638.864 277.333 638.91 277.487 639.034 277.555C639.158 277.622 639.314 277.577 639.381 277.451C639.382 277.45 639.654 276.95 640.013 276.33C640.37 275.71 640.817 274.971 641.153 274.515C641.441 274.122 642.981 272.363 644.43 270.727C645.884 269.087 647.257 267.555 647.26 267.553L647.24 267.191L646.878 267.211Z" fill="#100F0D"/>
<path d="M647.784 274.144C647.784 274.144 646.652 275.519 645.486 276.95C644.903 277.666 644.311 278.394 643.848 278.972C643.38 279.558 643.059 279.966 642.967 280.114C642.808 280.378 642.52 281.074 642.252 281.736C641.987 282.394 641.756 282.995 641.756 282.995C641.706 283.127 641.771 283.275 641.903 283.326C642.035 283.376 642.183 283.311 642.234 283.179C642.235 283.178 642.464 282.58 642.727 281.927C642.986 281.28 643.294 280.555 643.403 280.379C643.446 280.307 643.79 279.863 644.247 279.292C644.939 278.428 645.923 277.222 646.734 276.232C647.543 275.243 648.179 274.471 648.18 274.47L648.146 274.11L647.786 274.144" fill="#100F0D"/>
<path d="M786.121 392.701C774.111 391.637 765.343 385.855 762.099 371.529L766.547 370.788C766.547 370.788 768.4 385.688 784.993 388.029C785.389 389.505 785.448 389.763 786.121 392.701Z" fill="#100F0D"/>
<path d="M737.585 393.942L734.345 391.566L731.325 373.668C731.299 373.51 731.148 373.403 730.991 373.43C730.832 373.456 730.725 373.607 730.752 373.764L733.792 391.778L733.907 391.964L737.243 394.41C737.372 394.506 737.553 394.478 737.648 394.348C737.743 394.219 737.715 394.036 737.585 393.942Z" fill="#100F0D"/>
<path d="M729.992 227.951L730.446 222.718C730.446 222.718 742.044 222.633 746.962 215.182C746.962 215.182 744.318 227.525 729.992 227.951Z" fill="#471516"/>
<path d="M786.848 307.954C786.85 307.954 787.092 307.855 787.542 307.702C788.888 307.242 792.047 306.319 795.618 306.321C797.999 306.321 800.558 306.73 802.895 307.943C803.038 308.018 803.212 307.962 803.286 307.819C803.36 307.678 803.304 307.502 803.163 307.429C800.718 306.159 798.063 305.741 795.618 305.739C790.726 305.742 786.648 307.41 786.628 307.417C786.48 307.478 786.41 307.647 786.47 307.795C786.531 307.945 786.7 308.015 786.848 307.954Z" fill="#100F0D"/>
<path d="M758.96 190.587C755.703 190.156 750.847 192.492 748.06 197.928C743.835 206.166 746.807 214.542 756.957 212.943C768.868 211.067 772.104 192.327 758.96 190.587Z" fill="#F04429"/>
<path d="M759.344 195.319L759.366 195.153C759.206 195.132 759.042 195.121 758.873 195.121C756.865 195.125 754.222 196.591 752.652 199.649C751.896 201.123 751.516 202.607 751.516 203.952C751.516 205.376 751.945 206.648 752.817 207.564C753.689 208.48 754.994 209.027 756.702 209.025C757.161 209.025 757.649 208.987 758.168 208.905C762.208 208.264 764.612 204.491 764.612 201.049C764.622 198.248 762.985 195.624 759.366 195.153L759.344 195.319L759.322 195.484C762.782 195.949 764.268 198.369 764.278 201.049C764.278 204.348 761.962 207.975 758.116 208.576C757.613 208.655 757.142 208.692 756.702 208.692C755.064 208.692 753.861 208.176 753.058 207.335C752.257 206.492 751.85 205.311 751.849 203.952C751.849 202.669 752.213 201.235 752.948 199.801C754.465 196.84 757.024 195.452 758.873 195.455C759.028 195.455 759.178 195.464 759.322 195.484L759.344 195.319Z" fill="#100F0D"/>
<path d="M759.551 194.27C759.551 194.27 764.528 185.025 763.763 176.939L768.868 180.265C768.868 180.265 769.932 187.091 764.635 196.407L759.551 194.27Z" fill="#F9AF0E"/>
<path d="M723.663 194.455C724.271 193.304 728.739 190.167 731.202 196.44C731.202 196.44 725.4 199.583 723.663 194.455Z" fill="white"/>
<path d="M731.198 196.441C731.198 196.441 729.798 197.201 728.172 197.375C726.558 197.523 724.732 197.108 723.798 194.803L723.665 194.455C724.265 193.309 728.745 190.161 731.198 196.441Z" fill="white"/>
<path d="M728.172 197.375C726.652 197.51 724.839 197.149 723.959 195.19V195.177C724.292 194.603 725.21 193.167 727.039 193.709C728.83 194.241 728.426 196.47 728.172 197.375Z" fill="#100F0D"/>
<path d="M729.34 194.819L726.85 195.499L729.7 196.105" fill="white"/>
<path d="M723.663 194.455C725.582 191.434 729.455 192.029 730.766 195.265C731.668 197.577 730.602 195.093 729.88 194.362C728.394 192.206 725.195 192.531 723.663 194.455Z" fill="#100F0D"/>
<path d="M725.532 189.426C726.186 189.234 726.974 189.181 727.876 189.223C729.558 189.302 731.038 190.113 731.329 190.586C731.649 191.11 731.134 191.897 730.349 191.407C729.802 191.069 728.992 190.649 727.486 190.482C726.79 190.406 726.192 190.423 725.609 190.462C724.409 190.541 724.305 189.786 725.532 189.426Z" fill="#100F0D"/>
<path d="M737.148 197.427C737.755 196.276 742.224 193.139 744.686 199.412C744.686 199.412 738.886 202.555 737.148 197.427Z" fill="white"/>
<path d="M744.684 199.413C744.684 199.413 743.284 200.173 741.657 200.347C740.043 200.493 738.216 200.08 737.284 197.773C737.229 197.667 737.191 197.547 737.149 197.427C737.751 196.28 742.229 193.133 744.684 199.413Z" fill="white"/>
<path d="M741.658 200.347C740.136 200.481 738.324 200.121 737.444 198.161V198.147C737.778 197.574 738.695 196.139 740.524 196.681C742.315 197.211 741.911 199.441 741.658 200.347Z" fill="#100F0D"/>
<path d="M742.826 197.791L740.335 198.47L743.186 199.078" fill="white"/>
<path d="M737.148 197.427C739.067 194.406 742.939 195 744.25 198.236C745.154 200.548 744.087 198.064 743.366 197.334C741.879 195.178 738.68 195.502 737.148 197.427Z" fill="#100F0D"/>
<path d="M744.584 193.353C744.056 192.917 743.341 192.563 742.487 192.253C740.904 191.677 739.368 191.962 738.775 192.178C738.199 192.389 738.324 193.451 739.237 193.305C739.873 193.202 740.907 193.137 742.36 193.565C743.015 193.758 743.596 193.978 744.063 194.25C745.128 194.873 745.548 194.151 744.584 193.353Z" fill="#100F0D"/>
<path d="M730.953 207.492C730.953 207.492 727.974 205.535 728.042 204.854C728.109 204.174 731.805 200.374 731.805 200.374C731.805 200.374 729.421 204.003 729.294 204.726C729.166 205.45 730.953 207.492 730.953 207.492Z" fill="#471516"/>
<path d="M727.432 211.578C727.432 211.578 728.585 214.111 731.198 213.96C734.346 213.779 734.474 210.33 734.474 210.33L727.432 211.578Z" fill="white"/>
<path d="M646.338 407.88C643.51 417.912 633.894 424.48 633.894 424.48C633.894 424.48 614.468 424.527 609.361 421.455C605.566 419.162 599.691 415.76 593.721 401.015C599.824 398.124 606.525 395.24 606.525 395.24C600.562 394.455 595.009 394.298 591.277 394.314C590.044 390.59 588.818 386.316 587.617 381.407C586.525 376.93 585.873 372.687 585.566 368.712C593.838 367.188 604.616 366.914 604.616 366.914C597.789 365.366 591.309 364.336 585.355 364.092C585.056 342.552 594.608 329.858 594.608 329.858C615.873 333.872 626.699 347.108 632.921 355.939C635.089 359.018 637.72 365.043 640.109 372.019C637.382 373.622 632.835 376.363 631.091 377.895C631.091 377.895 636.472 376.694 641.468 376.167C645.262 388.32 647.988 402.028 646.338 407.88Z" fill="#19AD48"/>
<path d="M632.387 478.103C632.387 478.103 615.45 483.649 600.704 472.062C598.026 469.957 595.238 467.459 592.559 464.686C597.727 458.385 603.603 451.551 603.603 451.551C598.443 453.633 592.252 458.574 589.283 461.095C585.488 456.681 582.126 451.778 579.895 446.79C575.999 438.086 576.659 429.939 578.292 422.123C578.292 422.123 599.196 419.711 611.388 426.633C618.608 430.733 625.364 437.254 629.834 443.209C627.91 445.149 625.096 448.251 623.62 450.577C623.62 450.577 628.2 447.654 631.822 446.037C633.77 449.037 635.003 451.739 635.254 453.711C636.055 460.027 637.446 473.162 632.387 478.103Z" fill="#19AD48"/>
<path d="M581.038 424.775C581.04 424.776 581.596 425.267 582.589 426.152C586.068 429.248 594.892 437.149 603.852 445.547C612.81 453.941 621.917 462.845 625.918 467.895C634.682 478.943 634.86 489.814 634.86 490.658V490.709V490.716V545.472C634.86 545.689 635.036 545.865 635.252 545.865C635.469 545.865 635.645 545.689 635.645 545.472V490.716H635.252L635.645 490.723V490.658C635.645 489.712 635.453 478.656 626.534 467.407C621.882 461.544 610.656 450.761 600.569 441.415C590.486 432.073 581.56 424.187 581.558 424.185C581.396 424.043 581.148 424.058 581.004 424.22C580.86 424.383 580.876 424.631 581.038 424.775Z" fill="#100F0D"/>
<path d="M601.2 339.856C601.201 339.859 601.557 340.595 602.202 341.97C606.722 351.587 625.376 392.323 634.377 427.884C636.644 436.838 637.764 446.042 637.764 455.279V545.472C637.764 545.689 637.94 545.865 638.156 545.865C638.373 545.865 638.549 545.689 638.549 545.472V455.279C638.549 445.978 637.421 436.71 635.138 427.692C624.818 386.934 601.913 339.527 601.908 339.515C601.813 339.32 601.578 339.238 601.384 339.332C601.188 339.427 601.106 339.661 601.2 339.856Z" fill="#100F0D"/>
<path d="M630.721 508.292C618.309 510.492 607.979 509.203 599.777 506.58C600.587 501.183 602.26 497.137 602.26 497.137C599.204 498.488 595.841 502.321 594.145 504.451C582.448 499.313 576.485 492.023 576.485 492.023C631.993 484.3 630.721 508.292 630.721 508.292Z" fill="#19AD48"/>
<path d="M632.686 545.472V516.891H632.294L632.686 516.912C632.686 516.906 632.698 516.698 632.698 516.331C632.694 514.698 632.48 509.932 629.953 506.006L629.622 506.218L629.962 506.022C629.906 505.902 622.201 492.84 588.934 492.852C586.19 492.852 583.273 492.94 580.17 493.132C579.954 493.146 579.79 493.332 579.803 493.548C579.817 493.766 580.002 493.93 580.22 493.916C583.306 493.726 586.207 493.638 588.934 493.638C605.467 493.638 615.572 496.871 621.53 500.078C624.51 501.682 626.456 503.279 627.652 504.47C628.25 505.064 628.662 505.558 628.922 505.899C629.052 506.07 629.144 506.202 629.202 506.29L629.266 506.388L629.282 506.415L629.292 506.431C631.681 510.122 631.915 514.771 631.911 516.331C631.911 516.68 631.901 516.868 631.901 516.868V516.891V545.472C631.901 545.689 632.077 545.865 632.294 545.865C632.51 545.865 632.686 545.689 632.686 545.472Z" fill="#100F0D"/>
<path d="M709.043 465.29C709.043 465.29 690.944 463.043 675.947 462.494C669.913 466.311 663.008 473.374 653.833 492.424C653.833 492.424 647.352 503.484 642.017 505.904C642.017 505.904 636.983 504.404 636.087 490.491C635.772 485.652 637.792 480.798 641.217 476.516C643.299 476.618 645.647 476.902 647.517 477.576C647.517 477.576 647.1 475.856 643.981 473.468C649.276 468.283 656.575 464.339 663.817 462.934C668.452 459.642 679.907 452.36 691.336 451.614C694.832 454.355 697.055 457.819 697.055 457.819C697.369 456.02 696.976 453.727 696.451 451.755C696.788 451.794 697.117 451.85 697.456 451.904C714.008 454.763 709.043 465.29 709.043 465.29Z" fill="#19AD48"/>
<path d="M642.192 545.472V510.251C642.192 503.436 643.798 496.717 646.924 490.664C652.354 480.135 662.474 464.687 677.258 458.181C677.457 458.095 677.546 457.863 677.46 457.664C677.372 457.465 677.14 457.376 676.941 457.463C661.862 464.117 651.701 479.71 646.225 490.304C643.042 496.47 641.406 503.312 641.406 510.251V545.472C641.406 545.689 641.582 545.865 641.8 545.865C642.016 545.865 642.192 545.689 642.192 545.472Z" fill="#100F0D"/>
<path d="M613.131 519.359C613.131 519.359 613.551 575.947 624.968 587.993H636.807H648.646C660.064 575.947 660.484 519.359 660.484 519.359H613.131Z" fill="#2B2E73"/>
<path d="M225.08 91.1082H292.499C298.663 91.1082 303.66 96.1041 303.66 102.268V125.572C303.66 131.736 298.663 136.732 292.499 136.732H284.767C285.125 144.075 287.648 159.688 302.616 159.688C302.616 159.688 271.347 168.269 269.064 136.732H225.08C218.917 136.732 213.92 131.736 213.92 125.572V102.268C213.92 96.1041 218.917 91.1082 225.08 91.1082Z" fill="white"/>
<path d="M225.08 91.1083V91.4416H292.499C295.491 91.4416 298.195 92.6522 300.155 94.6122C302.115 96.5722 303.326 99.2776 303.327 102.268V125.572C303.326 128.563 302.115 131.267 300.155 133.228C298.195 135.188 295.491 136.399 292.499 136.399H284.767L284.526 136.503L284.434 136.748C284.616 140.447 285.335 146.224 287.919 151.119C290.491 156.015 295.007 160.031 302.616 160.022V159.688L302.528 159.367C302.527 159.367 302.295 159.431 301.856 159.53C300.54 159.826 297.416 160.42 293.603 160.42C288.93 160.422 283.235 159.526 278.548 156.131C273.863 152.738 270.135 146.851 269.398 136.708C269.384 136.534 269.239 136.399 269.064 136.399H225.08C222.09 136.399 219.386 135.188 217.426 133.228C215.466 131.267 214.254 128.563 214.254 125.572V102.268C214.254 99.2776 215.466 96.5722 217.426 94.6122C219.386 92.6522 222.09 91.4416 225.08 91.4416V91.1083V90.7749C218.734 90.7749 213.587 95.9202 213.587 102.268V125.572C213.587 131.92 218.734 137.066 225.08 137.066H269.064V136.732L268.732 136.756C269.471 147.038 273.299 153.162 278.158 156.672C283.014 160.183 288.85 161.086 293.603 161.087C298.779 161.087 302.686 160.014 302.704 160.01C302.866 159.966 302.968 159.81 302.947 159.643C302.924 159.478 302.783 159.355 302.616 159.355C295.258 159.346 291.028 155.555 288.508 150.808C285.999 146.062 285.276 140.36 285.099 136.716L284.767 136.732V137.066H292.499C298.847 137.066 303.992 131.92 303.994 125.572V102.268C303.992 95.9202 298.847 90.7749 292.499 90.7749H225.08V91.1083Z" fill="#100F0D"/>
<path d="M298.819 112.115C298.787 112.072 297.32 110.083 295.093 108.051C293.977 107.036 292.671 106.007 291.224 105.21C289.779 104.415 288.177 103.838 286.475 103.835C286.185 103.835 285.896 103.851 285.604 103.889C284.788 103.986 284.039 104.266 283.432 104.718C282.513 105.398 281.997 106.387 281.723 107.395C281.444 108.414 281.371 109.503 281.369 110.638C281.373 112.938 281.691 115.455 281.687 117.6C281.697 119.262 281.473 120.659 280.999 121.439C280.763 121.835 280.499 122.099 280.109 122.307C279.719 122.511 279.165 122.66 278.351 122.66H278.317H278.319C277.815 122.658 277.293 122.519 276.717 122.226C275.711 121.718 274.588 120.711 273.463 119.451C271.764 117.563 270.057 115.15 268.268 113.143C267.368 112.139 266.445 111.23 265.432 110.534C264.423 109.843 263.281 109.347 262.015 109.346C261.891 109.346 261.767 109.35 261.641 109.361C260.761 109.429 259.977 109.664 259.332 110.07C258.768 110.422 258.329 110.895 258.015 111.394C257.463 112.274 257.24 113.206 257.061 114.071C256.812 115.371 256.628 116.563 256.24 117.214C256.049 117.543 255.857 117.747 255.547 117.919C255.235 118.089 254.753 118.231 253.965 118.231L253.708 118.227C253.048 118.202 252.372 118.016 251.659 117.671C250.413 117.072 249.087 115.967 247.771 114.612C245.791 112.58 243.843 110.023 241.892 107.903C240.913 106.843 239.932 105.886 238.887 105.151C237.845 104.423 236.704 103.886 235.425 103.856L235.328 103.855C234.464 103.853 233.653 104.098 232.98 104.498C231.797 105.207 231.011 106.28 230.309 107.4C229.272 109.088 228.408 110.983 227.352 112.353C226.829 113.038 226.275 113.582 225.671 113.946C225.064 114.307 224.412 114.516 223.543 114.52C223.127 114.52 222.66 114.468 222.133 114.346C221.416 114.182 220.7 114.628 220.535 115.346C220.368 116.063 220.816 116.779 221.533 116.944C222.235 117.107 222.905 117.187 223.543 117.187C224.559 117.188 225.493 116.98 226.313 116.612C227.757 115.967 228.811 114.881 229.655 113.725C230.916 111.986 231.791 110.017 232.707 108.599C233.159 107.89 233.612 107.334 234.037 107.002C234.471 106.668 234.823 106.53 235.328 106.522H235.372C235.771 106.53 236.245 106.667 236.809 106.987C237.796 107.539 238.972 108.639 240.193 109.998C242.04 112.036 244.013 114.625 246.168 116.783C247.248 117.862 248.377 118.839 249.603 119.583C250.824 120.325 252.164 120.838 253.611 120.891C253.731 120.895 253.848 120.898 253.965 120.898C254.929 120.898 255.775 120.743 256.503 120.419C257.139 120.138 257.669 119.722 258.067 119.243C258.767 118.4 259.073 117.442 259.287 116.555C259.591 115.222 259.729 113.951 260.075 113.191C260.243 112.807 260.42 112.571 260.652 112.395C260.887 112.224 261.22 112.071 261.851 112.018L262.015 112.012C262.432 112.012 262.888 112.137 263.417 112.422C264.341 112.915 265.419 113.924 266.515 115.187C268.172 117.08 269.887 119.506 271.743 121.524C272.675 122.534 273.645 123.449 274.719 124.146C275.785 124.838 276.988 125.32 278.305 125.327H278.351C279.488 125.327 280.495 125.115 281.347 124.67C281.983 124.336 282.517 123.874 282.928 123.34C283.545 122.536 283.889 121.602 284.091 120.634C284.292 119.662 284.353 118.642 284.353 117.6C284.351 115.219 284.032 112.694 284.036 110.638C284.029 109.295 284.187 108.175 284.497 107.538C284.651 107.215 284.817 107.013 285.02 106.861C285.224 106.711 285.489 106.591 285.932 106.534C286.111 106.512 286.291 106.502 286.475 106.502C287.549 106.498 288.748 106.888 289.937 107.546C291.721 108.524 293.441 110.075 294.68 111.379C295.301 112.03 295.807 112.618 296.152 113.039C296.325 113.25 296.459 113.418 296.547 113.533L296.645 113.662L296.673 113.699C297.111 114.291 297.945 114.416 298.539 113.979C299.131 113.542 299.256 112.707 298.819 112.115Z" fill="#100F0D"/>
<path d="M874.113 138.735H805.8C800.929 138.735 796.98 142.685 796.98 147.557V184.049C796.98 188.921 800.929 192.87 805.8 192.87H813.917C813.917 207.642 804.125 221.825 785.657 220.558C794.593 227.442 830.233 224.037 830.233 192.87H874.113C878.985 192.87 882.935 188.921 882.935 184.049V147.557C882.935 142.685 878.985 138.735 874.113 138.735Z" fill="white"/>
<path d="M874.114 138.735V138.401H805.8C800.746 138.403 796.647 142.5 796.647 147.556V184.048C796.647 189.104 800.746 193.203 805.8 193.203H813.918V192.869H813.584C813.584 199.876 811.358 206.744 807.043 211.845C802.727 216.947 796.339 220.3 787.93 220.303C787.195 220.303 786.446 220.277 785.681 220.225C785.534 220.215 785.399 220.301 785.346 220.44C785.294 220.577 785.338 220.732 785.455 220.821C787.989 222.765 792.439 223.868 797.611 223.872C804.535 223.871 812.754 221.867 819.268 216.981C825.786 212.101 830.572 204.311 830.567 192.869H830.234V193.203H874.114C879.17 193.203 883.267 189.104 883.268 184.048V147.556C883.267 142.5 879.17 138.403 874.114 138.401V138.735V139.068C876.459 139.069 878.578 140.019 880.115 141.555C881.651 143.092 882.6 145.211 882.602 147.556V184.048C882.6 186.393 881.651 188.513 880.115 190.051C878.578 191.587 876.459 192.536 874.114 192.536H830.234L829.999 192.633L829.9 192.869C829.896 204.124 825.234 211.668 818.868 216.448C812.504 221.225 804.41 223.208 797.611 223.205C792.538 223.211 788.186 222.092 785.862 220.293L785.658 220.557L785.635 220.891C786.415 220.944 787.179 220.969 787.93 220.969C796.518 220.973 803.125 217.52 807.553 212.276C811.983 207.032 814.251 200.016 814.251 192.869L814.154 192.633L813.918 192.536H805.8C803.456 192.536 801.337 191.587 799.799 190.051C798.263 188.513 797.314 186.393 797.314 184.048V147.556C797.314 145.211 798.263 143.092 799.799 141.555C801.337 140.019 803.456 139.069 805.8 139.068H874.114V138.735Z" fill="#100F0D"/>
<path d="M816.113 172.848C817.736 174.047 819.37 175.271 821.146 176.222C822.918 177.171 824.862 177.85 827.017 177.85L827.081 177.848C829.458 177.838 831.488 177.042 833.208 175.915C835.793 174.219 837.802 171.832 839.908 169.862C840.957 168.874 842.018 167.99 843.148 167.316C844.277 166.644 845.465 166.178 846.824 165.996C847.082 165.963 847.337 165.947 847.592 165.947C848.794 165.946 849.996 166.314 851.217 166.928C853.049 167.844 854.862 169.31 856.622 170.604C857.506 171.251 858.38 171.856 859.286 172.326C860.19 172.79 861.145 173.134 862.19 173.138C862.574 173.138 862.965 173.088 863.349 172.98C864.057 172.782 864.472 172.047 864.273 171.338C864.076 170.628 863.34 170.214 862.63 170.412C862.489 170.451 862.348 170.471 862.19 170.471C861.633 170.482 860.79 170.172 859.792 169.547C858.29 168.623 856.512 167.103 854.513 165.776C852.513 164.459 850.229 163.287 847.592 163.28C847.224 163.28 846.85 163.303 846.474 163.354C844.118 163.663 842.148 164.663 840.46 165.908C837.924 167.782 835.925 170.192 833.848 172.043C832.812 172.971 831.769 173.756 830.669 174.304C829.566 174.851 828.416 175.171 827.066 175.183H827.017C825.43 175.182 823.941 174.691 822.405 173.871C820.872 173.052 819.324 171.907 817.698 170.704C817.106 170.267 816.272 170.391 815.834 170.984C815.396 171.576 815.521 172.411 816.113 172.848Z" fill="#100F0D"/>
<path d="M786.779 175.94C790.239 175.258 792.894 173.486 795.422 171.859C797.959 170.218 800.363 168.714 803.363 168.156C804.062 168.026 804.728 167.967 805.371 167.966C807.776 167.967 809.896 168.794 811.979 170.012C812.614 170.386 813.431 170.172 813.803 169.538C814.176 168.902 813.963 168.086 813.328 167.712C811.028 166.362 808.411 165.299 805.371 165.299C804.564 165.299 803.731 165.375 802.872 165.535C799.263 166.211 796.512 167.984 793.975 169.619C791.428 171.27 789.091 172.774 786.266 173.324C785.543 173.466 785.072 174.167 785.214 174.89C785.355 175.612 786.056 176.083 786.779 175.94Z" fill="#100F0D"/>
<path d="M878.857 171.829C877.979 175.245 874.928 177.413 872.041 176.672C869.156 175.929 867.529 172.559 868.407 169.143C869.285 165.727 872.336 163.56 875.223 164.301C878.108 165.043 879.736 168.413 878.857 171.829Z" fill="#100F0D"/>
<path d="M872.628 161.429L878.077 162.42C880.472 153.213 885.18 142.024 890.259 133.972L878.697 130.339C878.697 130.339 874.733 145.409 872.628 161.429Z" fill="#100F0D"/>
<path d="M938.554 420.939H937.554C937.553 438.593 930.401 454.568 918.832 466.139C907.261 477.708 891.286 484.86 873.632 484.861C855.977 484.86 840.002 477.708 828.432 466.139C816.862 454.568 809.71 438.593 809.709 420.939C809.71 403.284 816.862 387.309 828.432 375.739C840.002 364.169 855.977 357.017 873.632 357.016C891.286 357.017 907.261 364.169 918.832 375.739C930.401 387.309 937.553 403.284 937.554 420.939H938.554H939.554C939.553 384.531 910.04 355.017 873.632 355.016C837.224 355.017 807.71 384.531 807.709 420.939C807.71 457.347 837.224 486.86 873.632 486.861C910.04 486.86 939.553 457.347 939.554 420.939H938.554Z" fill="#4A59B1"/>
<path d="M906.245 420.939H905.245C905.248 438.729 901.613 454.829 895.798 466.397C892.894 472.181 889.448 476.825 885.682 479.995C881.912 483.165 877.858 484.859 873.632 484.861C869.405 484.859 865.352 483.165 861.582 479.995C855.932 475.244 851.008 467.16 847.536 456.916C844.06 446.673 842.018 434.283 842.02 420.939C842.017 403.148 845.65 387.048 851.465 375.48C854.369 369.696 857.817 365.052 861.582 361.883C865.352 358.712 869.405 357.019 873.632 357.016C877.858 357.019 881.912 358.712 885.682 361.883C891.333 366.633 896.256 374.717 899.728 384.961C903.205 395.204 905.245 407.595 905.245 420.939H906.245H907.245C907.242 402.875 903.576 386.513 897.586 374.583C894.589 368.619 891.009 363.756 886.97 360.353C882.937 356.953 878.41 355.015 873.632 355.016C868.853 355.015 864.326 356.953 860.293 360.353C854.238 365.459 849.202 373.84 845.642 384.319C842.086 394.8 840.02 407.391 840.02 420.939C840.022 439.003 843.689 455.364 849.678 467.295C852.676 473.259 856.256 478.121 860.293 481.524C864.326 484.924 868.853 486.863 873.632 486.861C878.41 486.863 882.937 484.924 886.97 481.524C893.025 476.419 898.061 468.037 901.622 457.559C905.178 447.077 907.244 434.487 907.245 420.939H906.245Z" fill="#4A59B1"/>
<path d="M922.889 378.406C911.197 385.415 893.468 389.942 873.631 389.937C853.792 389.942 836.063 385.415 824.371 378.406L823.343 380.122C835.469 387.377 853.487 391.931 873.631 391.937C893.773 391.931 911.791 387.377 923.917 380.122L922.889 378.406Z" fill="#4A59B1"/>
<path d="M824.371 463.473C836.063 456.463 853.792 451.938 873.631 451.942C893.468 451.938 911.197 456.463 922.889 463.473L923.917 461.757C911.791 454.502 893.773 449.947 873.631 449.942C853.487 449.947 835.469 454.502 823.343 461.757L824.371 463.473Z" fill="#4A59B1"/>
<path d="M872.632 485.861H874.632V356.016H872.632V485.861Z" fill="#4A59B1"/>
<path d="M808.709 421.939H938.554V419.939H808.709V421.939Z" fill="#4A59B1"/>
<path d="M172.464 345.619H153.732C152.215 345.619 150.984 344.388 150.984 342.871V324.139C150.984 322.622 152.215 321.391 153.732 321.391H172.464C173.982 321.391 175.212 322.622 175.212 324.139V342.871C175.212 344.388 173.982 345.619 172.464 345.619Z" fill="#B8BEE5"/>
<path d="M205.688 345.618V344.952H186.956C185.806 344.949 184.877 344.02 184.874 342.871V324.139C184.877 322.989 185.806 322.06 186.956 322.057H205.688C206.837 322.06 207.766 322.989 207.768 324.139V342.871C207.766 344.02 206.837 344.949 205.688 344.952V345.618V346.285C207.573 346.285 209.101 344.757 209.101 342.871V324.139C209.101 322.253 207.573 320.725 205.688 320.724H186.956C185.069 320.725 183.541 322.253 183.541 324.139V342.871C183.541 344.757 185.069 346.285 186.956 346.285H205.688V345.618Z" fill="#B8BEE5"/>
<path d="M238.91 345.619H220.18C218.661 345.619 217.432 344.388 217.432 342.871V324.139C217.432 322.622 218.661 321.391 220.18 321.391H238.91C240.429 321.391 241.658 322.622 241.658 324.139V342.871C241.658 344.388 240.429 345.619 238.91 345.619Z" fill="#B8BEE5"/>
<path d="M185.799 331.437C189.651 333.576 193.084 337.193 196.322 341.504C196.322 341.504 202.593 330.441 216.147 318.68L210.217 314.096C210.217 314.096 201.945 321.969 196.322 336.123C192.924 333.487 189.416 331.931 185.799 331.437Z" fill="#E82F43"/>
<path d="M673.655 131.507H671.302C667.818 131.507 664.994 128.681 664.994 125.199V101.315C664.994 97.8321 667.818 95.0068 671.302 95.0068H673.655C677.139 95.0068 679.965 97.8308 679.965 101.315V125.199C679.965 128.683 677.139 131.507 673.655 131.507Z" fill="#B8BEE5"/>
<path d="M721.436 116.872C720.581 121.8 716.107 122.868 716.107 122.868C716.107 122.868 719.061 123.148 718.332 126.007C717.603 128.87 715.108 131.507 712.851 131.507H694.557C691.54 131.507 688.54 130.92 685.792 129.679C685.612 129.598 685.439 129.522 685.271 129.45C684.135 128.968 683.409 127.842 683.409 126.607V100.078C683.409 98.8428 683.715 97.6335 684.293 96.5428C685.556 94.1601 687.729 89.7162 687.729 87.3308C687.729 83.9668 682.617 73.1935 686.168 70.9549C689.641 68.7642 694.167 71.7362 697.148 77.1175C699.497 81.3615 697.821 90.5735 699.503 92.2562H717.224C717.224 92.2562 722.032 92.0882 721.705 96.5215C721.424 100.334 719.351 102.516 719.351 102.516C719.351 102.516 722.484 102.291 722.377 106.384C722.277 110.285 719.243 113.004 719.243 113.004C719.243 113.004 722.031 113.436 721.436 116.872Z" fill="#B8BEE5"/>
<path d="M132.424 236.686H130.07C126.586 236.686 123.762 233.86 123.762 230.378V206.494C123.762 203.01 126.586 200.186 130.07 200.186H132.424C135.907 200.186 138.732 203.01 138.732 206.494V230.378C138.732 233.86 135.907 236.686 132.424 236.686Z" fill="#B8BEE5"/>
<path d="M180.202 222.05C179.349 226.979 174.874 228.047 174.874 228.047C174.874 228.047 177.828 228.327 177.098 231.186C176.369 234.048 173.876 236.686 171.618 236.686L153.324 236.684C150.308 236.684 147.308 236.099 144.558 234.856C144.38 234.776 144.205 234.7 144.037 234.628C142.901 234.147 142.176 233.02 142.176 231.786V205.256C142.176 204.022 142.481 202.811 143.06 201.72C144.324 199.339 146.496 194.895 146.496 192.51C146.496 189.146 141.385 178.372 144.934 176.134C148.409 173.943 152.934 176.914 155.914 182.296C158.265 186.54 156.588 195.752 158.269 197.434H175.99C175.99 197.434 180.8 197.266 180.472 201.7C180.19 205.512 178.117 207.695 178.117 207.695C178.117 207.695 181.25 207.47 181.145 211.563C181.044 215.464 178.009 218.183 178.009 218.183C178.009 218.183 180.798 218.615 180.202 222.05Z" fill="#B8BEE5"/>
<path d="M850.477 279.495H849.008C846.83 279.495 845.066 277.73 845.066 275.554V260.636C845.066 258.46 846.832 256.695 849.008 256.695H850.477C852.653 256.695 854.418 258.46 854.418 260.636V275.554C854.418 277.73 852.653 279.495 850.477 279.495Z" fill="#B8BEE5"/>
<path d="M880.323 270.352C879.789 273.432 876.993 274.098 876.993 274.098C876.993 274.098 878.839 274.274 878.384 276.059C877.928 277.847 876.371 279.495 874.96 279.495H863.533C861.648 279.495 859.775 279.128 858.057 278.352L857.732 278.21C857.023 277.908 856.569 277.206 856.569 276.434V259.863C856.569 259.091 856.76 258.336 857.121 257.655C857.911 256.166 859.268 253.391 859.268 251.9C859.268 249.799 856.075 243.07 858.293 241.672C860.463 240.303 863.289 242.159 865.152 245.522C866.619 248.172 865.572 253.926 866.623 254.976H877.692C877.692 254.976 880.695 254.872 880.491 257.642C880.315 260.023 879.02 261.386 879.02 261.386C879.02 261.386 880.977 261.246 880.911 263.802C880.848 266.239 878.952 267.938 878.952 267.938C878.952 267.938 880.695 268.207 880.323 270.352Z" fill="#B8BEE5"/>
<path d="M188.977 417.687C188.977 431.979 177.391 443.565 163.097 443.565C148.805 443.565 137.219 431.979 137.219 417.687C137.219 403.393 148.805 391.807 163.097 391.807C177.391 391.807 188.977 403.393 188.977 417.687Z" fill="#4A59B1"/>
<path d="M170.705 412.144C170.705 416.926 167.3 420.802 163.097 420.802C158.896 420.802 155.49 416.926 155.49 412.144C155.49 407.363 158.896 403.487 163.097 403.487C167.3 403.487 170.705 407.363 170.705 412.144Z" fill="white"/>
<path d="M180.053 433.385C175.837 437.944 169.794 440.799 163.096 440.799C156.398 440.799 150.356 437.944 146.14 433.385C146.97 432.316 147.905 431.34 148.924 430.458C152.006 427.799 155.88 426.033 160.106 425.525C162.089 425.285 164.104 425.285 166.086 425.525C171.714 426.2 176.698 429.097 180.053 433.385Z" fill="white"/>
<path d="M408.077 91.1088C408.077 100.297 400.628 107.746 391.44 107.746C382.251 107.746 374.803 100.297 374.803 91.1088C374.803 81.9195 382.251 74.4714 391.44 74.4714C400.628 74.4714 408.077 81.9195 408.077 91.1088Z" fill="#4A59B1"/>
<path d="M396.331 87.546C396.331 90.6193 394.14 93.1113 391.44 93.1113C388.739 93.1113 386.55 90.6193 386.55 87.546C386.55 84.4726 388.739 81.9793 391.44 81.9793C394.14 81.9793 396.331 84.4726 396.331 87.546Z" fill="white"/>
<path d="M402.34 101.2C399.63 104.131 395.744 105.967 391.439 105.967C387.134 105.967 383.248 104.131 380.539 101.2C381.072 100.512 381.674 99.8854 382.327 99.3174C384.31 97.6094 386.8 96.4735 389.516 96.1468C390.792 95.9935 392.087 95.9935 393.362 96.1468C396.979 96.5815 400.184 98.4428 402.34 101.2Z" fill="white"/>
<path d="M954.187 420.802C954.187 429.991 946.737 437.439 937.549 437.439C928.361 437.439 920.912 429.991 920.912 420.802C920.912 411.614 928.361 404.166 937.549 404.166C946.737 404.166 954.187 411.614 954.187 420.802Z" fill="#4A59B1"/>
<path d="M942.44 417.239C942.44 420.314 940.25 422.806 937.549 422.806C934.848 422.806 932.658 420.314 932.658 417.239C932.658 414.166 934.848 411.674 937.549 411.674C940.25 411.674 942.44 414.166 942.44 417.239Z" fill="white"/>
<path d="M948.45 430.895C945.739 433.825 941.855 435.66 937.548 435.66C933.243 435.66 929.358 433.825 926.648 430.895C927.182 430.207 927.783 429.579 928.438 429.012C930.42 427.303 932.91 426.168 935.626 425.842C936.902 425.688 938.196 425.688 939.471 425.842C943.09 426.275 946.294 428.137 948.45 430.895Z" fill="white"/>
<path d="M62.4502 588.612H937.549C938.101 588.612 938.549 588.164 938.549 587.612C938.549 587.06 938.101 586.612 937.549 586.612H62.4502C61.8981 586.612 61.4502 587.06 61.4502 587.612C61.4502 588.164 61.8981 588.612 62.4502 588.612Z" fill="#100F0D"/>
<path d="M261.649 601.978H514.996C515.272 601.978 515.496 601.754 515.496 601.478C515.496 601.202 515.272 600.978 514.996 600.978H261.649C261.373 600.978 261.149 601.202 261.149 601.478C261.149 601.754 261.373 601.978 261.649 601.978Z" fill="#100F0D"/>
<path d="M677.1 601.978H844.613C844.889 601.978 845.113 601.754 845.113 601.478C845.113 601.202 844.889 600.978 844.613 600.978H677.1C676.824 600.978 676.6 601.202 676.6 601.478C676.6 601.754 676.824 601.978 677.1 601.978Z" fill="#100F0D"/>
<path d="M131.381 404.346C122.369 400.13 114.176 394.125 108.043 386.238C102.787 379.478 99.2042 371.49 97.6599 363.067C96.1949 355.077 96.5558 346.766 98.6777 338.926C100.719 331.383 104.391 324.25 109.563 318.374C114.761 312.466 121.441 307.923 128.934 305.475C137.37 302.721 146.448 302.715 155.054 304.682C157.565 305.255 160.04 305.989 162.465 306.854C164.694 307.649 167.706 308.67 168.16 311.373C168.513 313.473 166.645 314.55 164.793 313.923C162.26 313.067 160.308 310.43 158.782 308.343C153.418 301.01 151.889 291.553 154.701 282.911C157.442 274.483 163.946 267.543 172.15 264.209C182.336 260.069 193.68 262.071 203.17 267.081C206.201 268.681 209.069 270.569 211.797 272.642C212.056 272.838 212.322 272.41 212.066 272.215C202.513 264.959 190.525 259.803 178.333 261.923C169.273 263.499 161.233 269.146 156.698 277.149C152.269 284.963 151.5 294.522 155.049 302.822C155.998 305.042 157.234 307.13 158.688 309.055C160.232 311.101 162.129 313.553 164.642 314.405C166.192 314.93 168.026 314.509 168.566 312.803C169.15 310.962 167.897 309.141 166.461 308.11C165.313 307.286 163.934 306.843 162.616 306.374C161.32 305.911 160.009 305.486 158.685 305.103C156.228 304.391 153.729 303.827 151.201 303.43C146.642 302.711 141.993 302.566 137.406 303.106C129.18 304.077 121.352 307.355 114.903 312.554C108.645 317.597 103.818 324.279 100.667 331.651C97.4135 339.263 95.9375 347.627 96.3334 355.893C96.7469 364.526 99.2157 373.019 103.562 380.494C108.466 388.929 115.631 395.846 123.927 400.925C126.246 402.343 128.65 403.619 131.112 404.771C131.402 404.907 131.674 404.483 131.381 404.346Z" fill="#100F0D"/>
</svg>
